<?xml version="1.0" encoding="UTF-8" standalone="no"?>
<!-- Generated by graphviz version 3.0.0 (20220226.1711)
 -->

<!-- Pages: 1 -->

<svg
   width="669pt"
   height="980pt"
   viewBox="0.00 0.00 669.00 980.00"
   version="1.1"
   id="svg502"
   sodipodi:docname="k_subarray.svg"
   inkscape:export-filename="k_subarray.png"
   inkscape:export-xdpi="96"
   inkscape:export-ydpi="96"
   inkscape:version="1.2 (dc2aeda, 2022-05-15)"
   xmlns:inkscape="http://www.inkscape.org/namespaces/inkscape"
   xmlns:sodipodi="http://sodipodi.sourceforge.net/DTD/sodipodi-0.dtd"
   xmlns="http://www.w3.org/2000/svg"
   xmlns:svg="http://www.w3.org/2000/svg">
  <defs
     id="defs506" />
  <sodipodi:namedview
     id="namedview504"
     pagecolor="#ffffff"
     bordercolor="#666666"
     borderopacity="1.0"
     inkscape:showpageshadow="2"
     inkscape:pageopacity="0.0"
     inkscape:pagecheckerboard="0"
     inkscape:deskcolor="#d1d1d1"
     inkscape:document-units="pt"
     showgrid="false"
     inkscape:zoom="0.18061224"
     inkscape:cx="448.47458"
     inkscape:cy="653.33333"
     inkscape:window-width="1313"
     inkscape:window-height="458"
     inkscape:window-x="0"
     inkscape:window-y="25"
     inkscape:window-maximized="0"
     inkscape:current-layer="svg502" />
  <g
     id="graph0"
     class="graph"
     transform="scale(1 1) rotate(0) translate(4 976)">
    <polygon
       fill="white"
       stroke="transparent"
       points="-4,4 -4,-976 665,-976 665,4 -4,4"
       id="polygon263" />
    <!-- D0 -->
    <g
       id="node1"
       class="node">
      <title
         id="title265">D0</title>
      <path
         fill="none"
         stroke="black"
         d="M279,-972C279,-972 249,-972 249,-972 243,-972 237,-966 237,-960 237,-960 237,-948 237,-948 237,-942 243,-936 249,-936 249,-936 279,-936 279,-936 285,-936 291,-942 291,-948 291,-948 291,-960 291,-960 291,-966 285,-972 279,-972"
         id="path267" />
      <text
         text-anchor="middle"
         x="264"
         y="-950.3"
         font-family="Times,serif"
         font-size="14.00"
         id="text269">begin</text>
    </g>
    <!-- D4 -->
    <g
       id="node3"
       class="node">
      <title
         id="title272">D4</title>
      <polygon
         fill="none"
         stroke="black"
         points="380.5,-900 147.5,-900 147.5,-864 380.5,-864 380.5,-900"
         id="polygon274" />
      <text
         text-anchor="middle"
         x="264"
         y="-878.3"
         font-family="Times,serif"
         font-size="14.00"
         id="text276">std::unordered_map&lt;T, int&gt; sum_map;</text>
    </g>
    <!-- D0&#45;&gt;D4 -->
    <g
       id="edge17"
       class="edge">
      <title
         id="title279">D0-&gt;D4</title>
      <path
         fill="none"
         stroke="black"
         d="M264,-935.7C264,-927.98 264,-918.71 264,-910.11"
         id="path281" />
      <polygon
         fill="black"
         stroke="black"
         points="267.5,-910.1 264,-900.1 260.5,-910.1 267.5,-910.1"
         id="polygon283" />
    </g>
    <!-- D1 -->
    <g
       id="node2"
       class="node">
      <title
         id="title286">D1</title>
      <path
         fill="none"
         stroke="black"
         d="M649,-36C649,-36 619,-36 619,-36 613,-36 607,-30 607,-24 607,-24 607,-12 607,-12 607,-6 613,0 619,0 619,0 649,0 649,0 655,0 661,-6 661,-12 661,-12 661,-24 661,-24 661,-30 655,-36 649,-36"
         id="path288" />
      <text
         text-anchor="middle"
         x="634"
         y="-14.3"
         font-family="Times,serif"
         font-size="14.00"
         id="text290">end</text>
    </g>
    <!-- D6 -->
    <g
       id="node4"
       class="node">
      <title
         id="title293">D6</title>
      <polygon
         fill="none"
         stroke="black"
         points="302.5,-828 225.5,-828 225.5,-792 302.5,-792 302.5,-828"
         id="polygon295" />
      <text
         text-anchor="middle"
         x="264"
         y="-806.3"
         font-family="Times,serif"
         font-size="14.00"
         id="text297">int res = 0;</text>
    </g>
    <!-- D4&#45;&gt;D6 -->
    <g
       id="edge1"
       class="edge">
      <title
         id="title300">D4-&gt;D6</title>
      <path
         fill="none"
         stroke="black"
         d="M264,-863.7C264,-855.98 264,-846.71 264,-838.11"
         id="path302" />
      <polygon
         fill="black"
         stroke="black"
         points="267.5,-838.1 264,-828.1 260.5,-838.1 267.5,-838.1"
         id="polygon304" />
    </g>
    <!-- D8 -->
    <g
       id="node5"
       class="node">
      <title
         id="title307">D8</title>
      <polygon
         fill="none"
         stroke="black"
         points="325.5,-756 202.5,-756 202.5,-720 325.5,-720 325.5,-756"
         id="polygon309" />
      <text
         text-anchor="middle"
         x="264"
         y="-734.3"
         font-family="Times,serif"
         font-size="14.00"
         id="text311">T current_sum = 0;</text>
    </g>
    <!-- D6&#45;&gt;D8 -->
    <g
       id="edge2"
       class="edge">
      <title
         id="title314">D6-&gt;D8</title>
      <path
         fill="none"
         stroke="black"
         d="M264,-791.7C264,-783.98 264,-774.71 264,-766.11"
         id="path316" />
      <polygon
         fill="black"
         stroke="black"
         points="267.5,-766.1 264,-756.1 260.5,-766.1 267.5,-766.1"
         id="polygon318" />
    </g>
    <!-- D13 -->
    <g
       id="node7"
       class="node">
      <title
         id="title321">D13</title>
      <polygon
         fill="none"
         stroke="black"
         points="296.5,-684 231.5,-684 231.5,-648 296.5,-648 296.5,-684"
         id="polygon323" />
      <text
         text-anchor="middle"
         x="264"
         y="-662.3"
         font-family="Times,serif"
         font-size="14.00"
         id="text325">int i = 0;</text>
    </g>
    <!-- D8&#45;&gt;D13 -->
    <g
       id="edge3"
       class="edge">
      <title
         id="title328">D8-&gt;D13</title>
      <path
         fill="none"
         stroke="black"
         d="M264,-719.7C264,-711.98 264,-702.71 264,-694.11"
         id="path330" />
      <polygon
         fill="black"
         stroke="black"
         points="267.5,-694.1 264,-684.1 260.5,-694.1 267.5,-694.1"
         id="polygon332" />
    </g>
    <!-- D12 -->
    <g
       id="node6"
       class="node">
      <title
         id="title335">D12</title>
      <polygon
         fill="none"
         stroke="black"
         points="264,-612 218.92,-594 264,-576 309.08,-594 264,-612"
         id="polygon337" />
      <text
         text-anchor="middle"
         x="264"
         y="-590.3"
         font-family="Times,serif"
         font-size="14.00"
         id="text339">i &lt; n?</text>
    </g>
    <!-- D17 -->
    <g
       id="node9"
       class="node">
      <title
         id="title342">D17</title>
      <polygon
         fill="none"
         stroke="black"
         points="334,-540 194,-540 194,-504 334,-504 334,-540"
         id="polygon344" />
      <text
         text-anchor="middle"
         x="264"
         y="-518.3"
         font-family="Times,serif"
         font-size="14.00"
         id="text346">current_sum += arr[i];</text>
    </g>
    <!-- D12&#45;&gt;D17 -->
    <g
       id="edge15"
       class="edge">
      <title
         id="title349">D12:s-&gt;D17:n</title>
      <path
         fill="none"
         stroke="black"
         d="M264,-576C264,-576 264,-560.86 264,-550.22"
         id="path351" />
      <polygon
         fill="black"
         stroke="black"
         points="267.5,-550 264,-540 260.5,-550 267.5,-550"
         id="polygon353" />
      <text
         text-anchor="middle"
         x="259"
         y="-551.91"
         font-family="Times,serif"
         font-size="14.00"
         id="text355">Y</text>
    </g>
    <!-- D31 -->
    <g
       id="node15"
       class="node">
      <title
         id="title358">D31</title>
      <polygon
         fill="none"
         stroke="black"
         points="619,-468 547,-468 547,-432 619,-432 619,-468"
         id="polygon360" />
      <text
         text-anchor="middle"
         x="583"
         y="-446.3"
         font-family="Times,serif"
         font-size="14.00"
         id="text362">return res;</text>
    </g>
    <!-- D12&#45;&gt;D31 -->
    <g
       id="edge4"
       class="edge">
      <title
         id="title365">D12:e-&gt;D31:n</title>
      <path
         fill="none"
         stroke="black"
         d="M310,-594C310,-594 526.55,-494.06 573.92,-472.19"
         id="path367" />
      <polygon
         fill="black"
         stroke="black"
         points="575.39,-475.37 583,-468 572.45,-469.01 575.39,-475.37"
         id="polygon369" />
      <text
         text-anchor="middle"
         x="436.96"
         y="-536.9"
         font-family="Times,serif"
         font-size="14.00"
         id="text371">N</text>
    </g>
    <!-- D13&#45;&gt;D12 -->
    <g
       id="edge5"
       class="edge">
      <title
         id="title374">D13-&gt;D12</title>
      <path
         fill="none"
         stroke="black"
         d="M264,-647.7C264,-639.98 264,-630.71 264,-622.11"
         id="path376" />
      <polygon
         fill="black"
         stroke="black"
         points="267.5,-622.1 264,-612.1 260.5,-622.1 267.5,-622.1"
         id="polygon378" />
    </g>
    <!-- D14 -->
    <g
       id="node8"
       class="node">
      <title
         id="title381">D14</title>
      <polygon
         fill="none"
         stroke="black"
         points="186,-108 132,-108 132,-72 186,-72 186,-108"
         id="polygon383" />
      <text
         text-anchor="middle"
         x="159"
         y="-86.3"
         font-family="Times,serif"
         font-size="14.00"
         id="text385">i++</text>
    </g>
    <!-- D14&#45;&gt;D12 -->
    <g
       id="edge7"
       class="edge">
      <title
         id="title388">D14-&gt;D12</title>
      <path
         fill="none"
         stroke="black"
         d="M139.82,-108.13C97.53,-145.9 0,-233 0,-233 0,-451 0,-451 0,-451 0,-451 169.16,-541.99 236.66,-578.3"
         id="path390" />
      <polygon
         fill="black"
         stroke="black"
         points="235.39,-581.59 245.85,-583.24 238.71,-575.42 235.39,-581.59"
         id="polygon392" />
    </g>
    <!-- D19 -->
    <g
       id="node10"
       class="node">
      <title
         id="title395">D19</title>
      <polygon
         fill="none"
         stroke="black"
         points="264,-468 143.68,-450 264,-432 384.32,-450 264,-468"
         id="polygon397" />
      <text
         text-anchor="middle"
         x="264"
         y="-446.3"
         font-family="Times,serif"
         font-size="14.00"
         id="text399">(current_sum == k)?</text>
    </g>
    <!-- D17&#45;&gt;D19 -->
    <g
       id="edge6"
       class="edge">
      <title
         id="title402">D17-&gt;D19</title>
      <path
         fill="none"
         stroke="black"
         d="M264,-503.7C264,-495.98 264,-486.71 264,-478.11"
         id="path404" />
      <polygon
         fill="black"
         stroke="black"
         points="267.5,-478.1 264,-468.1 260.5,-478.1 267.5,-478.1"
         id="polygon406" />
    </g>
    <!-- D22 -->
    <g
       id="node11"
       class="node">
      <title
         id="title409">D22</title>
      <polygon
         fill="none"
         stroke="black"
         points="308,-396 254,-396 254,-360 308,-360 308,-396"
         id="polygon411" />
      <text
         text-anchor="middle"
         x="281"
         y="-374.3"
         font-family="Times,serif"
         font-size="14.00"
         id="text413">++res;</text>
    </g>
    <!-- D19&#45;&gt;D22 -->
    <g
       id="edge10"
       class="edge">
      <title
         id="title416">D19:s-&gt;D22:n</title>
      <path
         fill="none"
         stroke="black"
         d="M264,-432C264,-432 271.67,-415.75 276.71,-405.08"
         id="path418" />
      <polygon
         fill="black"
         stroke="black"
         points="279.89,-406.54 281,-396 273.57,-403.55 279.89,-406.54"
         id="polygon420" />
      <text
         text-anchor="middle"
         x="265.36"
         y="-407.34"
         font-family="Times,serif"
         font-size="14.00"
         id="text422">Y</text>
    </g>
    <!-- D24 -->
    <g
       id="node12"
       class="node">
      <title
         id="title425">D24</title>
      <polygon
         fill="none"
         stroke="black"
         points="317,-324 28.27,-306 317,-288 605.73,-306 317,-324"
         id="polygon427" />
      <text
         text-anchor="middle"
         x="317"
         y="-302.3"
         font-family="Times,serif"
         font-size="14.00"
         id="text429">(sum_map.find(current_sum - k) != sum_map.end())?</text>
    </g>
    <!-- D19&#45;&gt;D24 -->
    <g
       id="edge8"
       class="edge">
      <title
         id="title432">D19:e-&gt;D24:n</title>
      <path
         fill="none"
         stroke="black"
         d="M386,-450C386,-450 385,-432 385,-432 385,-432 338.37,-357.93 322.34,-332.47"
         id="path434" />
      <polygon
         fill="black"
         stroke="black"
         points="325.29,-330.6 317,-324 319.37,-334.33 325.29,-330.6"
         id="polygon436" />
      <text
         text-anchor="middle"
         x="353.47"
         y="-393.67"
         font-family="Times,serif"
         font-size="14.00"
         id="text438">N</text>
    </g>
    <!-- D22&#45;&gt;D24 -->
    <g
       id="edge9"
       class="edge">
      <title
         id="title441">D22-&gt;D24</title>
      <path
         fill="none"
         stroke="black"
         d="M289.9,-359.7C294.1,-351.52 299.2,-341.6 303.84,-332.58"
         id="path443" />
      <polygon
         fill="black"
         stroke="black"
         points="306.99,-334.12 308.45,-323.62 300.77,-330.91 306.99,-334.12"
         id="polygon445" />
    </g>
    <!-- D27 -->
    <g
       id="node13"
       class="node">
      <title
         id="title448">D27</title>
      <polygon
         fill="none"
         stroke="black"
         points="422,-252 212,-252 212,-216 422,-216 422,-252"
         id="polygon450" />
      <text
         text-anchor="middle"
         x="317"
         y="-230.3"
         font-family="Times,serif"
         font-size="14.00"
         id="text452">res += sum_map[current_sum - k];</text>
    </g>
    <!-- D24&#45;&gt;D27 -->
    <g
       id="edge13"
       class="edge">
      <title
         id="title455">D24:s-&gt;D27:n</title>
      <path
         fill="none"
         stroke="black"
         d="M317,-288C317,-288 317,-272.86 317,-262.22"
         id="path457" />
      <polygon
         fill="black"
         stroke="black"
         points="320.5,-262 317,-252 313.5,-262 320.5,-262"
         id="polygon459" />
      <text
         text-anchor="middle"
         x="312"
         y="-263.91"
         font-family="Times,serif"
         font-size="14.00"
         id="text461">Y</text>
    </g>
    <!-- D29 -->
    <g
       id="node14"
       class="node">
      <title
         id="title464">D29</title>
      <polygon
         fill="none"
         stroke="black"
         points="401,-180 233,-180 233,-144 401,-144 401,-180"
         id="polygon466" />
      <text
         text-anchor="middle"
         x="317"
         y="-158.3"
         font-family="Times,serif"
         font-size="14.00"
         id="text468">++sum_map[current_sum];</text>
    </g>
    <!-- D24&#45;&gt;D29 -->
    <g
       id="edge11"
       class="edge">
      <title
         id="title471">D24:e-&gt;D29:n</title>
      <path
         fill="none"
         stroke="black"
         d="M607,-306C607,-306 606,-288 606,-288 606,-288 431,-216 431,-216 431,-216 354.29,-191.78 326.72,-183.07"
         id="path473" />
      <polygon
         fill="black"
         stroke="black"
         points="327.59,-179.67 317,-180 325.48,-186.35 327.59,-179.67"
         id="polygon475" />
      <text
         text-anchor="middle"
         x="471.27"
         y="-238.43"
         font-family="Times,serif"
         font-size="14.00"
         id="text477">N</text>
    </g>
    <!-- D27&#45;&gt;D29 -->
    <g
       id="edge12"
       class="edge">
      <title
         id="title480">D27-&gt;D29</title>
      <path
         fill="none"
         stroke="black"
         d="M317,-215.7C317,-207.98 317,-198.71 317,-190.11"
         id="path482" />
      <polygon
         fill="black"
         stroke="black"
         points="320.5,-190.1 317,-180.1 313.5,-190.1 320.5,-190.1"
         id="polygon484" />
    </g>
    <!-- D29&#45;&gt;D14 -->
    <g
       id="edge14"
       class="edge">
      <title
         id="title487">D29-&gt;D14</title>
      <path
         fill="none"
         stroke="black"
         d="M278.35,-143.88C253.19,-132.73 220.56,-118.27 195.78,-107.29"
         id="path489" />
      <polygon
         fill="black"
         stroke="black"
         points="196.92,-103.97 186.36,-103.12 194.08,-110.37 196.92,-103.97"
         id="polygon491" />
    </g>
    <!-- D31&#45;&gt;D1 -->
    <g
       id="edge16"
       class="edge">
      <title
         id="title494">D31-&gt;D1</title>
      <path
         fill="none"
         stroke="black"
         d="M589.15,-431.87C602.72,-394.1 634,-307 634,-307 634,-307 634,-307 634,-161 634,-161 634,-87.6 634,-46.34"
         id="path496" />
      <polygon
         fill="black"
         stroke="black"
         points="637.5,-46.13 634,-36.13 630.5,-46.13 637.5,-46.13"
         id="polygon498" />
    </g>
  </g>
</svg>
