<?xml version="1.0" encoding="UTF-8" standalone="no"?>
<!-- Generated by graphviz version 3.0.0 (20220226.1711)
 -->

<!-- Pages: 1 -->

<svg
   width="701pt"
   height="910pt"
   viewBox="0.00 0.00 701.41 910.00"
   version="1.1"
   id="svg650"
   sodipodi:docname="ListInsert.svg"
   inkscape:export-filename="ListInsert.png"
   inkscape:export-xdpi="96"
   inkscape:export-ydpi="96"
   inkscape:version="1.2 (dc2aeda, 2022-05-15)"
   xmlns:inkscape="http://www.inkscape.org/namespaces/inkscape"
   xmlns:sodipodi="http://sodipodi.sourceforge.net/DTD/sodipodi-0.dtd"
   xmlns="http://www.w3.org/2000/svg"
   xmlns:svg="http://www.w3.org/2000/svg">
  <defs
     id="defs654" />
  <sodipodi:namedview
     id="namedview652"
     pagecolor="#ffffff"
     bordercolor="#666666"
     borderopacity="1.0"
     inkscape:showpageshadow="2"
     inkscape:pageopacity="0.0"
     inkscape:pagecheckerboard="0"
     inkscape:deskcolor="#d1d1d1"
     inkscape:document-units="pt"
     showgrid="false"
     inkscape:zoom="0.63974675"
     inkscape:cx="550.21772"
     inkscape:cy="490.03766"
     inkscape:window-width="1313"
     inkscape:window-height="777"
     inkscape:window-x="0"
     inkscape:window-y="25"
     inkscape:window-maximized="0"
     inkscape:current-layer="svg650" />
  <g
     id="graph0"
     class="graph"
     transform="scale(1 1) rotate(0) translate(4 906)">
    <polygon
       fill="white"
       stroke="transparent"
       points="-4,4 -4,-906 697.41,-906 697.41,4 -4,4"
       id="polygon345" />
    <!-- D0 -->
    <g
       id="node1"
       class="node">
      <title
         id="title347">D0</title>
      <path
         fill="none"
         stroke="black"
         d="M135.41,-902C135.41,-902 105.41,-902 105.41,-902 99.41,-902 93.41,-896 93.41,-890 93.41,-890 93.41,-878 93.41,-878 93.41,-872 99.41,-866 105.41,-866 105.41,-866 135.41,-866 135.41,-866 141.41,-866 147.41,-872 147.41,-878 147.41,-878 147.41,-890 147.41,-890 147.41,-896 141.41,-902 135.41,-902"
         id="path349" />
      <text
         text-anchor="middle"
         x="120.41"
         y="-880.3"
         font-family="Times,serif"
         font-size="14.00"
         id="text351">begin</text>
    </g>
    <!-- D4 -->
    <g
       id="node3"
       class="node">
      <title
         id="title354">D4</title>
      <polygon
         fill="none"
         stroke="black"
         points="120.41,-830 0.09,-812 120.41,-794 240.73,-812 120.41,-830"
         id="polygon356" />
      <text
         text-anchor="middle"
         x="120.41"
         y="-808.3"
         font-family="Times,serif"
         font-size="14.00"
         id="text358">(L.elem == NULL)?</text>
    </g>
    <!-- D0&#45;&gt;D4 -->
    <g
       id="edge22"
       class="edge">
      <title
         id="title361">D0-&gt;D4</title>
      <path
         fill="none"
         stroke="black"
         d="M120.41,-865.7C120.41,-857.98 120.41,-848.71 120.41,-840.11"
         id="path363" />
      <polygon
         fill="black"
         stroke="black"
         points="123.91,-840.1 120.41,-830.1 116.91,-840.1 123.91,-840.1"
         id="polygon365" />
    </g>
    <!-- D1 -->
    <g
       id="node2"
       class="node">
      <title
         id="title368">D1</title>
      <path
         fill="none"
         stroke="black"
         d="M230.41,-36C230.41,-36 200.41,-36 200.41,-36 194.41,-36 188.41,-30 188.41,-24 188.41,-24 188.41,-12 188.41,-12 188.41,-6 194.41,0 200.41,0 200.41,0 230.41,0 230.41,0 236.41,0 242.41,-6 242.41,-12 242.41,-12 242.41,-24 242.41,-24 242.41,-30 236.41,-36 230.41,-36"
         id="path370" />
      <text
         text-anchor="middle"
         x="215.41"
         y="-14.3"
         font-family="Times,serif"
         font-size="14.00"
         id="text372">end</text>
    </g>
    <!-- D9 -->
    <g
       id="node4"
       class="node">
      <title
         id="title375">D9</title>
      <polygon
         fill="none"
         stroke="black"
         points="157.41,-614 23.41,-614 23.41,-578 157.41,-578 157.41,-614"
         id="polygon377" />
      <text
         text-anchor="middle"
         x="90.41"
         y="-592.3"
         font-family="Times,serif"
         font-size="14.00"
         id="text379">return INFEASIBLE;</text>
    </g>
    <!-- D4&#45;&gt;D9 -->
    <g
       id="edge2"
       class="edge">
      <title
         id="title382">D4:s-&gt;D9:n</title>
      <path
         fill="none"
         stroke="black"
         d="M120.41,-794C120.41,-794 109.41,-758 109.41,-758 109.41,-758 96.13,-657.37 91.78,-624.36"
         id="path384" />
      <polygon
         fill="black"
         stroke="black"
         points="95.19,-623.46 90.41,-614 88.25,-624.37 95.19,-623.46"
         id="polygon386" />
      <text
         text-anchor="middle"
         x="98.05"
         y="-713.64"
         font-family="Times,serif"
         font-size="14.00"
         id="text388">Y</text>
    </g>
    <!-- D11 -->
    <g
       id="node5"
       class="node">
      <title
         id="title391">D11</title>
      <polygon
         fill="none"
         stroke="black"
         points="271.41,-758 117.91,-740 271.41,-722 424.91,-740 271.41,-758"
         id="polygon393" />
      <text
         text-anchor="middle"
         x="271.41"
         y="-736.3"
         font-family="Times,serif"
         font-size="14.00"
         id="text395">(i &lt;= 0 || i &gt; L.length + 1)?</text>
    </g>
    <!-- D4&#45;&gt;D11 -->
    <g
       id="edge1"
       class="edge">
      <title
         id="title398">D4:e-&gt;D11:n</title>
      <path
         fill="none"
         stroke="black"
         d="M242.41,-812C242.41,-812 258.38,-782.25 266.62,-766.92"
         id="path400" />
      <polygon
         fill="black"
         stroke="black"
         points="269.76,-768.47 271.41,-758 263.59,-765.15 269.76,-768.47"
         id="polygon402" />
      <text
         text-anchor="middle"
         x="249.52"
         y="-793.26"
         font-family="Times,serif"
         font-size="14.00"
         id="text404">N</text>
    </g>
    <!-- D9&#45;&gt;D1 -->
    <g
       id="edge3"
       class="edge">
      <title
         id="title407">D9-&gt;D1</title>
      <path
         fill="none"
         stroke="black"
         d="M90.41,-577.92C90.41,-539.77 90.41,-451 90.41,-451 90.41,-451 90.41,-451 90.41,-161 90.41,-161 157.8,-84.44 193.62,-43.75"
         id="path409" />
      <polygon
         fill="black"
         stroke="black"
         points="196.35,-45.95 200.33,-36.13 191.1,-41.32 196.35,-45.95"
         id="polygon411" />
    </g>
    <!-- D16 -->
    <g
       id="node6"
       class="node">
      <title
         id="title414">D16</title>
      <polygon
         fill="none"
         stroke="black"
         points="219.91,-541 118.91,-541 118.91,-505 219.91,-505 219.91,-541"
         id="polygon416" />
      <text
         text-anchor="middle"
         x="169.41"
         y="-519.3"
         font-family="Times,serif"
         font-size="14.00"
         id="text418">return ERROR;</text>
    </g>
    <!-- D11&#45;&gt;D16 -->
    <g
       id="edge5"
       class="edge">
      <title
         id="title421">D11:s-&gt;D16:n</title>
      <path
         fill="none"
         stroke="black"
         d="M271.41,-722C271.41,-722 195.39,-587.85 174.61,-551.17"
         id="path423" />
      <polygon
         fill="black"
         stroke="black"
         points="177.38,-548.97 169.41,-542 171.29,-552.43 177.38,-548.97"
         id="polygon425" />
      <text
         text-anchor="middle"
         x="218.01"
         y="-640.39"
         font-family="Times,serif"
         font-size="14.00"
         id="text427">Y</text>
    </g>
    <!-- D18 -->
    <g
       id="node7"
       class="node">
      <title
         id="title430">D18</title>
      <polygon
         fill="none"
         stroke="black"
         points="484.91,-686 401.91,-686 401.91,-650 484.91,-650 484.91,-686"
         id="polygon432" />
      <text
         text-anchor="middle"
         x="443.41"
         y="-664.3"
         font-family="Times,serif"
         font-size="14.00"
         id="text434">++L.length;</text>
    </g>
    <!-- D11&#45;&gt;D18 -->
    <g
       id="edge4"
       class="edge">
      <title
         id="title437">D11:e-&gt;D18:n</title>
      <path
         fill="none"
         stroke="black"
         d="M426.41,-740C426.41,-740 435.38,-711.49 440.29,-695.9"
         id="path439" />
      <polygon
         fill="black"
         stroke="black"
         points="443.75,-696.59 443.41,-686 437.07,-694.49 443.75,-696.59"
         id="polygon441" />
      <text
         text-anchor="middle"
         x="428.35"
         y="-706.75"
         font-family="Times,serif"
         font-size="14.00"
         id="text443">N</text>
    </g>
    <!-- D16&#45;&gt;D1 -->
    <g
       id="edge6"
       class="edge">
      <title
         id="title446">D16-&gt;D1</title>
      <path
         fill="none"
         stroke="black"
         d="M169.41,-504.75C169.41,-466.72 169.41,-379 169.41,-379 169.41,-379 169.41,-379 169.41,-161 169.41,-161 193.39,-86.97 206.72,-45.82"
         id="path448" />
      <polygon
         fill="black"
         stroke="black"
         points="210.11,-46.72 209.86,-36.13 203.45,-44.56 210.11,-46.72"
         id="polygon450" />
    </g>
    <!-- D20 -->
    <g
       id="node8"
       class="node">
      <title
         id="title453">D20</title>
      <polygon
         fill="none"
         stroke="black"
         points="461.41,-614 330.03,-596 461.41,-578 592.79,-596 461.41,-614"
         id="polygon455" />
      <text
         text-anchor="middle"
         x="461.41"
         y="-592.3"
         font-family="Times,serif"
         font-size="14.00"
         id="text457">(L.length &gt; L.listsize)?</text>
    </g>
    <!-- D18&#45;&gt;D20 -->
    <g
       id="edge7"
       class="edge">
      <title
         id="title460">D18-&gt;D20</title>
      <path
         fill="none"
         stroke="black"
         d="M447.86,-649.7C449.89,-641.78 452.35,-632.23 454.61,-623.44"
         id="path462" />
      <polygon
         fill="black"
         stroke="black"
         points="458.03,-624.18 457.14,-613.62 451.26,-622.44 458.03,-624.18"
         id="polygon464" />
    </g>
    <!-- D25 -->
    <g
       id="node9"
       class="node">
      <title
         id="title467">D25</title>
      <polygon
         fill="none"
         stroke="black"
         points="684.41,-542 238.41,-542 238.41,-504 684.41,-504 684.41,-542"
         id="polygon469" />
      <text
         text-anchor="middle"
         x="461.41"
         y="-526.8"
         font-family="Times,serif"
         font-size="14.00"
         id="text471">status s =</text>
      <text
         text-anchor="middle"
         x="461.41"
         y="-511.8"
         font-family="Times,serif"
         font-size="14.00"
         id="text473">            ReallocList(L, (L.listsize + LISTINCREMENT) * sizeof(ElemType));</text>
    </g>
    <!-- D20&#45;&gt;D25 -->
    <g
       id="edge15"
       class="edge">
      <title
         id="title476">D20:s-&gt;D25:n</title>
      <path
         fill="none"
         stroke="black"
         d="M461.41,-578C461.41,-578 461.41,-562.86 461.41,-552.22"
         id="path478" />
      <polygon
         fill="black"
         stroke="black"
         points="464.91,-552 461.41,-542 457.91,-552 464.91,-552"
         id="polygon480" />
      <text
         text-anchor="middle"
         x="456.41"
         y="-553.91"
         font-family="Times,serif"
         font-size="14.00"
         id="text482">Y</text>
    </g>
    <!-- D39 -->
    <g
       id="node14"
       class="node">
      <title
         id="title485">D39</title>
      <polygon
         fill="none"
         stroke="black"
         points="635.41,-324 531.41,-324 531.41,-288 635.41,-288 635.41,-324"
         id="polygon487" />
      <text
         text-anchor="middle"
         x="583.41"
         y="-302.3"
         font-family="Times,serif"
         font-size="14.00"
         id="text489">int j = L.length;</text>
    </g>
    <!-- D20&#45;&gt;D39 -->
    <g
       id="edge8"
       class="edge">
      <title
         id="title492">D20:e-&gt;D39:n</title>
      <path
         fill="none"
         stroke="black"
         d="M594.41,-596C594.41,-596 693.41,-542 693.41,-542 693.41,-542 693.41,-360 693.41,-360 693.41,-360 620.09,-336.01 593.17,-327.19"
         id="path494" />
      <polygon
         fill="black"
         stroke="black"
         points="594,-323.78 583.41,-324 591.82,-330.44 594,-323.78"
         id="polygon496" />
      <text
         text-anchor="middle"
         x="688.41"
         y="-458.45"
         font-family="Times,serif"
         font-size="14.00"
         id="text498">N</text>
    </g>
    <!-- D27 -->
    <g
       id="node10"
       class="node">
      <title
         id="title501">D27</title>
      <polygon
         fill="none"
         stroke="black"
         points="405.41,-468 197.45,-450 405.41,-432 613.37,-450 405.41,-468"
         id="polygon503" />
      <text
         text-anchor="middle"
         x="405.41"
         y="-446.3"
         font-family="Times,serif"
         font-size="14.00"
         id="text505">(s == ERROR || s == INFEASIBLE)?</text>
    </g>
    <!-- D25&#45;&gt;D27 -->
    <g
       id="edge9"
       class="edge">
      <title
         id="title508">D25-&gt;D27</title>
      <path
         fill="none"
         stroke="black"
         d="M446.99,-503.72C440.07,-494.94 431.69,-484.32 424.28,-474.92"
         id="path510" />
      <polygon
         fill="black"
         stroke="black"
         points="427.01,-472.73 418.07,-467.05 421.51,-477.07 427.01,-472.73"
         id="polygon512" />
    </g>
    <!-- D32 -->
    <g
       id="node11"
       class="node">
      <title
         id="title515">D32</title>
      <polygon
         fill="none"
         stroke="black"
         points="321.41,-324 259.41,-324 259.41,-288 321.41,-288 321.41,-324"
         id="polygon517" />
      <text
         text-anchor="middle"
         x="290.41"
         y="-302.3"
         font-family="Times,serif"
         font-size="14.00"
         id="text519">return s;</text>
    </g>
    <!-- D27&#45;&gt;D32 -->
    <g
       id="edge11"
       class="edge">
      <title
         id="title522">D27:s-&gt;D32:n</title>
      <path
         fill="none"
         stroke="black"
         d="M405.41,-432C405.41,-432 323.54,-355.11 297.96,-331.09"
         id="path524" />
      <polygon
         fill="black"
         stroke="black"
         points="300.1,-328.29 290.41,-324 295.3,-333.4 300.1,-328.29"
         id="polygon526" />
      <text
         text-anchor="middle"
         x="346.68"
         y="-385.34"
         font-family="Times,serif"
         font-size="14.00"
         id="text528">Y</text>
    </g>
    <!-- D34 -->
    <g
       id="node12"
       class="node">
      <title
         id="title531">D34</title>
      <polygon
         fill="none"
         stroke="black"
         points="683.91,-396 482.91,-396 482.91,-360 683.91,-360 683.91,-396"
         id="polygon533" />
      <text
         text-anchor="middle"
         x="583.41"
         y="-374.3"
         font-family="Times,serif"
         font-size="14.00"
         id="text535">L.listsize += LISTINCREMENT;</text>
    </g>
    <!-- D27&#45;&gt;D34 -->
    <g
       id="edge10"
       class="edge">
      <title
         id="title538">D27:e-&gt;D34:n</title>
      <path
         fill="none"
         stroke="black"
         d="M614.41,-450C614.41,-450 613.41,-432 613.41,-432 613.41,-432 598.91,-414.6 590.07,-403.99"
         id="path540" />
      <polygon
         fill="black"
         stroke="black"
         points="592.5,-401.44 583.41,-396 587.12,-405.92 592.5,-401.44"
         id="polygon542" />
      <text
         text-anchor="middle"
         x="602.51"
         y="-413.72"
         font-family="Times,serif"
         font-size="14.00"
         id="text544">N</text>
    </g>
    <!-- D32&#45;&gt;D1 -->
    <g
       id="edge12"
       class="edge">
      <title
         id="title547">D32-&gt;D1</title>
      <path
         fill="none"
         stroke="black"
         d="M285.94,-287.97C273.41,-240.19 237.86,-104.62 222.56,-46.27"
         id="path549" />
      <polygon
         fill="black"
         stroke="black"
         points="225.87,-45.09 219.95,-36.31 219.1,-46.87 225.87,-45.09"
         id="polygon551" />
    </g>
    <!-- D34&#45;&gt;D39 -->
    <g
       id="edge13"
       class="edge">
      <title
         id="title554">D34-&gt;D39</title>
      <path
         fill="none"
         stroke="black"
         d="M583.41,-359.7C583.41,-351.98 583.41,-342.71 583.41,-334.11"
         id="path556" />
      <polygon
         fill="black"
         stroke="black"
         points="586.91,-334.1 583.41,-324.1 579.91,-334.1 586.91,-334.1"
         id="polygon558" />
    </g>
    <!-- D38 -->
    <g
       id="node13"
       class="node">
      <title
         id="title561">D38</title>
      <polygon
         fill="none"
         stroke="black"
         points="560.41,-252 518.35,-234 560.41,-216 602.47,-234 560.41,-252"
         id="polygon563" />
      <text
         text-anchor="middle"
         x="560.41"
         y="-230.3"
         font-family="Times,serif"
         font-size="14.00"
         id="text565">j &gt; i?</text>
    </g>
    <!-- D43 -->
    <g
       id="node16"
       class="node">
      <title
         id="title568">D43</title>
      <polygon
         fill="none"
         stroke="black"
         points="510.91,-180 333.91,-180 333.91,-144 510.91,-144 510.91,-180"
         id="polygon570" />
      <text
         text-anchor="middle"
         x="422.41"
         y="-158.3"
         font-family="Times,serif"
         font-size="14.00"
         id="text572">L.elem[j - 1] = L.elem[j - 2];</text>
    </g>
    <!-- D38&#45;&gt;D43 -->
    <g
       id="edge20"
       class="edge">
      <title
         id="title575">D38:s-&gt;D43:n</title>
      <path
         fill="none"
         stroke="black"
         d="M560.41,-216C560.41,-216 463.98,-190.84 432.33,-182.59"
         id="path577" />
      <polygon
         fill="black"
         stroke="black"
         points="432.97,-179.14 422.41,-180 431.2,-185.91 432.97,-179.14"
         id="polygon579" />
      <text
         text-anchor="middle"
         x="491.37"
         y="-203.09"
         font-family="Times,serif"
         font-size="14.00"
         id="text581">Y</text>
    </g>
    <!-- D45 -->
    <g
       id="node17"
       class="node">
      <title
         id="title584">D45</title>
      <polygon
         fill="none"
         stroke="black"
         points="680.91,-180 567.91,-180 567.91,-144 680.91,-144 680.91,-180"
         id="polygon586" />
      <text
         text-anchor="middle"
         x="624.41"
         y="-158.3"
         font-family="Times,serif"
         font-size="14.00"
         id="text588">L.elem[i - 1] = e;</text>
    </g>
    <!-- D38&#45;&gt;D45 -->
    <g
       id="edge14"
       class="edge">
      <title
         id="title591">D38:e-&gt;D45:n</title>
      <path
         fill="none"
         stroke="black"
         d="M603.41,-234C603.41,-234 614.74,-204.88 620.75,-189.41"
         id="path593" />
      <polygon
         fill="black"
         stroke="black"
         points="624.05,-190.59 624.41,-180 617.52,-188.05 624.05,-190.59"
         id="polygon595" />
      <text
         text-anchor="middle"
         x="607.08"
         y="-200.5"
         font-family="Times,serif"
         font-size="14.00"
         id="text597">N</text>
    </g>
    <!-- D39&#45;&gt;D38 -->
    <g
       id="edge16"
       class="edge">
      <title
         id="title600">D39-&gt;D38</title>
      <path
         fill="none"
         stroke="black"
         d="M577.72,-287.7C574.98,-279.34 571.63,-269.16 568.62,-259.99"
         id="path602" />
      <polygon
         fill="black"
         stroke="black"
         points="571.85,-258.61 565.4,-250.2 565.2,-260.8 571.85,-258.61"
         id="polygon604" />
    </g>
    <!-- D40 -->
    <g
       id="node15"
       class="node">
      <title
         id="title607">D40</title>
      <polygon
         fill="none"
         stroke="black"
         points="479.41,-108 425.41,-108 425.41,-72 479.41,-72 479.41,-108"
         id="polygon609" />
      <text
         text-anchor="middle"
         x="452.41"
         y="-86.3"
         font-family="Times,serif"
         font-size="14.00"
         id="text611">j--</text>
    </g>
    <!-- D40&#45;&gt;D38 -->
    <g
       id="edge18"
       class="edge">
      <title
         id="title614">D40-&gt;D38</title>
      <path
         fill="none"
         stroke="black"
         d="M473.98,-108.06C493.56,-123.55 519.41,-144 519.41,-144 519.41,-144 537.35,-182.95 549.5,-209.32"
         id="path616" />
      <polygon
         fill="black"
         stroke="black"
         points="546.46,-211.08 553.82,-218.7 552.82,-208.15 546.46,-211.08"
         id="polygon618" />
    </g>
    <!-- D43&#45;&gt;D40 -->
    <g
       id="edge17"
       class="edge">
      <title
         id="title621">D43-&gt;D40</title>
      <path
         fill="none"
         stroke="black"
         d="M429.83,-143.7C433.2,-135.81 437.28,-126.3 441.03,-117.55"
         id="path623" />
      <polygon
         fill="black"
         stroke="black"
         points="444.36,-118.67 445.08,-108.1 437.92,-115.92 444.36,-118.67"
         id="polygon625" />
    </g>
    <!-- D47 -->
    <g
       id="node18"
       class="node">
      <title
         id="title628">D47</title>
      <polygon
         fill="none"
         stroke="black"
         points="632.41,-108 556.41,-108 556.41,-72 632.41,-72 632.41,-108"
         id="polygon630" />
      <text
         text-anchor="middle"
         x="594.41"
         y="-86.3"
         font-family="Times,serif"
         font-size="14.00"
         id="text632">return OK;</text>
    </g>
    <!-- D45&#45;&gt;D47 -->
    <g
       id="edge19"
       class="edge">
      <title
         id="title635">D45-&gt;D47</title>
      <path
         fill="none"
         stroke="black"
         d="M616.99,-143.7C613.62,-135.81 609.54,-126.3 605.79,-117.55"
         id="path637" />
      <polygon
         fill="black"
         stroke="black"
         points="608.9,-115.92 601.74,-108.1 602.46,-118.67 608.9,-115.92"
         id="polygon639" />
    </g>
    <!-- D47&#45;&gt;D1 -->
    <g
       id="edge21"
       class="edge">
      <title
         id="title642">D47-&gt;D1</title>
      <path
         fill="none"
         stroke="black"
         d="M556.33,-81.97C483.34,-68.49 324.56,-39.16 252.41,-25.83"
         id="path644" />
      <polygon
         fill="black"
         stroke="black"
         points="252.88,-22.36 242.41,-23.99 251.61,-29.25 252.88,-22.36"
         id="polygon646" />
    </g>
  </g>
</svg>
