<?xml version="1.0" encoding="UTF-8" standalone="no"?>
<!-- Generated by graphviz version 3.0.0 (20220226.1711)
 -->

<!-- Pages: 1 -->

<svg
   width="468pt"
   height="622pt"
   viewBox="0.00 0.00 467.91 622.00"
   version="1.1"
   id="svg1483"
   sodipodi:docname="max_partial_sum.svg"
   inkscape:export-filename="max_partial_sum.png"
   inkscape:export-xdpi="96"
   inkscape:export-ydpi="96"
   inkscape:version="1.2 (dc2aeda, 2022-05-15)"
   xmlns:inkscape="http://www.inkscape.org/namespaces/inkscape"
   xmlns:sodipodi="http://sodipodi.sourceforge.net/DTD/sodipodi-0.dtd"
   xmlns="http://www.w3.org/2000/svg"
   xmlns:svg="http://www.w3.org/2000/svg">
  <defs
     id="defs1487" />
  <sodipodi:namedview
     id="namedview1485"
     pagecolor="#ffffff"
     bordercolor="#666666"
     borderopacity="1.0"
     inkscape:showpageshadow="2"
     inkscape:pageopacity="0.0"
     inkscape:pagecheckerboard="0"
     inkscape:deskcolor="#d1d1d1"
     inkscape:document-units="pt"
     showgrid="false"
     inkscape:zoom="0.60719742"
     inkscape:cx="531.9522"
     inkscape:cy="487.4856"
     inkscape:window-width="1313"
     inkscape:window-height="766"
     inkscape:window-x="0"
     inkscape:window-y="25"
     inkscape:window-maximized="0"
     inkscape:current-layer="svg1483" />
  <g
     id="graph0"
     class="graph"
     transform="scale(1 1) rotate(0) translate(4 618)">
    <polygon
       fill="white"
       stroke="transparent"
       points="-4,4 -4,-618 463.91,-618 463.91,4 -4,4"
       id="polygon1295" />
    <!-- D0 -->
    <g
       id="node1"
       class="node">
      <title
         id="title1297">D0</title>
      <path
         fill="none"
         stroke="black"
         d="M135.41,-614C135.41,-614 105.41,-614 105.41,-614 99.41,-614 93.41,-608 93.41,-602 93.41,-602 93.41,-590 93.41,-590 93.41,-584 99.41,-578 105.41,-578 105.41,-578 135.41,-578 135.41,-578 141.41,-578 147.41,-584 147.41,-590 147.41,-590 147.41,-602 147.41,-602 147.41,-608 141.41,-614 135.41,-614"
         id="path1299" />
      <text
         text-anchor="middle"
         x="120.41"
         y="-592.3"
         font-family="Times,serif"
         font-size="14.00"
         id="text1301">begin</text>
    </g>
    <!-- D4 -->
    <g
       id="node3"
       class="node">
      <title
         id="title1304">D4</title>
      <polygon
         fill="none"
         stroke="black"
         points="120.41,-542 0.09,-524 120.41,-506 240.73,-524 120.41,-542"
         id="polygon1306" />
      <text
         text-anchor="middle"
         x="120.41"
         y="-520.3"
         font-family="Times,serif"
         font-size="14.00"
         id="text1308">(L.elem == NULL)?</text>
    </g>
    <!-- D0&#45;&gt;D4 -->
    <g
       id="edge13"
       class="edge">
      <title
         id="title1311">D0-&gt;D4</title>
      <path
         fill="none"
         stroke="black"
         d="M120.41,-577.7C120.41,-569.98 120.41,-560.71 120.41,-552.11"
         id="path1313" />
      <polygon
         fill="black"
         stroke="black"
         points="123.91,-552.1 120.41,-542.1 116.91,-552.1 123.91,-552.1"
         id="polygon1315" />
    </g>
    <!-- D1 -->
    <g
       id="node2"
       class="node">
      <title
         id="title1318">D1</title>
      <path
         fill="none"
         stroke="black"
         d="M135.41,-36C135.41,-36 105.41,-36 105.41,-36 99.41,-36 93.41,-30 93.41,-24 93.41,-24 93.41,-12 93.41,-12 93.41,-6 99.41,0 105.41,0 105.41,0 135.41,0 135.41,0 141.41,0 147.41,-6 147.41,-12 147.41,-12 147.41,-24 147.41,-24 147.41,-30 141.41,-36 135.41,-36"
         id="path1320" />
      <text
         text-anchor="middle"
         x="120.41"
         y="-14.3"
         font-family="Times,serif"
         font-size="14.00"
         id="text1322">end</text>
    </g>
    <!-- D9 -->
    <g
       id="node4"
       class="node">
      <title
         id="title1325">D9</title>
      <polygon
         fill="none"
         stroke="black"
         points="145.41,-398 37.41,-398 37.41,-362 145.41,-362 145.41,-398"
         id="polygon1327" />
      <text
         text-anchor="middle"
         x="91.41"
         y="-376.3"
         font-family="Times,serif"
         font-size="14.00"
         id="text1329">return 0x7fffffff;</text>
    </g>
    <!-- D4&#45;&gt;D9 -->
    <g
       id="edge2"
       class="edge">
      <title
         id="title1332">D4:s-&gt;D9:n</title>
      <path
         fill="none"
         stroke="black"
         d="M120.41,-506C120.41,-506 101.27,-434.7 94.09,-407.97"
         id="path1334" />
      <polygon
         fill="black"
         stroke="black"
         points="97.38,-406.75 91.41,-398 90.62,-408.57 97.38,-406.75"
         id="polygon1336" />
      <text
         text-anchor="middle"
         x="102.25"
         y="-460.78"
         font-family="Times,serif"
         font-size="14.00"
         id="text1338">Y</text>
    </g>
    <!-- D11 -->
    <g
       id="node5"
       class="node">
      <title
         id="title1341">D11</title>
      <polygon
         fill="none"
         stroke="black"
         points="332.41,-470 160.41,-470 160.41,-434 332.41,-434 332.41,-470"
         id="polygon1343" />
      <text
         text-anchor="middle"
         x="246.41"
         y="-448.3"
         font-family="Times,serif"
         font-size="14.00"
         id="text1345">ElemType res = 0, sum = 0;</text>
    </g>
    <!-- D4&#45;&gt;D11 -->
    <g
       id="edge1"
       class="edge">
      <title
         id="title1348">D4:e-&gt;D11:n</title>
      <path
         fill="none"
         stroke="black"
         d="M242.41,-524C242.41,-524 244.48,-496.1 245.64,-480.41"
         id="path1350" />
      <polygon
         fill="black"
         stroke="black"
         points="249.16,-480.23 246.41,-470 242.18,-479.71 249.16,-480.23"
         id="polygon1352" />
      <text
         text-anchor="middle"
         x="239.02"
         y="-491.01"
         font-family="Times,serif"
         font-size="14.00"
         id="text1354">N</text>
    </g>
    <!-- D9&#45;&gt;D1 -->
    <g
       id="edge3"
       class="edge">
      <title
         id="title1357">D9-&gt;D1</title>
      <path
         fill="none"
         stroke="black"
         d="M86.71,-361.75C76.33,-323.72 52.41,-236 52.41,-236 52.41,-236 52.41,-236 52.41,-161 52.41,-161 88.16,-86.35 107.82,-45.3"
         id="path1359" />
      <polygon
         fill="black"
         stroke="black"
         points="111.04,-46.66 112.21,-36.13 104.73,-43.64 111.04,-46.66"
         id="polygon1361" />
    </g>
    <!-- D16 -->
    <g
       id="node7"
       class="node">
      <title
         id="title1364">D16</title>
      <polygon
         fill="none"
         stroke="black"
         points="279.91,-398 214.91,-398 214.91,-362 279.91,-362 279.91,-398"
         id="polygon1366" />
      <text
         text-anchor="middle"
         x="247.41"
         y="-376.3"
         font-family="Times,serif"
         font-size="14.00"
         id="text1368">int i = 0;</text>
    </g>
    <!-- D11&#45;&gt;D16 -->
    <g
       id="edge4"
       class="edge">
      <title
         id="title1371">D11-&gt;D16</title>
      <path
         fill="none"
         stroke="black"
         d="M246.66,-433.7C246.77,-425.98 246.9,-416.71 247.02,-408.11"
         id="path1373" />
      <polygon
         fill="black"
         stroke="black"
         points="250.52,-408.15 247.17,-398.1 243.52,-408.05 250.52,-408.15"
         id="polygon1375" />
    </g>
    <!-- D15 -->
    <g
       id="node6"
       class="node">
      <title
         id="title1378">D15</title>
      <polygon
         fill="none"
         stroke="black"
         points="249.41,-326 168.64,-308 249.41,-290 330.18,-308 249.41,-326"
         id="polygon1380" />
      <text
         text-anchor="middle"
         x="249.41"
         y="-304.3"
         font-family="Times,serif"
         font-size="14.00"
         id="text1382">i &lt; L.length?</text>
    </g>
    <!-- D20 -->
    <g
       id="node9"
       class="node">
      <title
         id="title1385">D20</title>
      <polygon
         fill="none"
         stroke="black"
         points="384.41,-253 118.41,-253 118.41,-217 384.41,-217 384.41,-253"
         id="polygon1387" />
      <text
         text-anchor="middle"
         x="251.41"
         y="-231.3"
         font-family="Times,serif"
         font-size="14.00"
         id="text1389">sum = std::max(sum + L.elem[i], L.elem[i]);</text>
    </g>
    <!-- D15&#45;&gt;D20 -->
    <g
       id="edge11"
       class="edge">
      <title
         id="title1392">D15:s-&gt;D20:n</title>
      <path
         fill="none"
         stroke="black"
         d="M249.41,-290C249.41,-290 250.25,-274.86 250.84,-264.22"
         id="path1394" />
      <polygon
         fill="black"
         stroke="black"
         points="254.35,-264.18 251.41,-254 247.36,-263.79 254.35,-264.18"
         id="polygon1396" />
      <text
         text-anchor="middle"
         x="245.13"
         y="-265.91"
         font-family="Times,serif"
         font-size="14.00"
         id="text1398">Y</text>
    </g>
    <!-- D24 -->
    <g
       id="node11"
       class="node">
      <title
         id="title1401">D24</title>
      <polygon
         fill="none"
         stroke="black"
         points="459.91,-254 402.91,-254 402.91,-216 459.91,-216 459.91,-254"
         id="polygon1403" />
      <text
         text-anchor="middle"
         x="431.41"
         y="-238.8"
         font-family="Times,serif"
         font-size="14.00"
         id="text1405">printf(&quot;</text>
      <text
         text-anchor="middle"
         x="431.41"
         y="-223.8"
         font-family="Times,serif"
         font-size="14.00"
         id="text1407">&quot;);</text>
    </g>
    <!-- D15&#45;&gt;D24 -->
    <g
       id="edge5"
       class="edge">
      <title
         id="title1410">D15:e-&gt;D24:n</title>
      <path
         fill="none"
         stroke="black"
         d="M331.41,-308C331.41,-308 398.06,-272.01 422.54,-258.79"
         id="path1412" />
      <polygon
         fill="black"
         stroke="black"
         points="424.27,-261.83 431.41,-254 420.95,-255.67 424.27,-261.83"
         id="polygon1414" />
      <text
         text-anchor="middle"
         x="371.97"
         y="-287.2"
         font-family="Times,serif"
         font-size="14.00"
         id="text1416">N</text>
    </g>
    <!-- D16&#45;&gt;D15 -->
    <g
       id="edge6"
       class="edge">
      <title
         id="title1419">D16-&gt;D15</title>
      <path
         fill="none"
         stroke="black"
         d="M247.9,-361.7C248.12,-353.98 248.39,-344.71 248.63,-336.11"
         id="path1421" />
      <polygon
         fill="black"
         stroke="black"
         points="252.13,-336.2 248.92,-326.1 245.14,-336 252.13,-336.2"
         id="polygon1423" />
    </g>
    <!-- D17 -->
    <g
       id="node8"
       class="node">
      <title
         id="title1426">D17</title>
      <polygon
         fill="none"
         stroke="black"
         points="192.41,-108 138.41,-108 138.41,-72 192.41,-72 192.41,-108"
         id="polygon1428" />
      <text
         text-anchor="middle"
         x="165.41"
         y="-86.3"
         font-family="Times,serif"
         font-size="14.00"
         id="text1430">i++</text>
    </g>
    <!-- D17&#45;&gt;D15 -->
    <g
       id="edge8"
       class="edge">
      <title
         id="title1433">D17-&gt;D15</title>
      <path
         fill="none"
         stroke="black"
         d="M156.07,-108.06C147.6,-123.55 136.41,-144 136.41,-144 136.41,-144 109.41,-216 109.41,-216 109.41,-216 109.41,-254 109.41,-254 109.41,-254 170.06,-276.96 211.52,-292.66"
         id="path1435" />
      <polygon
         fill="black"
         stroke="black"
         points="210.49,-296.01 221.08,-296.27 212.97,-289.46 210.49,-296.01"
         id="polygon1437" />
    </g>
    <!-- D22 -->
    <g
       id="node10"
       class="node">
      <title
         id="title1440">D22</title>
      <polygon
         fill="none"
         stroke="black"
         points="300.91,-180 145.91,-180 145.91,-144 300.91,-144 300.91,-180"
         id="polygon1442" />
      <text
         text-anchor="middle"
         x="223.41"
         y="-158.3"
         font-family="Times,serif"
         font-size="14.00"
         id="text1444">res = std::max(res, sum);</text>
    </g>
    <!-- D20&#45;&gt;D22 -->
    <g
       id="edge7"
       class="edge">
      <title
         id="title1447">D20-&gt;D22</title>
      <path
         fill="none"
         stroke="black"
         d="M244.63,-216.81C241.4,-208.62 237.46,-198.62 233.85,-189.48"
         id="path1449" />
      <polygon
         fill="black"
         stroke="black"
         points="237.05,-188.05 230.13,-180.03 230.54,-190.62 237.05,-188.05"
         id="polygon1451" />
    </g>
    <!-- D22&#45;&gt;D17 -->
    <g
       id="edge9"
       class="edge">
      <title
         id="title1454">D22-&gt;D17</title>
      <path
         fill="none"
         stroke="black"
         d="M209.07,-143.7C202.12,-135.3 193.64,-125.07 186.01,-115.86"
         id="path1456" />
      <polygon
         fill="black"
         stroke="black"
         points="188.66,-113.57 179.58,-108.1 183.27,-118.04 188.66,-113.57"
         id="polygon1458" />
    </g>
    <!-- D26 -->
    <g
       id="node12"
       class="node">
      <title
         id="title1461">D26</title>
      <polygon
         fill="none"
         stroke="black"
         points="349.41,-108 277.41,-108 277.41,-72 349.41,-72 349.41,-108"
         id="polygon1463" />
      <text
         text-anchor="middle"
         x="313.41"
         y="-86.3"
         font-family="Times,serif"
         font-size="14.00"
         id="text1465">return res;</text>
    </g>
    <!-- D24&#45;&gt;D26 -->
    <g
       id="edge10"
       class="edge">
      <title
         id="title1468">D24-&gt;D26</title>
      <path
         fill="none"
         stroke="black"
         d="M416.46,-215.89C395.58,-190.58 357.59,-144.54 334.02,-115.98"
         id="path1470" />
      <polygon
         fill="black"
         stroke="black"
         points="336.56,-113.56 327.5,-108.07 331.16,-118.01 336.56,-113.56"
         id="polygon1472" />
    </g>
    <!-- D26&#45;&gt;D1 -->
    <g
       id="edge12"
       class="edge">
      <title
         id="title1475">D26-&gt;D1</title>
      <path
         fill="none"
         stroke="black"
         d="M277.11,-75.83C242.82,-63.4 191.65,-44.84 157.2,-32.34"
         id="path1477" />
      <polygon
         fill="black"
         stroke="black"
         points="158.12,-28.95 147.52,-28.83 155.73,-35.53 158.12,-28.95"
         id="polygon1479" />
    </g>
  </g>
</svg>
