<?xml version="1.0" encoding="UTF-8" standalone="no"?>
<!-- Generated by graphviz version 3.0.0 (20220226.1711)
 -->

<!-- Pages: 1 -->

<svg
   width="671pt"
   height="1052pt"
   viewBox="0.00 0.00 671.00 1052.00"
   version="1.1"
   id="svg2551"
   sodipodi:docname="partition.svg"
   inkscape:version="1.2 (dc2aeda, 2022-05-15)"
   inkscape:export-filename="partition.png"
   inkscape:export-xdpi="96"
   inkscape:export-ydpi="96"
   xmlns:inkscape="http://www.inkscape.org/namespaces/inkscape"
   xmlns:sodipodi="http://sodipodi.sourceforge.net/DTD/sodipodi-0.dtd"
   xmlns="http://www.w3.org/2000/svg"
   xmlns:svg="http://www.w3.org/2000/svg">
  <defs
     id="defs2555" />
  <sodipodi:namedview
     id="namedview2553"
     pagecolor="#ffffff"
     bordercolor="#666666"
     borderopacity="1.0"
     inkscape:showpageshadow="2"
     inkscape:pageopacity="0.0"
     inkscape:pagecheckerboard="0"
     inkscape:deskcolor="#d1d1d1"
     inkscape:document-units="pt"
     showgrid="false"
     inkscape:zoom="0.90167474"
     inkscape:cx="181.88377"
     inkscape:cy="293.89755"
     inkscape:window-width="1313"
     inkscape:window-height="748"
     inkscape:window-x="0"
     inkscape:window-y="25"
     inkscape:window-maximized="0"
     inkscape:current-layer="graph0" />
  <g
     id="graph0"
     class="graph"
     transform="scale(1 1) rotate(0) translate(4 1048)">
    <polygon
       fill="white"
       stroke="transparent"
       points="-4,4 -4,-1048 667,-1048 667,4 -4,4"
       id="polygon2181" />
    <!-- D0 -->
    <g
       id="node1"
       class="node">
      <title
         id="title2183">D0</title>
      <path
         fill="none"
         stroke="black"
         d="M101,-1044C101,-1044 71,-1044 71,-1044 65,-1044 59,-1038 59,-1032 59,-1032 59,-1020 59,-1020 59,-1014 65,-1008 71,-1008 71,-1008 101,-1008 101,-1008 107,-1008 113,-1014 113,-1020 113,-1020 113,-1032 113,-1032 113,-1038 107,-1044 101,-1044"
         id="path2185" />
      <text
         text-anchor="middle"
         x="86"
         y="-1022.3"
         font-family="Times,serif"
         font-size="14.00"
         id="text2187">begin</text>
    </g>
    <!-- D4 -->
    <g
       id="node3"
       class="node">
      <title
         id="title2190">D4</title>
      <polygon
         fill="none"
         stroke="black"
         points="86,-972 27.35,-954 86,-936 144.65,-954 86,-972"
         id="polygon2192" />
      <text
         text-anchor="middle"
         x="86"
         y="-950.3"
         font-family="Times,serif"
         font-size="14.00"
         id="text2194">(l &gt;= r)?</text>
    </g>
    <!-- D0&#45;&gt;D4 -->
    <g
       id="edge27"
       class="edge">
      <title
         id="title2197">D0-&gt;D4</title>
      <path
         fill="none"
         stroke="black"
         d="M86,-1007.7C86,-999.98 86,-990.71 86,-982.11"
         id="path2199" />
      <polygon
         fill="black"
         stroke="black"
         points="89.5,-982.1 86,-972.1 82.5,-982.1 89.5,-982.1"
         id="polygon2201" />
    </g>
    <!-- D1 -->
    <g
       id="node2"
       class="node">
      <title
         id="title2204">D1</title>
      <path
         fill="none"
         stroke="black"
         d="M46,-36C46,-36 16,-36 16,-36 10,-36 4,-30 4,-24 4,-24 4,-12 4,-12 4,-6 10,0 16,0 16,0 46,0 46,0 52,0 58,-6 58,-12 58,-12 58,-24 58,-24 58,-30 52,-36 46,-36"
         id="path2206" />
      <text
         text-anchor="middle"
         x="31"
         y="-14.3"
         font-family="Times,serif"
         font-size="14.00"
         id="text2208">end</text>
    </g>
    <!-- D7 -->
    <g
       id="node4"
       class="node">
      <title
         id="title2211">D7</title>
      <polygon
         fill="none"
         stroke="black"
         points="82,-828 14,-828 14,-792 82,-792 82,-828"
         id="polygon2213" />
      <text
         text-anchor="middle"
         x="48"
         y="-806.3"
         font-family="Times,serif"
         font-size="14.00"
         id="text2215">return -1;</text>
    </g>
    <!-- D4&#45;&gt;D7 -->
    <g
       id="edge4"
       class="edge">
      <title
         id="title2218">D4:s-&gt;D7:n</title>
      <path
         fill="none"
         stroke="black"
         d="M86,-936C86,-936 60.67,-864.02 51.37,-837.58"
         id="path2220" />
      <polygon
         fill="black"
         stroke="black"
         points="54.62,-836.27 48,-828 48.02,-838.59 54.62,-836.27"
         id="polygon2222" />
      <text
         text-anchor="middle"
         x="63.69"
         y="-890.59"
         font-family="Times,serif"
         font-size="14.00"
         id="text2224">Y</text>
    </g>
    <!-- D9 -->
    <g
       id="node5"
       class="node"
       transform="translate(147.22604,-0.83178553)">
      <title
         id="title2227">D9</title>
      <polygon
         fill="none"
         stroke="#000000"
         points="97.5,-900 97.5,-864 254.5,-864 254.5,-900 "
         id="polygon2229" />
      <text
         text-anchor="middle"
         x="176"
         y="-878.29999"
         font-family="Times, serif"
         font-size="14px"
         id="text2231">int pivot = gen_rand(l, r);</text>
    </g>
    <!-- D4&#45;&gt;D9 -->
    <g
       id="edge1"
       class="edge">
      <title
         id="title2234">D4:e-&gt;D9:n</title>
      <path
         fill="none"
         stroke="#000000"
         d="m 146,-954 196.15153,0.21837 -0.85288,50.88813"
         id="path2236"
         sodipodi:nodetypes="ccc" />
      <text
         text-anchor="middle"
         x="153.52"
         y="-935.26"
         font-family="Times,serif"
         font-size="14.00"
         id="text2240">N</text>
    </g>
    <!-- D7&#45;&gt;D1 -->
    <g
       id="edge3"
       class="edge">
      <title
         id="title2243">D7-&gt;D1</title>
      <path
         fill="none"
         stroke="black"
         d="M42.21,-791.87C29.44,-754.1 0,-667 0,-667 0,-667 0,-667 0,-161 0,-161 16.09,-87.29 25.09,-46.08"
         id="path2245" />
      <polygon
         fill="black"
         stroke="black"
         points="28.55,-46.64 27.26,-36.13 21.71,-45.15 28.55,-46.64"
         id="polygon2247" />
    </g>
    <!-- D11 -->
    <g
       id="node6"
       class="node"
       transform="translate(108.13212,0.83178553)">
      <title
         id="title2250">D11</title>
      <polygon
         fill="none"
         stroke="#000000"
         points="129,-828 129,-792 297,-792 297,-828 "
         id="polygon2252" />
      <text
         text-anchor="middle"
         x="213"
         y="-806.29999"
         font-family="Times, serif"
         font-size="14px"
         id="text2254">std::swap(arr[pivot], arr[r]);</text>
    </g>
    <!-- D9&#45;&gt;D11 -->
    <g
       id="edge2"
       class="edge"
       transform="matrix(0.88947091,0.4321758,-0.47407357,0.81086107,-232.84478,-245.67423)">
      <title
         id="title2257">D9-&gt;D11</title>
      <path
         fill="none"
         stroke="#000000"
         d="m 185.15,-863.7 c 4.25,8.06 9.41,17.81 14.12,26.72"
         id="path2259" />
      <polygon
         fill="#000000"
         stroke="#000000"
         points="203.96,-828.1 196.19,-835.31 202.38,-838.58 "
         id="polygon2261" />
    </g>
    <!-- D13 -->
    <g
       id="node7"
       class="node"
       transform="translate(65.711057,2.4953566)">
      <title
         id="title2264">D13</title>
      <polygon
         fill="none"
         stroke="#000000"
         points="204,-720 316,-720 316,-756 204,-756 "
         id="polygon2266" />
      <text
         text-anchor="middle"
         x="260"
         y="-734.29999"
         font-family="Times, serif"
         font-size="14px"
         id="text2268">int i = l, j = r - 1;</text>
    </g>
    <!-- D11&#45;&gt;D13 -->
    <g
       id="edge5"
       class="edge"
       transform="matrix(0.85544967,0.43164414,-0.55793565,0.66181438,-293.31774,-362.46754)">
      <title
         id="title2271">D11-&gt;D13</title>
      <path
         fill="none"
         stroke="#000000"
         d="m 224.62,-791.7 c 5.52,8.23 12.23,18.22 18.31,27.28"
         id="path2273" />
      <polygon
         fill="#000000"
         stroke="#000000"
         points="245.85,-766.36 248.52,-756.1 240.04,-762.46 "
         id="polygon2275" />
    </g>
    <!-- D15 -->
    <g
       id="node8"
       class="node">
      <title
         id="title2278">D15</title>
      <polygon
         fill="none"
         stroke="black"
         points="355,-684 304.39,-666 355,-648 405.61,-666 355,-684"
         id="polygon2280" />
      <text
         text-anchor="middle"
         x="355"
         y="-662.3"
         font-family="Times,serif"
         font-size="14.00"
         id="text2282">(i &lt; j)?</text>
    </g>
    <!-- D13&#45;&gt;D15 -->
    <g
       id="edge6"
       class="edge"
       transform="matrix(0.59224259,0.66914996,-0.82787983,0.47869158,-409.87992,-588.38221)">
      <title
         id="title2285">D13-&gt;D15</title>
      <path
         fill="none"
         stroke="#000000"
         d="m 309.87697,-700.82777 c 6.4757,4.95229 14.75886,11.28217 21.25976,16.25973"
         id="path2287"
         style="stroke-width:0.679602" />
      <polygon
         fill="#000000"
         stroke="#000000"
         points="333.24,-687.38 339.22,-678.63 329.09,-681.74 "
         id="polygon2289" />
    </g>
    <!-- D20 -->
    <g
       id="node9"
       class="node">
      <title
         id="title2292">D20</title>
      <polygon
         fill="none"
         stroke="#000000"
         points="27.93,-594 195,-576 362.07,-594 195,-612 "
         id="polygon2294"
         transform="translate(9.9814264,-1.6635711)" />
      <text
         text-anchor="middle"
         x="195"
         y="-590.3"
         font-family="Times,serif"
         font-size="14.00"
         id="text2296">(cmp(arr[i], arr[r]) &amp;&amp; i &lt; j)?</text>
    </g>
    <!-- D15&#45;&gt;D20 -->
    <g
       id="edge16"
       class="edge">
      <title
         id="title2299">D15:s-&gt;D20:n</title>
      <path
         fill="none"
         stroke="#000000"
         d="m 355.83179,-647.16821 -150.85981,-0.22036 0.038,33.13857"
         id="path2301"
         sodipodi:nodetypes="ccc" />
      <text
         text-anchor="middle"
         x="275"
         y="-634.93"
         font-family="Times,serif"
         font-size="14.00"
         id="text2305">Y</text>
    </g>
    <!-- D32 -->
    <g
       id="node14"
       class="node">
      <title
         id="title2308">D32</title>
      <polygon
         fill="none"
         stroke="black"
         points="626,-612 554,-612 554,-576 626,-576 626,-612"
         id="polygon2310" />
      <text
         text-anchor="middle"
         x="590"
         y="-590.3"
         font-family="Times,serif"
         font-size="14.00"
         id="text2312">int p2 = r;</text>
    </g>
    <!-- D15&#45;&gt;D32 -->
    <g
       id="edge7"
       class="edge">
      <title
         id="title2315">D15:e-&gt;D32:n</title>
      <path
         fill="none"
         stroke="black"
         d="M407,-666C407,-666 542.15,-626.12 580.16,-614.9"
         id="path2317" />
      <polygon
         fill="black"
         stroke="black"
         points="581.4,-618.19 590,-612 579.42,-611.47 581.4,-618.19"
         id="polygon2319" />
      <text
         text-anchor="middle"
         x="488.58"
         y="-644.25"
         font-family="Times,serif"
         font-size="14.00"
         id="text2321">N</text>
    </g>
    <!-- D23 -->
    <g
       id="node10"
       class="node">
      <title
         id="title2324">D23</title>
      <polygon
         fill="none"
         stroke="black"
         points="127,-540 73,-540 73,-504 127,-504 127,-540"
         id="polygon2326" />
      <text
         text-anchor="middle"
         x="100"
         y="-518.3"
         font-family="Times,serif"
         font-size="14.00"
         id="text2328">i++;</text>
    </g>
    <!-- D20&#45;&gt;D23 -->
    <g
       id="edge10"
       class="edge">
      <title
         id="title2331">D20:s-&gt;D23:n</title>
      <path
         fill="none"
         stroke="#000000"
         d="m 206.645,-578.49536 -103.62874,-0.51482 -0.21054,32.10304"
         id="path2333"
         sodipodi:nodetypes="ccc" />
      <polygon
         fill="#000000"
         stroke="#000000"
         points="100,-540 108.11,-546.82 110.59,-540.27 "
         id="polygon2335"
         transform="rotate(-66.177011,103.06035,-542.06128)"
         inkscape:transform-center-x="-9.1230331"
         inkscape:transform-center-y="-0.48668021" />
      <text
         text-anchor="middle"
         x="147.23"
         y="-563.59"
         font-family="Times,serif"
         font-size="14.00"
         id="text2337">Y</text>
    </g>
    <!-- D25 -->
    <g
       id="node11"
       class="node">
      <title
         id="title2340">D25</title>
      <polygon
         fill="none"
         stroke="black"
         points="316,-540 145.07,-522 316,-504 486.93,-522 316,-540"
         id="polygon2342" />
      <text
         text-anchor="middle"
         x="316"
         y="-518.3"
         font-family="Times,serif"
         font-size="14.00"
         id="text2344">(!cmp(arr[j], arr[r]) &amp;&amp; i &lt; j)?</text>
    </g>
    <!-- D20&#45;&gt;D25 -->
    <g
       id="edge8"
       class="edge">
      <title
         id="title2347">D20:e-&gt;D25:n</title>
      <path
         fill="none"
         stroke="black"
         d="M363,-594C363,-594 362,-576 362,-576 362,-576 337.19,-556.58 324.01,-546.27"
         id="path2349" />
      <polygon
         fill="black"
         stroke="black"
         points="326.03,-543.41 316,-540 321.72,-548.92 326.03,-543.41"
         id="polygon2351" />
      <text
         text-anchor="middle"
         x="345.1"
         y="-555.49"
         font-family="Times,serif"
         font-size="14.00"
         id="text2353">N</text>
    </g>
    <!-- D23&#45;&gt;D20 -->
    <g
       id="edge9"
       class="edge"
       transform="rotate(37.861086,131.71921,-785.02647)"
       inkscape:transform-center-x="-0.29857176"
       inkscape:transform-center-y="-2.030675">
      <title
         id="title2356">D23-&gt;D20</title>
      <path
         fill="none"
         stroke="#000000"
         d="m 246.41958,-540.0101 -45.96276,35.09786 -19.85181,-26.26235 -24.81063,-32.93619 L 166.6,-572.07"
         id="path2358"
         sodipodi:nodetypes="ccccc" />
      <polygon
         fill="#000000"
         stroke="#000000"
         points="164.73,-575.04 174.85,-578.15 168.88,-569.41 "
         id="polygon2360" />
    </g>
    <!-- D28 -->
    <g
       id="node12"
       class="node">
      <title
         id="title2363">D28</title>
      <polygon
         fill="none"
         stroke="black"
         points="343,-468 289,-468 289,-432 343,-432 343,-468"
         id="polygon2365" />
      <text
         text-anchor="middle"
         x="316"
         y="-446.3"
         font-family="Times,serif"
         font-size="14.00"
         id="text2367">j--;</text>
    </g>
    <!-- D25&#45;&gt;D28 -->
    <g
       id="edge13"
       class="edge">
      <title
         id="title2370">D25:s-&gt;D28:n</title>
      <path
         fill="none"
         stroke="black"
         d="M316,-504C316,-504 316,-488.86 316,-478.22"
         id="path2372" />
      <polygon
         fill="black"
         stroke="black"
         points="319.5,-478 316,-468 312.5,-478 319.5,-478"
         id="polygon2374" />
      <text
         text-anchor="middle"
         x="311"
         y="-479.91"
         font-family="Times,serif"
         font-size="14.00"
         id="text2376">Y</text>
    </g>
    <!-- D30 -->
    <g
       id="node13"
       class="node">
      <title
         id="title2379">D30</title>
      <polygon
         fill="none"
         stroke="black"
         points="552.5,-468 409.5,-468 409.5,-432 552.5,-432 552.5,-468"
         id="polygon2381" />
      <text
         text-anchor="middle"
         x="481"
         y="-446.3"
         font-family="Times,serif"
         font-size="14.00"
         id="text2383">std::swap(arr[i], arr[j]);</text>
    </g>
    <!-- D25&#45;&gt;D30 -->
    <g
       id="edge11"
       class="edge">
      <title
         id="title2386">D25:e-&gt;D30:n</title>
      <path
         fill="none"
         stroke="black"
         d="M488,-522C488,-522 487,-504 487,-504 487,-504 484.48,-488.86 482.7,-478.22"
         id="path2388" />
      <polygon
         fill="black"
         stroke="black"
         points="486.1,-477.29 481,-468 479.19,-478.44 486.1,-477.29"
         id="polygon2390" />
      <text
         text-anchor="middle"
         x="481.33"
         y="-488.8"
         font-family="Times,serif"
         font-size="14.00"
         id="text2392">N</text>
    </g>
    <!-- D28&#45;&gt;D25 -->
    <g
       id="edge12"
       class="edge">
      <title
         id="title2395">D28-&gt;D25</title>
      <path
         fill="none"
         stroke="black"
         d="M316,-468.1C316,-475.79 316,-485.05 316,-493.67"
         id="path2397" />
      <polygon
         fill="black"
         stroke="black"
         points="312.5,-493.7 316,-503.7 319.5,-493.7 312.5,-493.7"
         id="polygon2399" />
    </g>
    <!-- D30&#45;&gt;D15 -->
    <g
       id="edge14"
       class="edge">
      <title
         id="title2402">D30-&gt;D15</title>
      <path
         fill="none"
         stroke="black"
         d="M485.83,-468.06C490.21,-483.55 496,-504 496,-504 496,-504 496,-540 496,-540 496,-540 416.04,-610.89 376.55,-645.9"
         id="path2404" />
      <polygon
         fill="black"
         stroke="black"
         points="373.94,-643.53 368.78,-652.79 378.58,-648.77 373.94,-643.53"
         id="polygon2406" />
    </g>
    <!-- D37 -->
    <g
       id="node16"
       class="node">
      <title
         id="title2409">D37</title>
      <polygon
         fill="none"
         stroke="black"
         points="643.5,-540 578.5,-540 578.5,-504 643.5,-504 643.5,-540"
         id="polygon2411" />
      <text
         text-anchor="middle"
         x="611"
         y="-518.3"
         font-family="Times,serif"
         font-size="14.00"
         id="text2413">int k = l;</text>
    </g>
    <!-- D32&#45;&gt;D37 -->
    <g
       id="edge15"
       class="edge">
      <title
         id="title2416">D32-&gt;D37</title>
      <path
         fill="none"
         stroke="black"
         d="M595.19,-575.7C597.53,-567.9 600.35,-558.51 602.95,-549.83"
         id="path2418" />
      <polygon
         fill="black"
         stroke="black"
         points="606.35,-550.69 605.87,-540.1 599.64,-548.68 606.35,-550.69"
         id="polygon2420" />
    </g>
    <!-- D36 -->
    <g
       id="node15"
       class="node">
      <title
         id="title2423">D36</title>
      <polygon
         fill="none"
         stroke="black"
         points="616,-468 570.08,-450 616,-432 661.92,-450 616,-468"
         id="polygon2425" />
      <text
         text-anchor="middle"
         x="616"
         y="-446.3"
         font-family="Times,serif"
         font-size="14.00"
         id="text2427">k &lt; r?</text>
    </g>
    <!-- D41 -->
    <g
       id="node18"
       class="node">
      <title
         id="title2430">D41</title>
      <polygon
         fill="none"
         stroke="black"
         points="465,-396 339.99,-378 465,-360 590.01,-378 465,-396"
         id="polygon2432" />
      <text
         text-anchor="middle"
         x="465"
         y="-374.3"
         font-family="Times,serif"
         font-size="14.00"
         id="text2434">(!cmp(arr[k], arr[r]))?</text>
    </g>
    <!-- D36&#45;&gt;D41 -->
    <g
       id="edge25"
       class="edge">
      <title
         id="title2437">D36:s-&gt;D41:n</title>
      <path
         fill="none"
         stroke="black"
         d="M616,-432C616,-432 508.5,-406.37 474.91,-398.36"
         id="path2439" />
      <polygon
         fill="black"
         stroke="black"
         points="475.54,-394.91 465,-396 473.92,-401.72 475.54,-394.91"
         id="polygon2441" />
      <text
         text-anchor="middle"
         x="540.45"
         y="-418.98"
         font-family="Times,serif"
         font-size="14.00"
         id="text2443">Y</text>
    </g>
    <!-- D50 -->
    <g
       id="node21"
       class="node">
      <title
         id="title2446">D50</title>
      <polygon
         fill="none"
         stroke="black"
         points="542,-180 388,-180 388,-144 542,-144 542,-180"
         id="polygon2448" />
      <text
         text-anchor="middle"
         x="465"
         y="-158.3"
         font-family="Times,serif"
         font-size="14.00"
         id="text2450">std::swap(arr[p2], arr[r]);</text>
    </g>
    <!-- D36&#45;&gt;D50 -->
    <g
       id="edge18"
       class="edge">
      <title
         id="title2453">D36:e-&gt;D50:n</title>
      <path
         fill="none"
         stroke="black"
         d="M663,-450C663,-450 662,-432 662,-432 662,-432 633,-288 633,-288 633,-288 507.8,-207.51 473.56,-185.5"
         id="path2455" />
      <polygon
         fill="black"
         stroke="black"
         points="475.3,-182.46 465,-180 471.52,-188.35 475.3,-182.46"
         id="polygon2457" />
      <text
         text-anchor="middle"
         x="617.64"
         y="-270.14"
         font-family="Times,serif"
         font-size="14.00"
         id="text2459">N</text>
    </g>
    <!-- D37&#45;&gt;D36 -->
    <g
       id="edge19"
       class="edge">
      <title
         id="title2462">D37-&gt;D36</title>
      <path
         fill="none"
         stroke="black"
         d="M612.24,-503.7C612.8,-495.87 613.47,-486.44 614.09,-477.73"
         id="path2464" />
      <polygon
         fill="black"
         stroke="black"
         points="617.59,-477.85 614.81,-467.62 610.61,-477.35 617.59,-477.85"
         id="polygon2466" />
    </g>
    <!-- D38 -->
    <g
       id="node17"
       class="node">
      <title
         id="title2469">D38</title>
      <polygon
         fill="none"
         stroke="black"
         points="624,-324 570,-324 570,-288 624,-288 624,-324"
         id="polygon2471" />
      <text
         text-anchor="middle"
         x="597"
         y="-302.3"
         font-family="Times,serif"
         font-size="14.00"
         id="text2473">k++</text>
    </g>
    <!-- D38&#45;&gt;D36 -->
    <g
       id="edge21"
       class="edge">
      <title
         id="title2476">D38-&gt;D36</title>
      <path
         fill="none"
         stroke="black"
         d="M599.33,-324.43C602.62,-348.97 608.63,-393.94 612.47,-422.6"
         id="path2478" />
      <polygon
         fill="black"
         stroke="black"
         points="609.03,-423.26 613.82,-432.71 615.96,-422.33 609.03,-423.26"
         id="polygon2480" />
    </g>
    <!-- D41&#45;&gt;D38 -->
    <g
       id="edge20"
       class="edge">
      <title
         id="title2483">D41:e-&gt;D38:n</title>
      <path
         fill="none"
         stroke="black"
         d="M591,-378C591,-378 594.1,-350.1 595.84,-334.41"
         id="path2485" />
      <polygon
         fill="black"
         stroke="black"
         points="599.37,-334.33 597,-324 592.42,-333.55 599.37,-334.33"
         id="polygon2487" />
      <text
         text-anchor="middle"
         x="588.42"
         y="-345.01"
         font-family="Times,serif"
         font-size="14.00"
         id="text2489">N</text>
    </g>
    <!-- D46 -->
    <g
       id="node19"
       class="node">
      <title
         id="title2492">D46</title>
      <polygon
         fill="none"
         stroke="black"
         points="493,-324 437,-324 437,-288 493,-288 493,-324"
         id="polygon2494" />
      <text
         text-anchor="middle"
         x="465"
         y="-302.3"
         font-family="Times,serif"
         font-size="14.00"
         id="text2496">p2 = k;</text>
    </g>
    <!-- D41&#45;&gt;D46 -->
    <g
       id="edge22"
       class="edge">
      <title
         id="title2499">D41:s-&gt;D46:n</title>
      <path
         fill="none"
         stroke="black"
         d="M465,-360C465,-360 465,-344.86 465,-334.22"
         id="path2501" />
      <polygon
         fill="black"
         stroke="black"
         points="468.5,-334 465,-324 461.5,-334 468.5,-334"
         id="polygon2503" />
      <text
         text-anchor="middle"
         x="460"
         y="-335.91"
         font-family="Times,serif"
         font-size="14.00"
         id="text2505">Y</text>
    </g>
    <!-- D48 -->
    <g
       id="node20"
       class="node">
      <title
         id="title2508">D48</title>
      <polygon
         fill="none"
         stroke="black"
         points="492,-252 438,-252 438,-216 492,-216 492,-252"
         id="polygon2510" />
      <text
         text-anchor="middle"
         x="465"
         y="-230.3"
         font-family="Times,serif"
         font-size="14.00"
         id="text2512">break</text>
    </g>
    <!-- D46&#45;&gt;D48 -->
    <g
       id="edge24"
       class="edge">
      <title
         id="title2515">D46-&gt;D48</title>
      <path
         fill="none"
         stroke="black"
         d="M465,-287.7C465,-279.98 465,-270.71 465,-262.11"
         id="path2517" />
      <polygon
         fill="black"
         stroke="black"
         points="468.5,-262.1 465,-252.1 461.5,-262.1 468.5,-262.1"
         id="polygon2519" />
    </g>
    <!-- D48&#45;&gt;D50 -->
    <g
       id="edge17"
       class="edge">
      <title
         id="title2522">D48-&gt;D50</title>
      <path
         fill="none"
         stroke="black"
         d="M465,-215.7C465,-207.98 465,-198.71 465,-190.11"
         id="path2524" />
      <polygon
         fill="black"
         stroke="black"
         points="468.5,-190.1 465,-180.1 461.5,-190.1 468.5,-190.1"
         id="polygon2526" />
    </g>
    <!-- D52 -->
    <g
       id="node22"
       class="node">
      <title
         id="title2529">D52</title>
      <polygon
         fill="none"
         stroke="black"
         points="295,-108 225,-108 225,-72 295,-72 295,-108"
         id="polygon2531" />
      <text
         text-anchor="middle"
         x="260"
         y="-86.3"
         font-family="Times,serif"
         font-size="14.00"
         id="text2533">return p2;</text>
    </g>
    <!-- D50&#45;&gt;D52 -->
    <g
       id="edge23"
       class="edge">
      <title
         id="title2536">D50-&gt;D52</title>
      <path
         fill="none"
         stroke="black"
         d="M415.11,-143.97C381.5,-132.49 337.52,-117.47 304.98,-106.36"
         id="path2538" />
      <polygon
         fill="black"
         stroke="black"
         points="305.86,-102.96 295.27,-103.04 303.6,-109.59 305.86,-102.96"
         id="polygon2540" />
    </g>
    <!-- D52&#45;&gt;D1 -->
    <g
       id="edge26"
       class="edge">
      <title
         id="title2543">D52-&gt;D1</title>
      <path
         fill="none"
         stroke="black"
         d="M224.72,-78.22C182.21,-65.22 111.12,-43.49 67.9,-30.28"
         id="path2545" />
      <polygon
         fill="black"
         stroke="black"
         points="68.66,-26.85 58.07,-27.28 66.61,-33.55 68.66,-26.85"
         id="polygon2547" />
    </g>
  </g>
</svg>
