<?xml version="1.0" encoding="UTF-8" standalone="no"?>
<!-- Generated by graphviz version 3.0.0 (20220226.1711)
 -->

<!-- Pages: 1 -->

<svg
   width="254pt"
   height="476pt"
   viewBox="0.00 0.00 254.00 476.00"
   version="1.1"
   id="svg3192"
   sodipodi:docname="quicksort.svg"
   inkscape:export-filename="quicksort.png"
   inkscape:export-xdpi="96"
   inkscape:export-ydpi="96"
   inkscape:version="1.2 (dc2aeda, 2022-05-15)"
   xmlns:inkscape="http://www.inkscape.org/namespaces/inkscape"
   xmlns:sodipodi="http://sodipodi.sourceforge.net/DTD/sodipodi-0.dtd"
   xmlns="http://www.w3.org/2000/svg"
   xmlns:svg="http://www.w3.org/2000/svg">
  <defs
     id="defs3196" />
  <sodipodi:namedview
     id="namedview3194"
     pagecolor="#ffffff"
     bordercolor="#666666"
     borderopacity="1.0"
     inkscape:showpageshadow="2"
     inkscape:pageopacity="0.0"
     inkscape:pagecheckerboard="0"
     inkscape:deskcolor="#d1d1d1"
     inkscape:document-units="pt"
     showgrid="false"
     inkscape:zoom="0.37184874"
     inkscape:cx="169.42373"
     inkscape:cy="317.33333"
     inkscape:window-width="1313"
     inkscape:window-height="458"
     inkscape:window-x="0"
     inkscape:window-y="25"
     inkscape:window-maximized="0"
     inkscape:current-layer="svg3192" />
  <g
     id="graph0"
     class="graph"
     transform="scale(1 1) rotate(0) translate(4 472)">
    <polygon
       fill="white"
       stroke="transparent"
       points="-4,4 -4,-472 250,-472 250,4 -4,4"
       id="polygon3073" />
    <!-- D0 -->
    <g
       id="node1"
       class="node">
      <title
         id="title3075">D0</title>
      <path
         fill="none"
         stroke="black"
         d="M77,-468C77,-468 47,-468 47,-468 41,-468 35,-462 35,-456 35,-456 35,-444 35,-444 35,-438 41,-432 47,-432 47,-432 77,-432 77,-432 83,-432 89,-438 89,-444 89,-444 89,-456 89,-456 89,-462 83,-468 77,-468"
         id="path3077" />
      <text
         text-anchor="middle"
         x="62"
         y="-446.3"
         font-family="Times,serif"
         font-size="14.00"
         id="text3079">begin</text>
    </g>
    <!-- D4 -->
    <g
       id="node3"
       class="node">
      <title
         id="title3082">D4</title>
      <polygon
         fill="none"
         stroke="black"
         points="62,-396 3.35,-378 62,-360 120.65,-378 62,-396"
         id="polygon3084" />
      <text
         text-anchor="middle"
         x="62"
         y="-374.3"
         font-family="Times,serif"
         font-size="14.00"
         id="text3086">(l &gt;= r)?</text>
    </g>
    <!-- D0&#45;&gt;D4 -->
    <g
       id="edge8"
       class="edge">
      <title
         id="title3089">D0-&gt;D4</title>
      <path
         fill="none"
         stroke="black"
         d="M62,-431.7C62,-423.98 62,-414.71 62,-406.11"
         id="path3091" />
      <polygon
         fill="black"
         stroke="black"
         points="65.5,-406.1 62,-396.1 58.5,-406.1 65.5,-406.1"
         id="polygon3093" />
    </g>
    <!-- D1 -->
    <g
       id="node2"
       class="node">
      <title
         id="title3096">D1</title>
      <path
         fill="none"
         stroke="black"
         d="M76,-36C76,-36 46,-36 46,-36 40,-36 34,-30 34,-24 34,-24 34,-12 34,-12 34,-6 40,0 46,0 46,0 76,0 76,0 82,0 88,-6 88,-12 88,-12 88,-24 88,-24 88,-30 82,-36 76,-36"
         id="path3098" />
      <text
         text-anchor="middle"
         x="61"
         y="-14.3"
         font-family="Times,serif"
         font-size="14.00"
         id="text3100">end</text>
    </g>
    <!-- D7 -->
    <g
       id="node4"
       class="node">
      <title
         id="title3103">D7</title>
      <polygon
         fill="none"
         stroke="black"
         points="54,-252 0,-252 0,-216 54,-216 54,-252"
         id="polygon3105" />
      <text
         text-anchor="middle"
         x="27"
         y="-230.3"
         font-family="Times,serif"
         font-size="14.00"
         id="text3107">return;</text>
    </g>
    <!-- D4&#45;&gt;D7 -->
    <g
       id="edge4"
       class="edge">
      <title
         id="title3110">D4:s-&gt;D7:n</title>
      <path
         fill="none"
         stroke="black"
         d="M62,-360C62,-360 38.67,-288.02 30.11,-261.58"
         id="path3112" />
      <polygon
         fill="black"
         stroke="black"
         points="33.41,-260.43 27,-252 26.75,-262.59 33.41,-260.43"
         id="polygon3114" />
      <text
         text-anchor="middle"
         x="41.05"
         y="-314.59"
         font-family="Times,serif"
         font-size="14.00"
         id="text3116">Y</text>
    </g>
    <!-- D9 -->
    <g
       id="node5"
       class="node">
      <title
         id="title3119">D9</title>
      <polygon
         fill="none"
         stroke="black"
         points="246,-324 62,-324 62,-288 246,-288 246,-324"
         id="polygon3121" />
      <text
         text-anchor="middle"
         x="154"
         y="-302.3"
         font-family="Times,serif"
         font-size="14.00"
         id="text3123">int p = partition(arr, l, r, cmp);</text>
    </g>
    <!-- D4&#45;&gt;D9 -->
    <g
       id="edge1"
       class="edge">
      <title
         id="title3126">D4:e-&gt;D9:n</title>
      <path
         fill="none"
         stroke="black"
         d="M122,-378C122,-378 139.63,-348.25 148.72,-332.92"
         id="path3128" />
      <polygon
         fill="black"
         stroke="black"
         points="151.91,-334.39 154,-324 145.89,-330.82 151.91,-334.39"
         id="polygon3130" />
      <text
         text-anchor="middle"
         x="130.36"
         y="-359.26"
         font-family="Times,serif"
         font-size="14.00"
         id="text3132">N</text>
    </g>
    <!-- D7&#45;&gt;D1 -->
    <g
       id="edge3"
       class="edge">
      <title
         id="title3135">D7-&gt;D1</title>
      <path
         fill="none"
         stroke="black"
         d="M29.72,-215.85C35.61,-178.83 49.53,-91.18 56.65,-46.39"
         id="path3137" />
      <polygon
         fill="black"
         stroke="black"
         points="60.15,-46.66 58.26,-36.23 53.24,-45.56 60.15,-46.66"
         id="polygon3139" />
    </g>
    <!-- D11 -->
    <g
       id="node6"
       class="node">
      <title
         id="title3142">D11</title>
      <polygon
         fill="none"
         stroke="black"
         points="242,-252 72,-252 72,-216 242,-216 242,-252"
         id="polygon3144" />
      <text
         text-anchor="middle"
         x="157"
         y="-230.3"
         font-family="Times,serif"
         font-size="14.00"
         id="text3146">quicksort(arr, l, p - 1, cmp);</text>
    </g>
    <!-- D9&#45;&gt;D11 -->
    <g
       id="edge2"
       class="edge">
      <title
         id="title3149">D9-&gt;D11</title>
      <path
         fill="none"
         stroke="black"
         d="M154.74,-287.7C155.07,-279.98 155.47,-270.71 155.84,-262.11"
         id="path3151" />
      <polygon
         fill="black"
         stroke="black"
         points="159.34,-262.25 156.27,-252.1 152.34,-261.95 159.34,-262.25"
         id="polygon3153" />
    </g>
    <!-- D13 -->
    <g
       id="node7"
       class="node">
      <title
         id="title3156">D13</title>
      <polygon
         fill="none"
         stroke="black"
         points="239.5,-180 66.5,-180 66.5,-144 239.5,-144 239.5,-180"
         id="polygon3158" />
      <text
         text-anchor="middle"
         x="153"
         y="-158.3"
         font-family="Times,serif"
         font-size="14.00"
         id="text3160">quicksort(arr, p + 1, r, cmp);</text>
    </g>
    <!-- D11&#45;&gt;D13 -->
    <g
       id="edge5"
       class="edge">
      <title
         id="title3163">D11-&gt;D13</title>
      <path
         fill="none"
         stroke="black"
         d="M156.01,-215.7C155.57,-207.98 155.04,-198.71 154.55,-190.11"
         id="path3165" />
      <polygon
         fill="black"
         stroke="black"
         points="158.04,-189.89 153.98,-180.1 151.05,-190.29 158.04,-189.89"
         id="polygon3167" />
    </g>
    <!-- D15 -->
    <g
       id="node8"
       class="node">
      <title
         id="title3170">D15</title>
      <polygon
         fill="none"
         stroke="black"
         points="148,-108 94,-108 94,-72 148,-72 148,-108"
         id="polygon3172" />
      <text
         text-anchor="middle"
         x="121"
         y="-86.3"
         font-family="Times,serif"
         font-size="14.00"
         id="text3174">return;</text>
    </g>
    <!-- D13&#45;&gt;D15 -->
    <g
       id="edge6"
       class="edge">
      <title
         id="title3177">D13-&gt;D15</title>
      <path
         fill="none"
         stroke="black"
         d="M145.09,-143.7C141.45,-135.73 137.05,-126.1 133.01,-117.26"
         id="path3179" />
      <polygon
         fill="black"
         stroke="black"
         points="136.16,-115.74 128.82,-108.1 129.79,-118.65 136.16,-115.74"
         id="polygon3181" />
    </g>
    <!-- D15&#45;&gt;D1 -->
    <g
       id="edge7"
       class="edge">
      <title
         id="title3184">D15-&gt;D1</title>
      <path
         fill="none"
         stroke="black"
         d="M106.17,-71.7C98.98,-63.3 90.2,-53.07 82.31,-43.86"
         id="path3186" />
      <polygon
         fill="black"
         stroke="black"
         points="84.83,-41.42 75.66,-36.1 79.51,-45.97 84.83,-41.42"
         id="polygon3188" />
    </g>
  </g>
</svg>
