<?xml version="1.0" encoding="UTF-8" standalone="no"?>
<!-- Generated by graphviz version 3.0.0 (20220226.1711)
 -->

<!-- Pages: 1 -->

<svg
   width="742pt"
   height="1198pt"
   viewBox="0.00 0.00 741.50 1198.00"
   version="1.1"
   id="svg4238"
   sodipodi:docname="RemoveList.svg"
   inkscape:version="1.2 (dc2aeda, 2022-05-15)"
   inkscape:export-filename="RemoveList.png"
   inkscape:export-xdpi="96"
   inkscape:export-ydpi="96"
   xmlns:inkscape="http://www.inkscape.org/namespaces/inkscape"
   xmlns:sodipodi="http://sodipodi.sourceforge.net/DTD/sodipodi-0.dtd"
   xmlns="http://www.w3.org/2000/svg"
   xmlns:svg="http://www.w3.org/2000/svg">
  <defs
     id="defs4242" />
  <sodipodi:namedview
     id="namedview4240"
     pagecolor="#ffffff"
     bordercolor="#666666"
     borderopacity="1.0"
     inkscape:showpageshadow="2"
     inkscape:pageopacity="0.0"
     inkscape:pagecheckerboard="0"
     inkscape:deskcolor="#d1d1d1"
     inkscape:document-units="pt"
     showgrid="false"
     inkscape:zoom="0.32940914"
     inkscape:cx="188.21578"
     inkscape:cy="812.06004"
     inkscape:window-width="1313"
     inkscape:window-height="777"
     inkscape:window-x="0"
     inkscape:window-y="25"
     inkscape:window-maximized="0"
     inkscape:current-layer="edge3" />
  <g
     id="graph0"
     class="graph"
     transform="scale(1 1) rotate(0) translate(4 1194)">
    <polygon
       fill="white"
       stroke="transparent"
       points="-4,4 -4,-1194 737.5,-1194 737.5,4 -4,4"
       id="polygon3877" />
    <!-- D0 -->
    <g
       id="node1"
       class="node">
      <title
         id="title3879">D0</title>
      <path
         fill="none"
         stroke="black"
         d="M173,-1190C173,-1190 143,-1190 143,-1190 137,-1190 131,-1184 131,-1178 131,-1178 131,-1166 131,-1166 131,-1160 137,-1154 143,-1154 143,-1154 173,-1154 173,-1154 179,-1154 185,-1160 185,-1166 185,-1166 185,-1178 185,-1178 185,-1184 179,-1190 173,-1190"
         id="path3881" />
      <text
         text-anchor="middle"
         x="158"
         y="-1168.3"
         font-family="Times,serif"
         font-size="14.00"
         id="text3883">begin</text>
    </g>
    <!-- D4 -->
    <g
       id="node3"
       class="node">
      <title
         id="title3886">D4</title>
      <polygon
         fill="none"
         stroke="black"
         points="158,-1118 42.37,-1100 158,-1082 273.63,-1100 158,-1118"
         id="polygon3888" />
      <text
         text-anchor="middle"
         x="158"
         y="-1096.3"
         font-family="Times,serif"
         font-size="14.00"
         id="text3890">(Lists.length &lt;= 0)?</text>
    </g>
    <!-- D0&#45;&gt;D4 -->
    <g
       id="edge26"
       class="edge">
      <title
         id="title3893">D0-&gt;D4</title>
      <path
         fill="none"
         stroke="black"
         d="M158,-1153.7C158,-1145.98 158,-1136.71 158,-1128.11"
         id="path3895" />
      <polygon
         fill="black"
         stroke="black"
         points="161.5,-1128.1 158,-1118.1 154.5,-1128.1 161.5,-1128.1"
         id="polygon3897" />
    </g>
    <!-- D1 -->
    <g
       id="node2"
       class="node">
      <title
         id="title3900">D1</title>
      <path
         fill="none"
         stroke="black"
         d="M141,-36C141,-36 111,-36 111,-36 105,-36 99,-30 99,-24 99,-24 99,-12 99,-12 99,-6 105,0 111,0 111,0 141,0 141,0 147,0 153,-6 153,-12 153,-12 153,-24 153,-24 153,-30 147,-36 141,-36"
         id="path3902" />
      <text
         text-anchor="middle"
         x="126"
         y="-14.3"
         font-family="Times,serif"
         font-size="14.00"
         id="text3904">end</text>
    </g>
    <!-- D9 -->
    <g
       id="node4"
       class="node">
      <title
         id="title3907">D9</title>
      <polygon
         fill="none"
         stroke="black"
         points="140.5,-974 39.5,-974 39.5,-938 140.5,-938 140.5,-974"
         id="polygon3909" />
      <text
         text-anchor="middle"
         x="90"
         y="-952.3"
         font-family="Times,serif"
         font-size="14.00"
         id="text3911">return ERROR;</text>
    </g>
    <!-- D4&#45;&gt;D9 -->
    <g
       id="edge2"
       class="edge">
      <title
         id="title3914">D4:s-&gt;D9:n</title>
      <path
         fill="none"
         stroke="black"
         d="M158,-1082C158,-1082 111.37,-1007.93 95.34,-982.47"
         id="path3916" />
      <polygon
         fill="black"
         stroke="black"
         points="98.29,-980.6 90,-974 92.37,-984.33 98.29,-980.6"
         id="polygon3918" />
      <text
         text-anchor="middle"
         x="121.67"
         y="-1036.04"
         font-family="Times,serif"
         font-size="14.00"
         id="text3920">Y</text>
    </g>
    <!-- D11 -->
    <g
       id="node5"
       class="node">
      <title
         id="title3923">D11</title>
      <polygon
         fill="none"
         stroke="black"
         points="327,-1046 243,-1046 243,-1010 327,-1010 327,-1046"
         id="polygon3925" />
      <text
         text-anchor="middle"
         x="285"
         y="-1024.3"
         font-family="Times,serif"
         font-size="14.00"
         id="text3927">int pos = -1;</text>
    </g>
    <!-- D4&#45;&gt;D11 -->
    <g
       id="edge1"
       class="edge">
      <title
         id="title3930">D4:e-&gt;D11:n</title>
      <path
         fill="none"
         stroke="black"
         d="M275,-1100C275,-1100 280.28,-1071.49 283.17,-1055.9"
         id="path3932" />
      <polygon
         fill="black"
         stroke="black"
         points="286.62,-1056.47 285,-1046 279.74,-1055.2 286.62,-1056.47"
         id="polygon3934" />
      <text
         text-anchor="middle"
         x="274.08"
         y="-1066.75"
         font-family="Times,serif"
         font-size="14.00"
         id="text3936">N</text>
    </g>
    <!-- D9&#45;&gt;D1 -->
    <g
       id="edge3"
       class="edge">
      <title
         id="title3939">D9-&gt;D1</title>
      <path
         fill="none"
         stroke="#000000"
         d="m 79.14,-937.87 c -23.93,37.77 -66.778839,123.49654 -66.778839,123.49654 l 4.572838,792.614782 80.236743,-1.413549"
         id="path3941"
         sodipodi:nodetypes="cccc" />
      <polygon
         fill="#000000"
         stroke="#000000"
         points="101.55,-41.29 106.78,-45.93 110.8,-36.13 "
         id="polygon3943"
         transform="rotate(-45.624561,119.72412,-14.181335)" />
    </g>
    <!-- D16 -->
    <g
       id="node7"
       class="node">
      <title
         id="title3946">D16</title>
      <polygon
         fill="none"
         stroke="black"
         points="323.5,-974 258.5,-974 258.5,-938 323.5,-938 323.5,-974"
         id="polygon3948" />
      <text
         text-anchor="middle"
         x="291"
         y="-952.3"
         font-family="Times,serif"
         font-size="14.00"
         id="text3950">int i = 1;</text>
    </g>
    <!-- D11&#45;&gt;D16 -->
    <g
       id="edge4"
       class="edge">
      <title
         id="title3953">D11-&gt;D16</title>
      <path
         fill="none"
         stroke="black"
         d="M286.48,-1009.7C287.14,-1001.98 287.94,-992.71 288.68,-984.11"
         id="path3955" />
      <polygon
         fill="black"
         stroke="black"
         points="292.17,-984.37 289.53,-974.1 285.19,-983.77 292.17,-984.37"
         id="polygon3957" />
    </g>
    <!-- D15 -->
    <g
       id="node6"
       class="node">
      <title
         id="title3960">D15</title>
      <polygon
         fill="none"
         stroke="black"
         points="412,-902 307.43,-884 412,-866 516.57,-884 412,-902"
         id="polygon3962" />
      <text
         text-anchor="middle"
         x="412"
         y="-880.3"
         font-family="Times,serif"
         font-size="14.00"
         id="text3964">i &lt;= Lists.length?</text>
    </g>
    <!-- D20 -->
    <g
       id="node9"
       class="node">
      <title
         id="title3967">D20</title>
      <polygon
         fill="none"
         stroke="black"
         points="297,-830 27.87,-812 297,-794 566.13,-812 297,-830"
         id="polygon3969" />
      <text
         text-anchor="middle"
         x="297"
         y="-808.3"
         font-family="Times,serif"
         font-size="14.00"
         id="text3971">(strcmp(ListName, Lists.elem[i - 1].name) == 0)?</text>
    </g>
    <!-- D15&#45;&gt;D20 -->
    <g
       id="edge13"
       class="edge">
      <title
         id="title3974">D15:s-&gt;D20:n</title>
      <path
         fill="none"
         stroke="black"
         d="M412,-866C412,-866 334.62,-841.78 306.8,-833.07"
         id="path3976" />
      <polygon
         fill="black"
         stroke="black"
         points="307.59,-829.65 297,-830 305.5,-836.33 307.59,-829.65"
         id="polygon3978" />
      <text
         text-anchor="middle"
         x="354.4"
         y="-853.33"
         font-family="Times,serif"
         font-size="14.00"
         id="text3980">Y</text>
    </g>
    <!-- D29 -->
    <g
       id="node12"
       class="node">
      <title
         id="title3983">D29</title>
      <polygon
         fill="none"
         stroke="black"
         points="297,-614 217.9,-596 297,-578 376.1,-596 297,-614"
         id="polygon3985" />
      <text
         text-anchor="middle"
         x="297"
         y="-592.3"
         font-family="Times,serif"
         font-size="14.00"
         id="text3987">(pos == -1)?</text>
    </g>
    <!-- D15&#45;&gt;D29 -->
    <g
       id="edge6"
       class="edge">
      <title
         id="title3990">D15:e-&gt;D29:n</title>
      <path
         fill="none"
         stroke="#000000"
         d="m 518,-884 167.14236,1.80843 -0.22847,263.20124 L 306.65,-617.35"
         id="path3992"
         sodipodi:nodetypes="cccc" />
      <polygon
         fill="black"
         stroke="black"
         points="307.59,-613.97 297,-614 305.3,-620.59 307.59,-613.97"
         id="polygon3994" />
      <text
         text-anchor="middle"
         x="546.63"
         y="-706.23"
         font-family="Times,serif"
         font-size="14.00"
         id="text3996">N</text>
    </g>
    <!-- D16&#45;&gt;D15 -->
    <g
       id="edge7"
       class="edge">
      <title
         id="title3999">D16-&gt;D15</title>
      <path
         fill="none"
         stroke="black"
         d="M320.6,-937.88C338.76,-927.37 361.99,-913.93 380.49,-903.23"
         id="path4001" />
      <polygon
         fill="black"
         stroke="black"
         points="382.25,-906.26 389.15,-898.22 378.74,-900.2 382.25,-906.26"
         id="polygon4003" />
    </g>
    <!-- D17 -->
    <g
       id="node8"
       class="node">
      <title
         id="title4006">D17</title>
      <polygon
         fill="none"
         stroke="black"
         points="599,-758 545,-758 545,-722 599,-722 599,-758"
         id="polygon4008" />
      <text
         text-anchor="middle"
         x="572"
         y="-736.3"
         font-family="Times,serif"
         font-size="14.00"
         id="text4010">i++</text>
    </g>
    <!-- D17&#45;&gt;D15 -->
    <g
       id="edge9"
       class="edge">
      <title
         id="title4013">D17-&gt;D15</title>
      <path
         fill="none"
         stroke="#000000"
         d="m 599.06579,-742.95192 47.35425,2.51695 V -862.9631 l -191.5935,-5.6669"
         id="path4015"
         sodipodi:nodetypes="cccc" />
      <polygon
         fill="black"
         stroke="black"
         points="455,-865.34 446.57,-871.76 457.16,-872 455,-865.34"
         id="polygon4017" />
    </g>
    <!-- D20&#45;&gt;D17 -->
    <g
       id="edge8"
       class="edge">
      <title
         id="title4020">D20:e-&gt;D17:n</title>
      <path
         fill="none"
         stroke="black"
         d="M567,-812C567,-812 569.58,-784.1 571.04,-768.41"
         id="path4022" />
      <polygon
         fill="black"
         stroke="black"
         points="574.56,-768.28 572,-758 567.59,-767.63 574.56,-768.28"
         id="polygon4024" />
      <text
         text-anchor="middle"
         x="564.02"
         y="-779.01"
         font-family="Times,serif"
         font-size="14.00"
         id="text4026">N</text>
    </g>
    <!-- D25 -->
    <g
       id="node10"
       class="node">
      <title
         id="title4029">D25</title>
      <polygon
         fill="none"
         stroke="black"
         points="326.5,-758 267.5,-758 267.5,-722 326.5,-722 326.5,-758"
         id="polygon4031" />
      <text
         text-anchor="middle"
         x="297"
         y="-736.3"
         font-family="Times,serif"
         font-size="14.00"
         id="text4033">pos = i;</text>
    </g>
    <!-- D20&#45;&gt;D25 -->
    <g
       id="edge10"
       class="edge">
      <title
         id="title4036">D20:s-&gt;D25:n</title>
      <path
         fill="none"
         stroke="black"
         d="M297,-794C297,-794 297,-778.86 297,-768.22"
         id="path4038" />
      <polygon
         fill="black"
         stroke="black"
         points="300.5,-768 297,-758 293.5,-768 300.5,-768"
         id="polygon4040" />
      <text
         text-anchor="middle"
         x="292"
         y="-769.91"
         font-family="Times,serif"
         font-size="14.00"
         id="text4042">Y</text>
    </g>
    <!-- D27 -->
    <g
       id="node11"
       class="node">
      <title
         id="title4045">D27</title>
      <polygon
         fill="none"
         stroke="black"
         points="324,-686 270,-686 270,-650 324,-650 324,-686"
         id="polygon4047" />
      <text
         text-anchor="middle"
         x="297"
         y="-664.3"
         font-family="Times,serif"
         font-size="14.00"
         id="text4049">break</text>
    </g>
    <!-- D25&#45;&gt;D27 -->
    <g
       id="edge12"
       class="edge">
      <title
         id="title4052">D25-&gt;D27</title>
      <path
         fill="none"
         stroke="black"
         d="M297,-721.7C297,-713.98 297,-704.71 297,-696.11"
         id="path4054" />
      <polygon
         fill="black"
         stroke="black"
         points="300.5,-696.1 297,-686.1 293.5,-696.1 300.5,-696.1"
         id="polygon4056" />
    </g>
    <!-- D27&#45;&gt;D29 -->
    <g
       id="edge5"
       class="edge">
      <title
         id="title4059">D27-&gt;D29</title>
      <path
         fill="none"
         stroke="black"
         d="M297,-649.7C297,-641.98 297,-632.71 297,-624.11"
         id="path4061" />
      <polygon
         fill="black"
         stroke="black"
         points="300.5,-624.1 297,-614.1 293.5,-624.1 300.5,-624.1"
         id="polygon4063" />
    </g>
    <!-- D34 -->
    <g
       id="node13"
       class="node">
      <title
         id="title4066">D34</title>
      <polygon
         fill="none"
         stroke="black"
         points="234.5,-470 133.5,-470 133.5,-434 234.5,-434 234.5,-470"
         id="polygon4068" />
      <text
         text-anchor="middle"
         x="184"
         y="-448.3"
         font-family="Times,serif"
         font-size="14.00"
         id="text4070">return ERROR;</text>
    </g>
    <!-- D29&#45;&gt;D34 -->
    <g
       id="edge14"
       class="edge">
      <title
         id="title4073">D29:s-&gt;D34:n</title>
      <path
         fill="none"
         stroke="black"
         d="M297,-578C297,-578 216.55,-501.11 191.41,-477.09"
         id="path4075" />
      <polygon
         fill="black"
         stroke="black"
         points="193.65,-474.38 184,-470 188.81,-479.44 193.65,-474.38"
         id="polygon4077" />
      <text
         text-anchor="middle"
         x="239.21"
         y="-531.34"
         font-family="Times,serif"
         font-size="14.00"
         id="text4079">Y</text>
    </g>
    <!-- D36 -->
    <g
       id="node14"
       class="node">
      <title
         id="title4082">D36</title>
      <polygon
         fill="none"
         stroke="black"
         points="480.5,-542 271.5,-542 271.5,-506 480.5,-506 480.5,-542"
         id="polygon4084" />
      <text
         text-anchor="middle"
         x="376"
         y="-520.3"
         font-family="Times,serif"
         font-size="14.00"
         id="text4086">DestroyList(Lists.elem[pos - 1].L);</text>
    </g>
    <!-- D29&#45;&gt;D36 -->
    <g
       id="edge11"
       class="edge">
      <title
         id="title4089">D29:e-&gt;D36:n</title>
      <path
         fill="none"
         stroke="black"
         d="M377,-596C377,-596 376.48,-568.1 376.19,-552.41"
         id="path4091" />
      <polygon
         fill="black"
         stroke="black"
         points="379.68,-551.93 376,-542 372.69,-552.06 379.68,-551.93"
         id="polygon4093" />
      <text
         text-anchor="middle"
         x="371.6"
         y="-563.01"
         font-family="Times,serif"
         font-size="14.00"
         id="text4095">N</text>
    </g>
    <!-- D34&#45;&gt;D1 -->
    <g
       id="edge15"
       class="edge">
      <title
         id="title4098">D34-&gt;D1</title>
      <path
         fill="none"
         stroke="black"
         d="M177,-433.75C161.58,-395.72 126,-308 126,-308 126,-308 126,-308 126,-161 126,-161 126,-87.6 126,-46.34"
         id="path4100" />
      <polygon
         fill="black"
         stroke="black"
         points="129.5,-46.13 126,-36.13 122.5,-46.13 129.5,-46.13"
         id="polygon4102" />
    </g>
    <!-- D41 -->
    <g
       id="node16"
       class="node">
      <title
         id="title4105">D41</title>
      <polygon
         fill="none"
         stroke="black"
         points="414.5,-470 337.5,-470 337.5,-434 414.5,-434 414.5,-470"
         id="polygon4107" />
      <text
         text-anchor="middle"
         x="376"
         y="-448.3"
         font-family="Times,serif"
         font-size="14.00"
         id="text4109">int i = pos;</text>
    </g>
    <!-- D36&#45;&gt;D41 -->
    <g
       id="edge16"
       class="edge">
      <title
         id="title4112">D36-&gt;D41</title>
      <path
         fill="none"
         stroke="black"
         d="M376,-505.7C376,-497.98 376,-488.71 376,-480.11"
         id="path4114" />
      <polygon
         fill="black"
         stroke="black"
         points="379.5,-480.1 376,-470.1 372.5,-480.1 379.5,-480.1"
         id="polygon4116" />
    </g>
    <!-- D40 -->
    <g
       id="node15"
       class="node">
      <title
         id="title4119">D40</title>
      <polygon
         fill="none"
         stroke="black"
         points="376,-398 271.43,-380 376,-362 480.57,-380 376,-398"
         id="polygon4121" />
      <text
         text-anchor="middle"
         x="376"
         y="-376.3"
         font-family="Times,serif"
         font-size="14.00"
         id="text4123">i &lt;= Lists.length?</text>
    </g>
    <!-- D45 -->
    <g
       id="node18"
       class="node">
      <title
         id="title4126">D45</title>
      <polygon
         fill="none"
         stroke="black"
         points="348,-325 154,-325 154,-289 348,-289 348,-325"
         id="polygon4128" />
      <text
         text-anchor="middle"
         x="251"
         y="-303.3"
         font-family="Times,serif"
         font-size="14.00"
         id="text4130">Lists.elem[i - 1] = Lists.elem[i];</text>
    </g>
    <!-- D40&#45;&gt;D45 -->
    <g
       id="edge22"
       class="edge">
      <title
         id="title4133">D40:s-&gt;D45:n</title>
      <path
         fill="none"
         stroke="black"
         d="M376,-362C376,-362 290.28,-337.31 260.81,-328.82"
         id="path4135" />
      <polygon
         fill="black"
         stroke="black"
         points="261.58,-325.4 251,-326 259.64,-332.13 261.58,-325.4"
         id="polygon4137" />
      <text
         text-anchor="middle"
         x="313.4"
         y="-349.21"
         font-family="Times,serif"
         font-size="14.00"
         id="text4139">Y</text>
    </g>
    <!-- D47 -->
    <g
       id="node19"
       class="node">
      <title
         id="title4142">D47</title>
      <polygon
         fill="none"
         stroke="black"
         points="733.5,-326 404.5,-326 404.5,-288 733.5,-288 733.5,-326"
         id="polygon4144" />
      <text
         text-anchor="middle"
         x="569"
         y="-310.8"
         font-family="Times,serif"
         font-size="14.00"
         id="text4146">Lists.elem[Lists.length - 1].L =</text>
      <text
         text-anchor="middle"
         x="569"
         y="-295.8"
         font-family="Times,serif"
         font-size="14.00"
         id="text4148">        (SqList){.elem = NULL, .length = 0, .listsize = 0};</text>
    </g>
    <!-- D40&#45;&gt;D47 -->
    <g
       id="edge17"
       class="edge">
      <title
         id="title4151">D40:e-&gt;D47:n</title>
      <path
         fill="none"
         stroke="black"
         d="M482,-380C482,-380 538.33,-345.03 560.34,-331.38"
         id="path4153" />
      <polygon
         fill="black"
         stroke="black"
         points="562.35,-334.25 569,-326 558.66,-328.3 562.35,-334.25"
         id="polygon4155" />
      <text
         text-anchor="middle"
         x="516.17"
         y="-359.49"
         font-family="Times,serif"
         font-size="14.00"
         id="text4157">N</text>
    </g>
    <!-- D41&#45;&gt;D40 -->
    <g
       id="edge18"
       class="edge">
      <title
         id="title4160">D41-&gt;D40</title>
      <path
         fill="none"
         stroke="black"
         d="M376,-433.7C376,-425.98 376,-416.71 376,-408.11"
         id="path4162" />
      <polygon
         fill="black"
         stroke="black"
         points="379.5,-408.1 376,-398.1 372.5,-408.1 379.5,-408.1"
         id="polygon4164" />
    </g>
    <!-- D42 -->
    <g
       id="node17"
       class="node">
      <title
         id="title4167">D42</title>
      <polygon
         fill="none"
         stroke="black"
         points="313,-252 259,-252 259,-216 313,-216 313,-252"
         id="polygon4169" />
      <text
         text-anchor="middle"
         x="286"
         y="-230.3"
         font-family="Times,serif"
         font-size="14.00"
         id="text4171">i++</text>
    </g>
    <!-- D42&#45;&gt;D40 -->
    <g
       id="edge20"
       class="edge">
      <title
         id="title4174">D42-&gt;D40</title>
      <path
         fill="none"
         stroke="#000000"
         d="m 312.98039,-232.83153 63.24808,-0.22998 1.05884,-124.72234"
         id="path4176"
         sodipodi:nodetypes="ccc" />
      <polygon
         fill="#000000"
         stroke="#000000"
         points="373.9,-351.8 367.05,-353.24 372.52,-362.31 "
         id="polygon4178"
         transform="rotate(-12.645927,375.21601,-382.19441)" />
    </g>
    <!-- D45&#45;&gt;D42 -->
    <g
       id="edge19"
       class="edge">
      <title
         id="title4181">D45-&gt;D42</title>
      <path
         fill="none"
         stroke="black"
         d="M259.47,-288.81C263.56,-280.53 268.54,-270.41 273.09,-261.19"
         id="path4183" />
      <polygon
         fill="black"
         stroke="black"
         points="276.32,-262.55 277.61,-252.03 270.04,-259.45 276.32,-262.55"
         id="polygon4185" />
    </g>
    <!-- D49 -->
    <g
       id="node20"
       class="node">
      <title
         id="title4188">D49</title>
      <polygon
         fill="none"
         stroke="black"
         points="665,-252 401,-252 401,-216 665,-216 665,-252"
         id="polygon4190" />
      <text
         text-anchor="middle"
         x="533"
         y="-230.3"
         font-family="Times,serif"
         font-size="14.00"
         id="text4192">strcpy(Lists.elem[Lists.length - 1].name, &quot;&quot;);</text>
    </g>
    <!-- D47&#45;&gt;D49 -->
    <g
       id="edge21"
       class="edge">
      <title
         id="title4195">D47-&gt;D49</title>
      <path
         fill="none"
         stroke="black"
         d="M559.73,-287.72C555.63,-279.63 550.73,-269.97 546.26,-261.14"
         id="path4197" />
      <polygon
         fill="black"
         stroke="black"
         points="549.27,-259.34 541.62,-252 543.02,-262.51 549.27,-259.34"
         id="polygon4199" />
    </g>
    <!-- D51 -->
    <g
       id="node21"
       class="node">
      <title
         id="title4202">D51</title>
      <polygon
         fill="none"
         stroke="black"
         points="395.5,-180 302.5,-180 302.5,-144 395.5,-144 395.5,-180"
         id="polygon4204" />
      <text
         text-anchor="middle"
         x="349"
         y="-158.3"
         font-family="Times,serif"
         font-size="14.00"
         id="text4206">--Lists.length;</text>
    </g>
    <!-- D49&#45;&gt;D51 -->
    <g
       id="edge23"
       class="edge">
      <title
         id="title4209">D49-&gt;D51</title>
      <path
         fill="none"
         stroke="black"
         d="M487.99,-215.88C462.5,-206.18 430.43,-193.98 403.52,-183.74"
         id="path4211" />
      <polygon
         fill="black"
         stroke="black"
         points="404.46,-180.35 393.87,-180.07 401.97,-186.9 404.46,-180.35"
         id="polygon4213" />
    </g>
    <!-- D53 -->
    <g
       id="node22"
       class="node">
      <title
         id="title4216">D53</title>
      <polygon
         fill="none"
         stroke="black"
         points="308,-108 232,-108 232,-72 308,-72 308,-108"
         id="polygon4218" />
      <text
         text-anchor="middle"
         x="270"
         y="-86.3"
         font-family="Times,serif"
         font-size="14.00"
         id="text4220">return OK;</text>
    </g>
    <!-- D51&#45;&gt;D53 -->
    <g
       id="edge24"
       class="edge">
      <title
         id="title4223">D51-&gt;D53</title>
      <path
         fill="none"
         stroke="black"
         d="M329.47,-143.7C319.62,-134.97 307.51,-124.24 296.8,-114.75"
         id="path4225" />
      <polygon
         fill="black"
         stroke="black"
         points="299.11,-112.12 289.3,-108.1 294.47,-117.36 299.11,-112.12"
         id="polygon4227" />
    </g>
    <!-- D53&#45;&gt;D1 -->
    <g
       id="edge25"
       class="edge">
      <title
         id="title4230">D53-&gt;D1</title>
      <path
         fill="none"
         stroke="black"
         d="M234.77,-71.88C212.77,-61.18 184.51,-47.44 162.3,-36.65"
         id="path4232" />
      <polygon
         fill="black"
         stroke="black"
         points="163.72,-33.44 153.2,-32.22 160.66,-39.74 163.72,-33.44"
         id="polygon4234" />
    </g>
  </g>
</svg>
