<?xml version="1.0" encoding="UTF-8" standalone="no"?>
<!-- Generated by graphviz version 3.0.0 (20220226.1711)
 -->

<!-- Pages: 1 -->

<svg
   width="814pt"
   height="620pt"
   viewBox="0.00 0.00 813.52 620.00"
   version="1.1"
   id="svg397"
   sodipodi:docname="check_if_repeated_in_elems.svg"
   inkscape:version="1.2 (dc2aeda, 2022-05-15)"
   inkscape:export-filename="check_if_repeated_in_elems.png"
   inkscape:export-xdpi="96"
   inkscape:export-ydpi="96"
   xmlns:inkscape="http://www.inkscape.org/namespaces/inkscape"
   xmlns:sodipodi="http://sodipodi.sourceforge.net/DTD/sodipodi-0.dtd"
   xmlns="http://www.w3.org/2000/svg"
   xmlns:svg="http://www.w3.org/2000/svg">
  <defs
     id="defs401" />
  <sodipodi:namedview
     id="namedview399"
     pagecolor="#ffffff"
     bordercolor="#666666"
     borderopacity="1.0"
     inkscape:showpageshadow="2"
     inkscape:pageopacity="0.0"
     inkscape:pagecheckerboard="0"
     inkscape:deskcolor="#d1d1d1"
     inkscape:document-units="pt"
     showgrid="false"
     inkscape:zoom="1.2946442"
     inkscape:cx="338.70309"
     inkscape:cy="481.98569"
     inkscape:window-width="1440"
     inkscape:window-height="778"
     inkscape:window-x="0"
     inkscape:window-y="25"
     inkscape:window-maximized="1"
     inkscape:current-layer="graph0" />
  <g
     id="graph0"
     class="graph"
     transform="scale(1 1) rotate(0) translate(4 616)">
    <!-- D0 -->
    <g
       id="node1"
       class="node">
      <title
         id="title216">D0</title>
      <path
         fill="none"
         stroke="black"
         d="M486.52,-612C486.52,-612 456.52,-612 456.52,-612 450.52,-612 444.52,-606 444.52,-600 444.52,-600 444.52,-588 444.52,-588 444.52,-582 450.52,-576 456.52,-576 456.52,-576 486.52,-576 486.52,-576 492.52,-576 498.52,-582 498.52,-588 498.52,-588 498.52,-600 498.52,-600 498.52,-606 492.52,-612 486.52,-612"
         id="path218" />
      <text
         text-anchor="middle"
         x="471.52"
         y="-590.3"
         font-family="Times,serif"
         font-size="14.00"
         id="text220">begin</text>
    </g>
    <!-- D4 -->
    <g
       id="node3"
       class="node">
      <title
         id="title223">D4</title>
      <polygon
         fill="none"
         stroke="black"
         points="579.02,-540 364.02,-540 364.02,-504 579.02,-504 579.02,-540"
         id="polygon225" />
      <text
         text-anchor="middle"
         x="471.52"
         y="-518.3"
         font-family="Times,serif"
         font-size="14.00"
         id="text227">std::unordered_set&lt;KeyType&gt; keys;</text>
    </g>
    <!-- D0&#45;&gt;D4 -->
    <g
       id="edge13"
       class="edge">
      <title
         id="title230">D0-&gt;D4</title>
      <path
         fill="none"
         stroke="black"
         d="M471.52,-575.7C471.52,-567.98 471.52,-558.71 471.52,-550.11"
         id="path232" />
      <polygon
         fill="black"
         stroke="black"
         points="475.02,-550.1 471.52,-540.1 468.02,-550.1 475.02,-550.1"
         id="polygon234" />
    </g>
    <!-- D1 -->
    <g
       id="node2"
       class="node">
      <title
         id="title237">D1</title>
      <path
         fill="none"
         stroke="black"
         d="M508.52,-36C508.52,-36 478.52,-36 478.52,-36 472.52,-36 466.52,-30 466.52,-24 466.52,-24 466.52,-12 466.52,-12 466.52,-6 472.52,0 478.52,0 478.52,0 508.52,0 508.52,0 514.52,0 520.52,-6 520.52,-12 520.52,-12 520.52,-24 520.52,-24 520.52,-30 514.52,-36 508.52,-36"
         id="path239" />
      <text
         text-anchor="middle"
         x="493.52"
         y="-14.3"
         font-family="Times,serif"
         font-size="14.00"
         id="text241">end</text>
    </g>
    <!-- D6 -->
    <g
       id="node4"
       class="node">
      <title
         id="title244">D6</title>
      <polygon
         fill="none"
         stroke="black"
         points="579.02,-468 364.02,-468 364.02,-432 579.02,-432 579.02,-468"
         id="polygon246" />
      <text
         text-anchor="middle"
         x="471.52"
         y="-446.3"
         font-family="Times,serif"
         font-size="14.00"
         id="text248">const TElemType *p_elem = elems;</text>
    </g>
    <!-- D4&#45;&gt;D6 -->
    <g
       id="edge1"
       class="edge">
      <title
         id="title251">D4-&gt;D6</title>
      <path
         fill="none"
         stroke="black"
         d="M471.52,-503.7C471.52,-495.98 471.52,-486.71 471.52,-478.11"
         id="path253" />
      <polygon
         fill="black"
         stroke="black"
         points="475.02,-478.1 471.52,-468.1 468.02,-478.1 475.02,-478.1"
         id="polygon255" />
    </g>
    <!-- D8 -->
    <g
       id="node5"
       class="node">
      <title
         id="title258">D8</title>
      <polygon
         fill="none"
         stroke="black"
         points="471.52,-396 346.51,-378 471.52,-360 596.53,-378 471.52,-396"
         id="polygon260" />
      <text
         text-anchor="middle"
         x="471.52"
         y="-374.3"
         font-family="Times,serif"
         font-size="14.00"
         id="text262">(p_elem-&gt;key != -1)?</text>
    </g>
    <!-- D6&#45;&gt;D8 -->
    <g
       id="edge2"
       class="edge">
      <title
         id="title265">D6-&gt;D8</title>
      <path
         fill="none"
         stroke="black"
         d="M471.52,-431.7C471.52,-423.98 471.52,-414.71 471.52,-406.11"
         id="path267" />
      <polygon
         fill="black"
         stroke="black"
         points="475.02,-406.1 471.52,-396.1 468.02,-406.1 475.02,-406.1"
         id="polygon269" />
    </g>
    <!-- D13 -->
    <g
       id="node6"
       class="node">
      <title
         id="title272">D13</title>
      <polygon
         fill="none"
         stroke="black"
         points="221.52,-324 -0.02,-306 221.52,-288 443.05,-306 221.52,-324"
         id="polygon274" />
      <text
         text-anchor="middle"
         x="221.52"
         y="-302.3"
         font-family="Times,serif"
         font-size="14.00"
         id="text276">(keys.find(p_elem-&gt;key) != keys.end())?</text>
    </g>
    <!-- D8&#45;&gt;D13 -->
    <g
       id="edge11"
       class="edge">
      <title
         id="title279">D8:s-&gt;D13:n</title>
      <path
         fill="none"
         stroke="#000000"
         d="m 472.09931,-359.42069 -247.23368,-0.89511 -0.18734,29.64201"
         id="path281"
         sodipodi:nodetypes="ccc" />
      <polygon
         fill="#000000"
         stroke="#000000"
         points="230.92,-328.89 231.91,-321.96 221.52,-324 "
         id="polygon283"
         transform="rotate(-75.426533,222.19303,-325.65109)" />
      <text
         text-anchor="middle"
         x="346.57"
         y="-346.53"
         font-family="Times,serif"
         font-size="14.00"
         id="text285">Y</text>
    </g>
    <!-- D29 -->
    <g
       id="node11"
       class="node">
      <title
         id="title288">D29</title>
      <polygon
         fill="none"
         stroke="black"
         points="805.52,-180 729.52,-180 729.52,-144 805.52,-144 805.52,-180"
         id="polygon290" />
      <text
         text-anchor="middle"
         x="767.52"
         y="-158.3"
         font-family="Times,serif"
         font-size="14.00"
         id="text292">return OK;</text>
    </g>
    <!-- D8&#45;&gt;D29 -->
    <g
       id="edge3"
       class="edge">
      <title
         id="title295">D8:e-&gt;D29:n</title>
      <path
         fill="none"
         stroke="#000000"
         d="M 597.52,-378 765.31998,-378.28952 764.95,-189.71"
         id="path297"
         sodipodi:nodetypes="ccc" />
      <polygon
         fill="black"
         stroke="black"
         points="768.35,-190.56 767.52,-180 761.58,-188.78 768.35,-190.56"
         id="polygon299" />
      <text
         text-anchor="middle"
         x="741.99133"
         y="-295.26346"
         font-family="Times, serif"
         font-size="14px"
         id="text301">N</text>
    </g>
    <!-- D18 -->
    <g
       id="node7"
       class="node"
       transform="translate(-180.74463,-1.7379291)">
      <title
         id="title304">D18</title>
      <polygon
         fill="none"
         stroke="#000000"
         points="356.02,-72 457.02,-72 457.02,-108 356.02,-108 "
         id="polygon306" />
      <text
         text-anchor="middle"
         x="406.51999"
         y="-86.300003"
         font-family="Times, serif"
         font-size="14px"
         id="text308">return ERROR;</text>
    </g>
    <!-- D13&#45;&gt;D18 -->
    <g
       id="edge5"
       class="edge">
      <title
         id="title311">D13:s-&gt;D18:n</title>
      <path
         fill="none"
         stroke="#000000"
         d="m 221.52,-288 0.25122,174.45793"
         id="path313"
         sodipodi:nodetypes="cc" />
      <polygon
         fill="#000000"
         stroke="#000000"
         points="396.91,-112.47 401.79,-117.48 406.52,-108 "
         id="polygon315"
         transform="rotate(40.864878,317.9704,-356.76141)"
         inkscape:transform-center-x="2.8535179"
         inkscape:transform-center-y="5.8967244" />
      <text
         text-anchor="middle"
         x="207.37666"
         y="-207.17793"
         font-family="Times, serif"
         font-size="14px"
         id="text317">Y</text>
    </g>
    <!-- D20 -->
    <g
       id="node8"
       class="node"
       transform="translate(-175.53084,1.7379293)">
      <title
         id="title320">D20</title>
      <polygon
         fill="none"
         stroke="#000000"
         points="619.52,-216 739.84,-234 619.52,-252 499.2,-234 "
         id="polygon322" />
      <text
         text-anchor="middle"
         x="619.52002"
         y="-230.3"
         font-family="Times, serif"
         font-size="14px"
         id="text324">(p_elem-&gt;key != 0)?</text>
    </g>
    <!-- D13&#45;&gt;D20 -->
    <g
       id="edge4"
       class="edge">
      <title
         id="title327">D13:e-&gt;D20:n</title>
      <path
         fill="none"
         stroke="#000000"
         d="m 444.52,-306 0.81604,52.75793"
         id="path329"
         sodipodi:nodetypes="cc" />
      <polygon
         fill="#000000"
         stroke="#000000"
         points="608.93,-251.6 610.99,-258.29 619.52,-252 "
         id="polygon331"
         transform="rotate(71.556513,532.21369,-372.8128)" />
      <text
         text-anchor="middle"
         x="461.36249"
         y="-277.33829"
         font-family="Times, serif"
         font-size="14px"
         id="text333">N</text>
    </g>
    <!-- D18&#45;&gt;D1 -->
    <g
       id="edge6"
       class="edge">
      <title
         id="title336">D18-&gt;D1</title>
      <path
         fill="none"
         stroke="black"
         d="M428.02,-71.7C438.98,-62.88 452.46,-52.03 464.34,-42.47"
         id="path338" />
      <polygon
         fill="black"
         stroke="black"
         points="466.66,-45.1 472.26,-36.1 462.27,-39.65 466.66,-45.1"
         id="polygon340" />
    </g>
    <!-- D25 -->
    <g
       id="node9"
       class="node"
       transform="translate(-176.11015,1.7379291)">
      <title
         id="title343">D25</title>
      <polygon
         fill="none"
         stroke="#000000"
         points="512.02,-180 512.02,-144 673.02,-144 673.02,-180 "
         id="polygon345" />
      <text
         text-anchor="middle"
         x="592.52002"
         y="-158.3"
         font-family="Times, serif"
         font-size="14px"
         id="text347">keys.insert(p_elem-&gt;key);</text>
    </g>
    <!-- D20&#45;&gt;D25 -->
    <g
       id="edge10"
       class="edge"
       transform="translate(-176.11015,1.7379291)">
      <title
         id="title350">D20:s-&gt;D25:n</title>
      <path
         fill="none"
         stroke="#000000"
         d="m 619.52,-216 -2.20209,28.80862"
         id="path352"
         sodipodi:nodetypes="cc" />
      <polygon
         fill="#000000"
         stroke="#000000"
         points="601.32,-185.9 592.52,-180 595.72,-190.1 "
         id="polygon354"
         transform="rotate(-40.60389,604.97653,-213.91142)" />
      <text
         text-anchor="middle"
         x="605.88794"
         y="-195.60448"
         font-family="Times, serif"
         font-size="14px"
         id="text356">Y</text>
    </g>
    <!-- D27 -->
    <g
       id="node10"
       class="node"
       transform="translate(-176.11015,1.7379291)">
      <title
         id="title359">D27</title>
      <polygon
         fill="none"
         stroke="#000000"
         points="554.02,-108 554.02,-72 631.02,-72 631.02,-108 "
         id="polygon361" />
      <text
         text-anchor="middle"
         x="592.52002"
         y="-86.300003"
         font-family="Times, serif"
         font-size="14px"
         id="text363">++p_elem;</text>
    </g>
    <!-- D20&#45;&gt;D27 -->
    <g
       id="edge7"
       class="edge"
       transform="translate(-176.11015,1.7379291)">
      <title
         id="title366">D20:e-&gt;D27:n</title>
      <path
         fill="none"
         stroke="#000000"
         d="m 741.52,-234 -1,103.73784 -147.97896,-1.15437"
         id="path368"
         sodipodi:nodetypes="ccc" />
      <text
         text-anchor="middle"
         x="730.67542"
         y="-195.20444"
         font-family="Times, serif"
         font-size="14px"
         id="text372">N</text>
    </g>
    <!-- D25&#45;&gt;D27 -->
    <g
       id="edge8"
       class="edge"
       transform="translate(-176.11015,1.7379291)">
      <title
         id="title375">D25-&gt;D27</title>
      <path
         fill="none"
         stroke="#000000"
         d="m 592.52,-143.7 c 0,7.72 0,16.99 0,25.59"
         id="path377" />
      <polygon
         fill="#000000"
         stroke="#000000"
         points="592.52,-108.1 589.02,-118.1 596.02,-118.1 "
         id="polygon379" />
    </g>
    <!-- D27&#45;&gt;D8 -->
    <g
       id="edge9"
       class="edge">
      <title
         id="title382">D27-&gt;D8</title>
      <path
         fill="none"
         stroke="#000000"
         d="m 455.53908,-82.570373 144.72564,-0.602107 2.06205,-215.0895 -64.47201,-66.72007"
         id="path384"
         sodipodi:nodetypes="cccc" />
      <polygon
         fill="#000000"
         stroke="#000000"
         points="471.21,-349.73 473.51,-360.07 478.16,-350.55 "
         id="polygon386"
         transform="rotate(-41.353195,492.79089,-445.00059)" />
    </g>
    <!-- D29&#45;&gt;D1 -->
    <g
       id="edge12"
       class="edge">
      <title
         id="title389">D29-&gt;D1</title>
      <path
         fill="none"
         stroke="black"
         d="M743.03,-143.84C706.13,-117.98 640.52,-72 640.52,-72 640.52,-72 573.81,-47.95 530.26,-32.25"
         id="path391" />
      <polygon
         fill="black"
         stroke="black"
         points="531.42,-28.94 520.82,-28.84 529.04,-35.53 531.42,-28.94"
         id="polygon393" />
    </g>
  </g>
</svg>
