<?xml version="1.0" encoding="UTF-8" standalone="no"?>
<!-- Generated by graphviz version 3.0.0 (20220226.1711)
 -->

<!-- Pages: 1 -->

<svg
   width="661pt"
   height="404pt"
   viewBox="0.00 0.00 661.00 404.00"
   version="1.1"
   id="svg2397"
   sodipodi:docname="CreateBiTree.svg"
   inkscape:export-filename="CreateBiTree.png"
   inkscape:export-xdpi="96"
   inkscape:export-ydpi="96"
   inkscape:version="1.2 (dc2aeda, 2022-05-15)"
   xmlns:inkscape="http://www.inkscape.org/namespaces/inkscape"
   xmlns:sodipodi="http://sodipodi.sourceforge.net/DTD/sodipodi-0.dtd"
   xmlns="http://www.w3.org/2000/svg"
   xmlns:svg="http://www.w3.org/2000/svg">
  <defs
     id="defs2401" />
  <sodipodi:namedview
     id="namedview2399"
     pagecolor="#ffffff"
     bordercolor="#666666"
     borderopacity="1.0"
     inkscape:showpageshadow="2"
     inkscape:pageopacity="0.0"
     inkscape:pagecheckerboard="0"
     inkscape:deskcolor="#d1d1d1"
     inkscape:document-units="pt"
     showgrid="false"
     inkscape:zoom="0.87915384"
     inkscape:cx="457.82658"
     inkscape:cy="219.52927"
     inkscape:window-width="1440"
     inkscape:window-height="778"
     inkscape:window-x="0"
     inkscape:window-y="25"
     inkscape:window-maximized="1"
     inkscape:current-layer="svg2397" />
  <g
     id="graph0"
     class="graph"
     transform="scale(1 1) rotate(0) translate(4 400)">
    <polygon
       fill="white"
       stroke="transparent"
       points="-4,4 -4,-400 657,-400 657,4 -4,4"
       id="polygon2267" />
    <!-- D0 -->
    <g
       id="node1"
       class="node">
      <title
         id="title2269">D0</title>
      <path
         fill="none"
         stroke="black"
         d="M108,-396C108,-396 78,-396 78,-396 72,-396 66,-390 66,-384 66,-384 66,-372 66,-372 66,-366 72,-360 78,-360 78,-360 108,-360 108,-360 114,-360 120,-366 120,-372 120,-372 120,-384 120,-384 120,-390 114,-396 108,-396"
         id="path2271" />
      <text
         text-anchor="middle"
         x="93"
         y="-374.3"
         font-family="Times,serif"
         font-size="14.00"
         id="text2273">begin</text>
    </g>
    <!-- D4 -->
    <g
       id="node3"
       class="node">
      <title
         id="title2276">D4</title>
      <polygon
         fill="none"
         stroke="black"
         points="93,-324 4.52,-306 93,-288 181.48,-306 93,-324"
         id="polygon2278" />
      <text
         text-anchor="middle"
         x="93"
         y="-302.3"
         font-family="Times,serif"
         font-size="14.00"
         id="text2280">(T != NULL)?</text>
    </g>
    <!-- D0&#45;&gt;D4 -->
    <g
       id="edge9"
       class="edge">
      <title
         id="title2283">D0-&gt;D4</title>
      <path
         fill="none"
         stroke="black"
         d="M93,-359.7C93,-351.98 93,-342.71 93,-334.11"
         id="path2285" />
      <polygon
         fill="black"
         stroke="black"
         points="96.5,-334.1 93,-324.1 89.5,-334.1 96.5,-334.1"
         id="polygon2287" />
    </g>
    <!-- D1 -->
    <g
       id="node2"
       class="node">
      <title
         id="title2290">D1</title>
      <path
         fill="none"
         stroke="black"
         d="M299,-36C299,-36 269,-36 269,-36 263,-36 257,-30 257,-24 257,-24 257,-12 257,-12 257,-6 263,0 269,0 269,0 299,0 299,0 305,0 311,-6 311,-12 311,-12 311,-24 311,-24 311,-30 305,-36 299,-36"
         id="path2292" />
      <text
         text-anchor="middle"
         x="284"
         y="-14.3"
         font-family="Times,serif"
         font-size="14.00"
         id="text2294">end</text>
    </g>
    <!-- D9 -->
    <g
       id="node4"
       class="node">
      <title
         id="title2297">D9</title>
      <polygon
         fill="none"
         stroke="black"
         points="157,-108 23,-108 23,-72 157,-72 157,-108"
         id="polygon2299" />
      <text
         text-anchor="middle"
         x="90"
         y="-86.3"
         font-family="Times,serif"
         font-size="14.00"
         id="text2301">return INFEASIBLE;</text>
    </g>
    <!-- D4&#45;&gt;D9 -->
    <g
       id="edge2"
       class="edge">
      <title
         id="title2304">D4:s-&gt;D9:n</title>
      <path
         fill="none"
         stroke="black"
         d="M93,-288C93,-288 10,-252 10,-252 10,-252 10,-216 10,-216 10,-216 65.38,-141.23 83.99,-116.12"
         id="path2306" />
      <polygon
         fill="black"
         stroke="black"
         points="86.86,-118.12 90,-108 81.24,-113.95 86.86,-118.12"
         id="polygon2308" />
      <text
         text-anchor="middle"
         x="5"
         y="-220.89"
         font-family="Times,serif"
         font-size="14.00"
         id="text2310">Y</text>
    </g>
    <!-- D11 -->
    <g
       id="node5"
       class="node">
      <title
         id="title2313">D11</title>
      <polygon
         fill="none"
         stroke="black"
         points="284,-252 19.07,-234 284,-216 548.93,-234 284,-252"
         id="polygon2315" />
      <text
         text-anchor="middle"
         x="284"
         y="-230.3"
         font-family="Times,serif"
         font-size="14.00"
         id="text2317">(check_if_repeated_in_elems(definition) != OK)?</text>
    </g>
    <!-- D4&#45;&gt;D11 -->
    <g
       id="edge1"
       class="edge">
      <title
         id="title2320">D4:e-&gt;D11:n</title>
      <path
         fill="none"
         stroke="black"
         d="M183,-306C183,-306 250.32,-270.01 275.04,-256.79"
         id="path2322" />
      <polygon
         fill="black"
         stroke="black"
         points="276.83,-259.8 284,-252 273.53,-253.63 276.83,-259.8"
         id="polygon2324" />
      <text
         text-anchor="middle"
         x="224.02"
         y="-285.2"
         font-family="Times,serif"
         font-size="14.00"
         id="text2326">N</text>
    </g>
    <!-- D9&#45;&gt;D1 -->
    <g
       id="edge3"
       class="edge">
      <title
         id="title2329">D9-&gt;D1</title>
      <path
         fill="none"
         stroke="black"
         d="M137.46,-71.88C171.27,-59.68 216.05,-43.52 247.17,-32.29"
         id="path2331" />
      <polygon
         fill="black"
         stroke="black"
         points="248.55,-35.51 256.76,-28.83 246.17,-28.93 248.55,-35.51"
         id="polygon2333" />
    </g>
    <!-- D16 -->
    <g
       id="node6"
       class="node">
      <title
         id="title2336">D16</title>
      <polygon
         fill="none"
         stroke="black"
         points="334.5,-180 233.5,-180 233.5,-144 334.5,-144 334.5,-180"
         id="polygon2338" />
      <text
         text-anchor="middle"
         x="284"
         y="-158.3"
         font-family="Times,serif"
         font-size="14.00"
         id="text2340">return ERROR;</text>
    </g>
    <!-- D11&#45;&gt;D16 -->
    <g
       id="edge5"
       class="edge">
      <title
         id="title2343">D11:s-&gt;D16:n</title>
      <path
         fill="none"
         stroke="black"
         d="M284,-216C284,-216 284,-200.86 284,-190.22"
         id="path2345" />
      <polygon
         fill="black"
         stroke="black"
         points="287.5,-190 284,-180 280.5,-190 287.5,-190"
         id="polygon2347" />
      <text
         text-anchor="middle"
         x="279"
         y="-191.91"
         font-family="Times,serif"
         font-size="14.00"
         id="text2349">Y</text>
    </g>
    <!-- D18 -->
    <g
       id="node7"
       class="node">
      <title
         id="title2352">D18</title>
      <polygon
         fill="none"
         stroke="black"
         points="653,-180 383,-180 383,-144 653,-144 653,-180"
         id="polygon2354" />
      <text
         text-anchor="middle"
         x="518"
         y="-158.3"
         font-family="Times,serif"
         font-size="14.00"
         id="text2356">create_binary_tree_by_preorder(T, definition);</text>
    </g>
    <!-- D11&#45;&gt;D18 -->
    <g
       id="edge4"
       class="edge">
      <title
         id="title2359">D11:e-&gt;D18:n</title>
      <path
         fill="none"
         stroke="black"
         d="M550,-234C550,-234 549,-216 549,-216 549,-216 533.67,-198.2 524.57,-187.63"
         id="path2361" />
      <polygon
         fill="black"
         stroke="black"
         points="527.18,-185.29 518,-180 521.87,-189.86 527.18,-185.29"
         id="polygon2363" />
      <text
         text-anchor="middle"
         x="537.67"
         y="-197.45"
         font-family="Times,serif"
         font-size="14.00"
         id="text2365">N</text>
    </g>
    <!-- D16&#45;&gt;D1 -->
    <g
       id="edge6"
       class="edge">
      <title
         id="title2368">D16-&gt;D1</title>
      <path
         fill="none"
         stroke="black"
         d="M284,-143.87C284,-119.67 284,-75.21 284,-46.39"
         id="path2370" />
      <polygon
         fill="black"
         stroke="black"
         points="287.5,-46.19 284,-36.19 280.5,-46.19 287.5,-46.19"
         id="polygon2372" />
    </g>
    <!-- D20 -->
    <g
       id="node8"
       class="node">
      <title
         id="title2375">D20</title>
      <polygon
         fill="none"
         stroke="black"
         points="472,-108 396,-108 396,-72 472,-72 472,-108"
         id="polygon2377" />
      <text
         text-anchor="middle"
         x="434"
         y="-86.3"
         font-family="Times,serif"
         font-size="14.00"
         id="text2379">return OK;</text>
    </g>
    <!-- D18&#45;&gt;D20 -->
    <g
       id="edge7"
       class="edge">
      <title
         id="title2382">D18-&gt;D20</title>
      <path
         fill="none"
         stroke="black"
         d="M497.24,-143.7C486.76,-134.97 473.89,-124.24 462.5,-114.75"
         id="path2384" />
      <polygon
         fill="black"
         stroke="black"
         points="464.45,-111.82 454.53,-108.1 459.97,-117.19 464.45,-111.82"
         id="polygon2386" />
    </g>
    <!-- D20&#45;&gt;D1 -->
    <g
       id="edge8"
       class="edge">
      <title
         id="title2389">D20-&gt;D1</title>
      <path
         fill="none"
         stroke="black"
         d="M397.31,-71.88C373.98,-60.99 343.9,-46.95 320.59,-36.07"
         id="path2391" />
      <polygon
         fill="black"
         stroke="black"
         points="321.92,-32.83 311.38,-31.78 318.96,-39.18 321.92,-32.83"
         id="polygon2393" />
    </g>
  </g>
</svg>
