<?xml version="1.0" encoding="UTF-8" standalone="no"?>
<!-- Generated by graphviz version 3.0.0 (20220226.1711)
 -->

<!-- Pages: 1 -->

<svg
   width="800pt"
   height="622pt"
   viewBox="0.00 0.00 800.38 622.00"
   version="1.1"
   id="svg1831"
   sodipodi:docname="create_binary_tree_by_preorder.svg"
   inkscape:version="1.2 (dc2aeda, 2022-05-15)"
   inkscape:export-filename="create_binary_tree_by_preorder.png"
   inkscape:export-xdpi="96"
   inkscape:export-ydpi="96"
   xmlns:inkscape="http://www.inkscape.org/namespaces/inkscape"
   xmlns:sodipodi="http://sodipodi.sourceforge.net/DTD/sodipodi-0.dtd"
   xmlns="http://www.w3.org/2000/svg"
   xmlns:svg="http://www.w3.org/2000/svg">
  <defs
     id="defs1835" />
  <sodipodi:namedview
     id="namedview1833"
     pagecolor="#ffffff"
     bordercolor="#666666"
     borderopacity="1.0"
     inkscape:showpageshadow="2"
     inkscape:pageopacity="0.0"
     inkscape:pagecheckerboard="0"
     inkscape:deskcolor="#d1d1d1"
     inkscape:document-units="pt"
     showgrid="false"
     inkscape:zoom="0.59488399"
     inkscape:cx="362.2555"
     inkscape:cy="372.3415"
     inkscape:window-width="1440"
     inkscape:window-height="751"
     inkscape:window-x="0"
     inkscape:window-y="25"
     inkscape:window-maximized="0"
     inkscape:current-layer="graph0" />
  <g
     id="graph0"
     class="graph"
     transform="scale(1 1) rotate(0) translate(4 618)">
    <polygon
       fill="white"
       stroke="transparent"
       points="-4,4 -4,-618 796.38,-618 796.38,4 -4,4"
       id="polygon1604" />
    <!-- D0 -->
    <g
       id="node1"
       class="node">
      <title
         id="title1606">D0</title>
      <path
         fill="none"
         stroke="black"
         d="M124.38,-614C124.38,-614 94.38,-614 94.38,-614 88.38,-614 82.38,-608 82.38,-602 82.38,-602 82.38,-590 82.38,-590 82.38,-584 88.38,-578 94.38,-578 94.38,-578 124.38,-578 124.38,-578 130.38,-578 136.38,-584 136.38,-590 136.38,-590 136.38,-602 136.38,-602 136.38,-608 130.38,-614 124.38,-614"
         id="path1608" />
      <text
         text-anchor="middle"
         x="109.38"
         y="-592.3"
         font-family="Times,serif"
         font-size="14.00"
         id="text1610">begin</text>
    </g>
    <!-- D4 -->
    <g
       id="node3"
       class="node">
      <title
         id="title1613">D4</title>
      <polygon
         fill="none"
         stroke="black"
         points="109.38,-542 0.12,-524 109.38,-506 218.64,-524 109.38,-542"
         id="polygon1615" />
      <text
         text-anchor="middle"
         x="109.38"
         y="-520.3"
         font-family="Times,serif"
         font-size="14.00"
         id="text1617">(elem == NULL)?</text>
    </g>
    <!-- D0&#45;&gt;D4 -->
    <g
       id="edge16"
       class="edge">
      <title
         id="title1620">D0-&gt;D4</title>
      <path
         fill="none"
         stroke="black"
         d="M109.38,-577.7C109.38,-569.98 109.38,-560.71 109.38,-552.11"
         id="path1622" />
      <polygon
         fill="black"
         stroke="black"
         points="112.88,-552.1 109.38,-542.1 105.88,-552.1 112.88,-552.1"
         id="polygon1624" />
    </g>
    <!-- D1 -->
    <g
       id="node2"
       class="node">
      <title
         id="title1627">D1</title>
      <path
         fill="none"
         stroke="black"
         d="M323.38,-36C323.38,-36 293.38,-36 293.38,-36 287.38,-36 281.38,-30 281.38,-24 281.38,-24 281.38,-12 281.38,-12 281.38,-6 287.38,0 293.38,0 293.38,0 323.38,0 323.38,0 329.38,0 335.38,-6 335.38,-12 335.38,-12 335.38,-24 335.38,-24 335.38,-30 329.38,-36 323.38,-36"
         id="path1629" />
      <text
         text-anchor="middle"
         x="308.38"
         y="-14.3"
         font-family="Times,serif"
         font-size="14.00"
         id="text1631">end</text>
    </g>
    <!-- D9 -->
    <g
       id="node4"
       class="node">
      <title
         id="title1634">D9</title>
      <polygon
         fill="none"
         stroke="black"
         points="171.38,-108 79.38,-108 79.38,-72 171.38,-72 171.38,-108"
         id="polygon1636" />
      <text
         text-anchor="middle"
         x="125.38"
         y="-86.3"
         font-family="Times,serif"
         font-size="14.00"
         id="text1638">return NULL;</text>
    </g>
    <!-- D4&#45;&gt;D9 -->
    <g
       id="edge2"
       class="edge">
      <title
         id="title1641">D4:s-&gt;D9:n</title>
      <path
         fill="none"
         stroke="#000000"
         d="m 109.38,-506 -64.784783,0.0734 -0.215217,230.71456 77.10209,0.6651 0.30525,157.81691"
         id="path1643"
         sodipodi:nodetypes="ccccc" />
      <polygon
         fill="#000000"
         stroke="#000000"
         points="117.05,-114.55 122.95,-118.31 125.38,-108 "
         id="polygon1645"
         transform="rotate(30.823652,125.85115,-115.07754)" />
      <text
         text-anchor="middle"
         x="39.38"
         y="-316.37"
         font-family="Times,serif"
         font-size="14.00"
         id="text1647">Y</text>
    </g>
    <!-- D11 -->
    <g
       id="node5"
       class="node">
      <title
         id="title1650">D11</title>
      <polygon
         fill="none"
         stroke="black"
         points="283.38,-470 72.07,-452 283.38,-434 494.69,-452 283.38,-470"
         id="polygon1652" />
      <text
         text-anchor="middle"
         x="283.38"
         y="-448.3"
         font-family="Times,serif"
         font-size="14.00"
         id="text1654">(elem-&gt;key == 0 || elem-&gt;key == -1)?</text>
    </g>
    <!-- D4&#45;&gt;D11 -->
    <g
       id="edge1"
       class="edge">
      <title
         id="title1657">D4:e-&gt;D11:n</title>
      <path
         fill="none"
         stroke="#000000"
         d="m 215.97563,-523.99999 67.0579,-1.00896 -0.69478,49.52374"
         id="path1659"
         sodipodi:nodetypes="ccc" />
      <polygon
         fill="#000000"
         stroke="#000000"
         points="273.48,-473.77 277.99,-479.12 283.38,-470 "
         id="polygon1661"
         transform="rotate(47.623328,283.07734,-471.05007)" />
      <text
         text-anchor="middle"
         x="242.46"
         y="-504.11"
         font-family="Times,serif"
         font-size="14.00"
         id="text1663">N</text>
    </g>
    <!-- D9&#45;&gt;D1 -->
    <g
       id="edge3"
       class="edge">
      <title
         id="title1666">D9-&gt;D1</title>
      <path
         fill="none"
         stroke="black"
         d="M170.15,-71.88C201.42,-59.91 242.66,-44.14 271.93,-32.94"
         id="path1668" />
      <polygon
         fill="black"
         stroke="black"
         points="273.28,-36.17 281.37,-29.33 270.78,-29.64 273.28,-36.17"
         id="polygon1670" />
    </g>
    <!-- D16 -->
    <g
       id="node6"
       class="node">
      <title
         id="title1673">D16</title>
      <polygon
         fill="none"
         stroke="black"
         points="331.38,-398 233.38,-398 233.38,-362 331.38,-362 331.38,-398"
         id="polygon1675" />
      <text
         text-anchor="middle"
         x="282.38"
         y="-376.3"
         font-family="Times,serif"
         font-size="14.00"
         id="text1677">node = NULL;</text>
    </g>
    <!-- D11&#45;&gt;D16 -->
    <g
       id="edge5"
       class="edge">
      <title
         id="title1680">D11:s-&gt;D16:n</title>
      <path
         fill="none"
         stroke="black"
         d="M283.38,-434C283.38,-434 282.96,-418.86 282.66,-408.22"
         id="path1682" />
      <polygon
         fill="black"
         stroke="black"
         points="286.16,-407.9 282.38,-398 279.16,-408.09 286.16,-407.9"
         id="polygon1684" />
      <text
         text-anchor="middle"
         x="278.02"
         y="-409.91"
         font-family="Times,serif"
         font-size="14.00"
         id="text1686">Y</text>
    </g>
    <!-- D22 -->
    <g
       id="node8"
       class="node">
      <title
         id="title1689">D22</title>
      <polygon
         fill="none"
         stroke="black"
         points="629.38,-398 359.38,-398 359.38,-362 629.38,-362 629.38,-398"
         id="polygon1691" />
      <text
         text-anchor="middle"
         x="494.38"
         y="-376.3"
         font-family="Times,serif"
         font-size="14.00"
         id="text1693">node = (BiTNode *)malloc(sizeof(BiTNode));</text>
    </g>
    <!-- D11&#45;&gt;D22 -->
    <g
       id="edge8"
       class="edge">
      <title
         id="title1696">D11:e-&gt;D22:n</title>
      <path
         fill="none"
         stroke="black"
         d="M495.38,-452C495.38,-452 494.86,-424.1 494.57,-408.41"
         id="path1698" />
      <polygon
         fill="black"
         stroke="black"
         points="498.06,-407.93 494.38,-398 491.07,-408.06 498.06,-407.93"
         id="polygon1700" />
      <text
         text-anchor="middle"
         x="489.98"
         y="-419.01"
         font-family="Times,serif"
         font-size="14.00"
         id="text1702">N</text>
    </g>
    <!-- D18 -->
    <g
       id="node7"
       class="node">
      <title
         id="title1705">D18</title>
      <polygon
         fill="none"
         stroke="black"
         points="321.88,-326 238.88,-326 238.88,-290 321.88,-290 321.88,-326"
         id="polygon1707" />
      <text
         text-anchor="middle"
         x="280.38"
         y="-304.3"
         font-family="Times,serif"
         font-size="14.00"
         id="text1709">return elem;</text>
    </g>
    <!-- D16&#45;&gt;D18 -->
    <g
       id="edge4"
       class="edge">
      <title
         id="title1712">D16-&gt;D18</title>
      <path
         fill="none"
         stroke="black"
         d="M281.89,-361.7C281.66,-353.98 281.4,-344.71 281.15,-336.11"
         id="path1714" />
      <polygon
         fill="black"
         stroke="black"
         points="284.65,-336 280.87,-326.1 277.66,-336.2 284.65,-336"
         id="polygon1716" />
    </g>
    <!-- D18&#45;&gt;D1 -->
    <g
       id="edge7"
       class="edge">
      <title
         id="title1719">D18-&gt;D1</title>
      <path
         fill="none"
         stroke="#000000"
         d="m 294.77216,-289.85 0.5688,244.96656"
         id="path1721"
         sodipodi:nodetypes="cc" />
      <polygon
         fill="#000000"
         stroke="#000000"
         points="306.72,-36.06 302.27,-45.68 309.24,-46.36 "
         id="polygon1723"
         transform="translate(-10.424805,-0.41699219)" />
    </g>
    <!-- D24 -->
    <g
       id="node9"
       class="node">
      <title
         id="title1726">D24</title>
      <polygon
         fill="none"
         stroke="black"
         points="494.38,-326 385.96,-308 494.38,-290 602.8,-308 494.38,-326"
         id="polygon1728" />
      <text
         text-anchor="middle"
         x="494.38"
         y="-304.3"
         font-family="Times,serif"
         font-size="14.00"
         id="text1730">(node == NULL)?</text>
    </g>
    <!-- D22&#45;&gt;D24 -->
    <g
       id="edge6"
       class="edge">
      <title
         id="title1733">D22-&gt;D24</title>
      <path
         fill="none"
         stroke="black"
         d="M494.38,-361.7C494.38,-353.98 494.38,-344.71 494.38,-336.11"
         id="path1735" />
      <polygon
         fill="black"
         stroke="black"
         points="497.88,-336.1 494.38,-326.1 490.88,-336.1 497.88,-336.1"
         id="polygon1737" />
    </g>
    <!-- D29 -->
    <g
       id="node10"
       class="node">
      <title
         id="title1740">D29</title>
      <polygon
         fill="none"
         stroke="black"
         points="520.38,-254 308.38,-254 308.38,-218 520.38,-218 520.38,-254"
         id="polygon1742" />
      <text
         text-anchor="middle"
         x="414.38"
         y="-232.3"
         font-family="Times,serif"
         font-size="14.00"
         id="text1744">perror(&quot;memory allocation failed&quot;);</text>
    </g>
    <!-- D24&#45;&gt;D29 -->
    <g
       id="edge10"
       class="edge">
      <title
         id="title1747">D24:s-&gt;D29:n</title>
      <path
         fill="none"
         stroke="black"
         d="M494.38,-290C494.38,-290 444.57,-267.59 423.56,-258.13"
         id="path1749" />
      <polygon
         fill="black"
         stroke="black"
         points="424.94,-254.91 414.38,-254 422.06,-261.3 424.94,-254.91"
         id="polygon1751" />
      <text
         text-anchor="middle"
         x="453.97"
         y="-277.86"
         font-family="Times,serif"
         font-size="14.00"
         id="text1753">Y</text>
    </g>
    <!-- D33 -->
    <g
       id="node12"
       class="node">
      <title
         id="title1756">D33</title>
      <polygon
         fill="none"
         stroke="black"
         points="669.88,-254 538.88,-254 538.88,-218 669.88,-218 669.88,-254"
         id="polygon1758" />
      <text
         text-anchor="middle"
         x="604.38"
         y="-232.3"
         font-family="Times,serif"
         font-size="14.00"
         id="text1760">node-&gt;data = *elem;</text>
    </g>
    <!-- D24&#45;&gt;D33 -->
    <g
       id="edge9"
       class="edge">
      <title
         id="title1763">D24:e-&gt;D33:n</title>
      <path
         fill="none"
         stroke="black"
         d="M604.38,-308C604.38,-308 604.38,-280.1 604.38,-264.41"
         id="path1765" />
      <polygon
         fill="black"
         stroke="black"
         points="607.88,-264 604.38,-254 600.88,-264 607.88,-264"
         id="polygon1767" />
      <text
         text-anchor="middle"
         x="599.38"
         y="-275.01"
         font-family="Times,serif"
         font-size="14.00"
         id="text1769">N</text>
    </g>
    <!-- D31 -->
    <g
       id="node11"
       class="node">
      <title
         id="title1772">D31</title>
      <polygon
         fill="none"
         stroke="black"
         points="400.38,-181 308.38,-181 308.38,-145 400.38,-145 400.38,-181"
         id="polygon1774" />
      <text
         text-anchor="middle"
         x="354.38"
         y="-159.3"
         font-family="Times,serif"
         font-size="14.00"
         id="text1776">return NULL;</text>
    </g>
    <!-- D29&#45;&gt;D31 -->
    <g
       id="edge13"
       class="edge">
      <title
         id="title1779">D29-&gt;D31</title>
      <path
         fill="none"
         stroke="black"
         d="M399.86,-217.81C392.49,-209.09 383.4,-198.34 375.29,-188.75"
         id="path1781" />
      <polygon
         fill="black"
         stroke="black"
         points="377.9,-186.41 368.77,-181.03 372.55,-190.93 377.9,-186.41"
         id="polygon1783" />
    </g>
    <!-- D31&#45;&gt;D1 -->
    <g
       id="edge12"
       class="edge">
      <title
         id="title1786">D31-&gt;D1</title>
      <path
         fill="none"
         stroke="black"
         d="M348.83,-144.75C340.96,-120.27 326.46,-75.21 317.13,-46.2"
         id="path1788" />
      <polygon
         fill="black"
         stroke="black"
         points="320.34,-44.76 313.95,-36.31 313.68,-46.9 320.34,-44.76"
         id="polygon1790" />
    </g>
    <!-- D35 -->
    <g
       id="node13"
       class="node">
      <title
         id="title1793">D35</title>
      <polygon
         fill="none"
         stroke="black"
         points="792.38,-182 418.38,-182 418.38,-144 792.38,-144 792.38,-182"
         id="polygon1795" />
      <text
         text-anchor="middle"
         x="605.38"
         y="-166.8"
         font-family="Times,serif"
         font-size="14.00"
         id="text1797">TElemType *rightest =</text>
      <text
         text-anchor="middle"
         x="605.38"
         y="-151.8"
         font-family="Times,serif"
         font-size="14.00"
         id="text1799">            create_binary_tree_by_preorder(node-&gt;lchild, elem + 1);</text>
    </g>
    <!-- D33&#45;&gt;D35 -->
    <g
       id="edge11"
       class="edge">
      <title
         id="title1802">D33-&gt;D35</title>
      <path
         fill="none"
         stroke="black"
         d="M604.62,-217.81C604.73,-210.11 604.86,-200.82 604.98,-192.15"
         id="path1804" />
      <polygon
         fill="black"
         stroke="black"
         points="608.48,-192.07 605.13,-182.02 601.49,-191.97 608.48,-192.07"
         id="polygon1806" />
    </g>
    <!-- D37 -->
    <g
       id="node14"
       class="node">
      <title
         id="title1809">D37</title>
      <polygon
         fill="none"
         stroke="black"
         points="769.38,-108 389.38,-108 389.38,-72 769.38,-72 769.38,-108"
         id="polygon1811" />
      <text
         text-anchor="middle"
         x="579.38"
         y="-86.3"
         font-family="Times,serif"
         font-size="14.00"
         id="text1813">return create_binary_tree_by_preorder(node-&gt;rchild, rightest + 1);</text>
    </g>
    <!-- D35&#45;&gt;D37 -->
    <g
       id="edge14"
       class="edge">
      <title
         id="title1816">D35-&gt;D37</title>
      <path
         fill="none"
         stroke="black"
         d="M598.68,-143.72C595.75,-135.72 592.26,-126.18 589.06,-117.42"
         id="path1818" />
      <polygon
         fill="black"
         stroke="black"
         points="592.33,-116.19 585.61,-108 585.76,-118.6 592.33,-116.19"
         id="polygon1820" />
    </g>
    <!-- D37&#45;&gt;D1 -->
    <g
       id="edge15"
       class="edge">
      <title
         id="title1823">D37-&gt;D1</title>
      <path
         fill="none"
         stroke="black"
         d="M513.43,-71.97C460.64,-58.33 388.51,-39.7 345.37,-28.55"
         id="path1825" />
      <polygon
         fill="black"
         stroke="black"
         points="346.14,-25.14 335.58,-26.03 344.39,-31.92 346.14,-25.14"
         id="polygon1827" />
    </g>
  </g>
</svg>
