<?xml version="1.0" encoding="UTF-8" standalone="no"?>
<!-- Generated by graphviz version 3.0.0 (20220226.1711)
 -->

<!-- Pages: 1 -->

<svg
   width="1450pt"
   height="1600pt"
   viewBox="0 0 1449.7482 1600"
   version="1.1"
   id="svg4318"
   sodipodi:docname="delete_node.svg"
   inkscape:export-filename="delete_node.png"
   inkscape:export-xdpi="96"
   inkscape:export-ydpi="96"
   inkscape:version="1.2 (dc2aeda, 2022-05-15)"
   xmlns:inkscape="http://www.inkscape.org/namespaces/inkscape"
   xmlns:sodipodi="http://sodipodi.sourceforge.net/DTD/sodipodi-0.dtd"
   xmlns="http://www.w3.org/2000/svg"
   xmlns:svg="http://www.w3.org/2000/svg">
  <defs
     id="defs4322" />
  <sodipodi:namedview
     id="namedview4320"
     pagecolor="#ffffff"
     bordercolor="#666666"
     borderopacity="1.0"
     inkscape:showpageshadow="2"
     inkscape:pageopacity="0.0"
     inkscape:pagecheckerboard="0"
     inkscape:deskcolor="#d1d1d1"
     inkscape:document-units="pt"
     showgrid="false"
     inkscape:zoom="0.43356367"
     inkscape:cx="113.01685"
     inkscape:cy="339.05055"
     inkscape:window-width="1313"
     inkscape:window-height="734"
     inkscape:window-x="0"
     inkscape:window-y="25"
     inkscape:window-maximized="0"
     inkscape:current-layer="edge1" />
  <g
     id="graph0"
     class="graph"
     transform="translate(4,963)">
    <!-- D0 -->
    <g
       id="node1"
       class="node">
      <title
         id="title3823">D0</title>
      <path
         fill="none"
         stroke="#000000"
         d="m 431.21,-959 c 0,0 -30,0 -30,0 -6,0 -12,6 -12,12 0,0 0,12 0,12 0,6 6,12 12,12 0,0 30,0 30,0 6,0 12,-6 12,-12 0,0 0,-12 0,-12 0,-6 -6,-12 -12,-12"
         id="path3825" />
      <text
         text-anchor="middle"
         x="416.20999"
         y="-937.29999"
         font-family="Times, serif"
         font-size="14px"
         id="text3827">begin</text>
    </g>
    <!-- D4 -->
    <g
       id="node3"
       class="node">
      <title
         id="title3830">D4</title>
      <polygon
         fill="none"
         stroke="#000000"
         points="416.21,-851 546.76,-869 416.21,-887 285.67,-869 "
         id="polygon3832" />
      <text
         text-anchor="middle"
         x="416.20999"
         y="-865.29999"
         font-family="Times, serif"
         font-size="14px"
         id="text3834">(root-&gt;data.key == e)?</text>
    </g>
    <!-- D0&#45;&gt;D4 -->
    <g
       id="edge35"
       class="edge">
      <title
         id="title3837">D0-&gt;D4</title>
      <path
         fill="none"
         stroke="#000000"
         d="m 416.21,-922.7 c 0,7.72 0,16.99 0,25.59"
         id="path3839" />
      <polygon
         fill="#000000"
         stroke="#000000"
         points="419.71,-897.1 416.21,-887.1 412.71,-897.1 "
         id="polygon3841" />
    </g>
    <!-- D1 -->
    <g
       id="node2"
       class="node"
       transform="translate(84.578835,497.75293)">
      <title
         id="title3844">D1</title>
      <path
         fill="none"
         stroke="#000000"
         d="m 779.21,-36 c 0,0 -30,0 -30,0 -6,0 -12,6 -12,12 0,0 0,12 0,12 0,6 6,12 12,12 0,0 30,0 30,0 6,0 12,-6 12,-12 0,0 0,-12 0,-12 0,-6 -6,-12 -12,-12"
         id="path3846" />
      <text
         text-anchor="middle"
         x="764.21002"
         y="-14.3"
         font-family="Times, serif"
         font-size="14px"
         id="text3848">end</text>
    </g>
    <!-- D9 -->
    <g
       id="node4"
       class="node">
      <title
         id="title3851">D9</title>
      <polygon
         fill="none"
         stroke="#000000"
         points="304.71,-779 453.71,-779 453.71,-815 304.71,-815 "
         id="polygon3853" />
      <text
         text-anchor="middle"
         x="379.20999"
         y="-793.29999"
         font-family="Times, serif"
         font-size="14px"
         id="text3855">BiTNode *target = root;</text>
    </g>
    <!-- D4&#45;&gt;D9 -->
    <g
       id="edge17"
       class="edge">
      <title
         id="title3858">D4:s-&gt;D9:n</title>
      <path
         fill="none"
         stroke="#000000"
         d="m 416.21,-851 c 0,0 -18.7,18.2 -29.51,28.71"
         id="path3860" />
      <polygon
         fill="#000000"
         stroke="#000000"
         points="388.82,-819.47 379.21,-815 383.94,-824.48 "
         id="polygon3862" />
      <text
         text-anchor="middle"
         x="396.45999"
         y="-840.44"
         font-family="Times, serif"
         font-size="14px"
         id="text3864">Y</text>
    </g>
    <!-- D45 -->
    <g
       id="node17"
       class="node">
      <title
         id="title3867">D45</title>
      <polygon
         fill="none"
         stroke="#000000"
         points="481.71,-779 708.71,-779 708.71,-815 481.71,-815 "
         id="polygon3869" />
      <text
         text-anchor="middle"
         x="595.21002"
         y="-793.29999"
         font-family="Times, serif"
         font-size="14px"
         id="text3871">BiTNode *father = get_father(root, e);</text>
    </g>
    <!-- D4&#45;&gt;D45 -->
    <g
       id="edge18"
       class="edge">
      <title
         id="title3874">D4:e-&gt;D45:n</title>
      <path
         fill="none"
         stroke="#000000"
         d="m 548.21,-869 c 0,0 27,31.01 40.07,46.03"
         id="path3876" />
      <polygon
         fill="#000000"
         stroke="#000000"
         points="591.29,-824.84 595.21,-815 586.01,-820.25 "
         id="polygon3878" />
      <text
         text-anchor="middle"
         x="563.25"
         y="-849.78003"
         font-family="Times, serif"
         font-size="14px"
         id="text3880">N</text>
    </g>
    <!-- D11 -->
    <g
       id="g1124"
       transform="translate(90.244999,497.6428)">
      <g
         id="g1093">
        <g
           id="g1083">
          <g
             id="g1074">
            <g
               id="g1066">
              <g
                 id="g890">
                <g
                   id="node5"
                   class="node">
                  <title
                     id="title3883">D11</title>
                  <polygon
                     fill="none"
                     stroke="#000000"
                     points="202.21,-654 -0.21,-636 202.21,-618 404.64,-636 "
                     id="polygon3885" />
                  <text
                     text-anchor="middle"
                     x="202.21001"
                     y="-632.29999"
                     font-family="Times, serif"
                     font-size="14px"
                     id="text3887">(!target-&gt;lchild &amp;&amp; !target-&gt;rchild)?</text>
                </g>
              </g>
            </g>
          </g>
        </g>
      </g>
    </g>
    <!-- D9&#45;&gt;D11 -->
    <g
       id="edge1"
       class="edge">
      <title
         id="title3890">D9-&gt;D11</title>
      <path
         fill="none"
         stroke="#000000"
         d="m 371.58476,-780.52132 -81.08623,624.26671"
         id="path3892"
         sodipodi:nodetypes="cc" />
      <polygon
         fill="#000000"
         stroke="#000000"
         points="229.23,-656.56 219.45,-652.48 224.55,-661.77 "
         id="polygon3894"
         transform="rotate(-33.72915,1073.0987,-520.50432)" />
    </g>
    <!-- D16 -->
    <g
       id="node6"
       class="node"
       transform="translate(90.244999,497.6428)">
      <title
         id="title3897">D16</title>
      <polygon
         fill="none"
         stroke="#000000"
         points="94.71,-562 13.71,-562 13.71,-526 94.71,-526 "
         id="polygon3899" />
      <text
         text-anchor="middle"
         x="54.209999"
         y="-540.29999"
         font-family="Times, serif"
         font-size="14px"
         id="text3901">free(target);</text>
    </g>
    <!-- D11&#45;&gt;D16 -->
    <g
       id="edge5"
       class="edge"
       transform="translate(90.244999,497.6428)">
      <title
         id="title3904">D11:s-&gt;D16:n</title>
      <path
         fill="none"
         stroke="#000000"
         d="m 202.21,-618 c 0,0 -98,36 -98,36 0,0 -25.83,9.82 -40.35,15.34"
         id="path3906" />
      <polygon
         fill="#000000"
         stroke="#000000"
         points="64.81,-563.28 54.21,-563 62.32,-569.82 "
         id="polygon3908" />
      <text
         text-anchor="middle"
         x="127.95"
         y="-596.35999"
         font-family="Times, serif"
         font-size="14px"
         id="text3910">Y</text>
    </g>
    <!-- D20 -->
    <g
       id="g1113"
       transform="translate(90.244999,497.6428)">
      <g
         id="g1059">
        <g
           id="g1040">
          <g
             id="g1022">
            <g
               id="g1005">
              <g
                 id="g989">
                <g
                   id="g974">
                  <g
                     id="g960">
                    <g
                       id="g947">
                      <g
                         id="g935">
                        <g
                           id="g924">
                          <g
                             id="g914">
                            <g
                               id="g905">
                              <g
                                 id="g897">
                                <g
                                   id="node8"
                                   class="node">
                                <title
                                   id="title3913">D20</title>
                                <polygon
                                   fill="none"
                                   stroke="#000000"
                                   points="404.21,-582 113.21,-544 404.21,-506 695.21,-544 "
                                   id="polygon3915" />
                                <text
                                   text-anchor="middle"
                                   x="404.20999"
                                   y="-547.79999"
                                   font-family="Times, serif"
                                   font-size="14px"
                                   id="text3917">((!target-&gt;lchild &amp;&amp; target-&gt;rchild) ||</text>
                                <text
                                   text-anchor="middle"
                                   x="404.20999"
                                   y="-532.79999"
                                   font-family="Times, serif"
                                   font-size="14px"
                                   id="text3919">                  (target-&gt;lchild &amp;&amp; !target-&gt;rchild))?</text>
                                </g>
                              </g>
                            </g>
                          </g>
                        </g>
                      </g>
                    </g>
                  </g>
                </g>
              </g>
            </g>
          </g>
        </g>
      </g>
    </g>
    <!-- D11&#45;&gt;D20 -->
    <g
       id="edge4"
       class="edge"
       transform="translate(90.244999,497.6428)">
      <title
         id="title3922">D11:e-&gt;D20:n</title>
      <path
         fill="none"
         stroke="#000000"
         d="m 405.21,-636 c 0,0 -0.51,27.9 -0.8,43.59"
         id="path3924" />
      <polygon
         fill="#000000"
         stroke="#000000"
         points="407.9,-591.93 404.21,-582 400.9,-592.06 "
         id="polygon3926" />
      <text
         text-anchor="middle"
         x="399.81"
         y="-603.01001"
         font-family="Times, serif"
         font-size="14px"
         id="text3928">N</text>
    </g>
    <!-- D18 -->
    <g
       id="node7"
       class="node"
       transform="translate(90.244999,497.6428)">
      <title
         id="title3931">D18</title>
      <polygon
         fill="none"
         stroke="#000000"
         points="381.21,-180 287.21,-180 287.21,-144 381.21,-144 "
         id="polygon3933" />
      <text
         text-anchor="middle"
         x="334.20999"
         y="-158.3"
         font-family="Times, serif"
         font-size="14px"
         id="text3935">root = NULL;</text>
    </g>
    <!-- D16&#45;&gt;D18 -->
    <g
       id="edge2"
       class="edge"
       transform="translate(90.244999,497.6428)">
      <title
         id="title3938">D16-&gt;D18</title>
      <path
         fill="none"
         stroke="#000000"
         d="m 62.31,-525.76 c 19.77,42.11 68.9,146.76 68.9,146.76 0,0 0,0 0,74 0,0 112.66,78.81 170.13,119"
         id="path3940" />
      <polygon
         fill="#000000"
         stroke="#000000"
         points="303.54,-188.73 309.73,-180.13 299.53,-182.99 "
         id="polygon3942" />
    </g>
    <!-- D81 -->
    <g
       id="node31"
       class="node"
       transform="translate(89.042964,500.04688)">
      <title
         id="title3945">D81</title>
      <polygon
         fill="none"
         stroke="#000000"
         points="802.21,-108 726.21,-108 726.21,-72 802.21,-72 "
         id="polygon3947" />
      <text
         text-anchor="middle"
         x="764.21002"
         y="-86.300003"
         font-family="Times, serif"
         font-size="14px"
         id="text3949">return OK;</text>
    </g>
    <!-- D18&#45;&gt;D81 -->
    <g
       id="edge3"
       class="edge"
       transform="translate(90.244999,497.6428)">
      <title
         id="title3952">D18-&gt;D81</title>
      <path
         fill="none"
         stroke="#000000"
         d="m 381.46,-153.31 c 82.41,13.42 251.56,40.95 334.6,54.47"
         id="path3954" />
      <polygon
         fill="#000000"
         stroke="#000000"
         points="716.68,-102.28 725.99,-97.22 715.56,-95.37 "
         id="polygon3956" />
    </g>
    <!-- D25 -->
    <g
       id="node9"
       class="node"
       transform="translate(7.2122146,497.6428)">
      <title
         id="title3959">D25</title>
      <polygon
         fill="none"
         stroke="#000000"
         points="561.71,-432 561.71,-470 232.71,-470 232.71,-432 "
         id="polygon3961" />
      <text
         text-anchor="middle"
         x="397.20999"
         y="-454.79999"
         font-family="Times, serif"
         font-size="14px"
         id="text3963">BiTNode *target_child =</text>
      <text
         text-anchor="middle"
         x="397.20999"
         y="-439.79999"
         font-family="Times, serif"
         font-size="14px"
         id="text3965">               target-&gt;lchild ? target-&gt;lchild : target-&gt;rchild;</text>
    </g>
    <!-- D20&#45;&gt;D25 -->
    <g
       id="edge10"
       class="edge"
       transform="translate(90.244999,497.6428)">
      <title
         id="title3968">D20:s-&gt;D25:n</title>
      <path
         fill="none"
         stroke="#000000"
         d="m 404.21,-506 c 0,0 -3.01,15.5 -5.08,26.16"
         id="path3970" />
      <polygon
         fill="#000000"
         stroke="#000000"
         points="402.56,-479.15 397.21,-470 395.69,-480.48 "
         id="polygon3972" />
      <text
         text-anchor="middle"
         x="396.67001"
         y="-481.72"
         font-family="Times, serif"
         font-size="14px"
         id="text3974">Y</text>
    </g>
    <!-- D33 -->
    <g
       id="node12"
       class="node"
       transform="translate(90.244999,497.6428)">
      <title
         id="title3977">D33</title>
      <polygon
         fill="none"
         stroke="#000000"
         points="816.21,-469 580.21,-469 580.21,-433 816.21,-433 "
         id="polygon3979" />
      <text
         text-anchor="middle"
         x="698.21002"
         y="-447.29999"
         font-family="Times, serif"
         font-size="14px"
         id="text3981">BiTNode *target_child = target-&gt;lchild;</text>
    </g>
    <!-- D20&#45;&gt;D33 -->
    <g
       id="edge11"
       class="edge"
       transform="translate(90.244999,497.6428)">
      <title
         id="title3984">D20:e-&gt;D33:n</title>
      <path
         fill="none"
         stroke="#000000"
         d="m 696.21,-544 c 0,0 1.18,43.38 1.73,63.71"
         id="path3986" />
      <polygon
         fill="#000000"
         stroke="#000000"
         points="701.44,-480.09 698.21,-470 694.45,-479.9 "
         id="polygon3988" />
      <text
         text-anchor="middle"
         x="702.08002"
         y="-515.94"
         font-family="Times, serif"
         font-size="14px"
         id="text3990">N</text>
    </g>
    <!-- D27 -->
    <g
       id="node10"
       class="node"
       transform="translate(90.244999,497.6428)">
      <title
         id="title3993">D27</title>
      <polygon
         fill="none"
         stroke="#000000"
         points="464.21,-396 342.21,-396 342.21,-360 464.21,-360 "
         id="polygon3995" />
      <text
         text-anchor="middle"
         x="403.20999"
         y="-374.29999"
         font-family="Times, serif"
         font-size="14px"
         id="text3997">root = target_child;</text>
    </g>
    <!-- D25&#45;&gt;D27 -->
    <g
       id="edge6"
       class="edge"
       transform="translate(90.244999,497.6428)">
      <title
         id="title4000">D25-&gt;D27</title>
      <path
         fill="none"
         stroke="#000000"
         d="m 398.76,-431.72 c 0.66,7.83 1.45,17.13 2.17,25.73"
         id="path4002" />
      <polygon
         fill="#000000"
         stroke="#000000"
         points="404.42,-406.26 401.78,-396 397.45,-405.67 "
         id="polygon4004" />
    </g>
    <!-- D29 -->
    <g
       id="node11"
       class="node"
       transform="translate(90.244999,497.6428)">
      <title
         id="title4007">D29</title>
      <polygon
         fill="none"
         stroke="#000000"
         points="496.71,-324 415.71,-324 415.71,-288 496.71,-288 "
         id="polygon4009" />
      <text
         text-anchor="middle"
         x="456.20999"
         y="-302.29999"
         font-family="Times, serif"
         font-size="14px"
         id="text4011">free(target);</text>
    </g>
    <!-- D27&#45;&gt;D29 -->
    <g
       id="edge7"
       class="edge"
       transform="translate(90.244999,497.6428)">
      <title
         id="title4014">D27-&gt;D29</title>
      <path
         fill="none"
         stroke="#000000"
         d="m 416.32,-359.7 c 6.29,8.31 13.94,18.42 20.86,27.56"
         id="path4016" />
      <polygon
         fill="#000000"
         stroke="#000000"
         points="440.02,-334.19 443.26,-324.1 434.44,-329.96 "
         id="polygon4018" />
    </g>
    <!-- D29&#45;&gt;D81 -->
    <g
       id="edge8"
       class="edge"
       transform="translate(90.244999,497.6428)">
      <title
         id="title4021">D29-&gt;D81</title>
      <path
         fill="none"
         stroke="#000000"
         d="m 473.98,-287.77 c 42.82,41.53 148.23,143.77 148.23,143.77 0,0 53.27,19.88 94.55,35.29"
         id="path4023" />
      <polygon
         fill="#000000"
         stroke="#000000"
         points="718.02,-111.98 726.16,-105.2 715.57,-105.42 "
         id="polygon4025" />
    </g>
    <!-- D35 -->
    <g
       id="node13"
       class="node"
       transform="translate(90.244999,497.6428)">
      <title
         id="title4028">D35</title>
      <polygon
         fill="none"
         stroke="#000000"
         points="835.71,-396 494.71,-396 494.71,-360 835.71,-360 "
         id="polygon4030" />
      <text
         text-anchor="middle"
         x="665.21002"
         y="-374.29999"
         font-family="Times, serif"
         font-size="14px"
         id="text4032">BiTNode *rightest_node = get_rightest_node(target_child);</text>
    </g>
    <!-- D33&#45;&gt;D35 -->
    <g
       id="edge9"
       class="edge"
       transform="translate(90.244999,497.6428)">
      <title
         id="title4035">D33-&gt;D35</title>
      <path
         fill="none"
         stroke="#000000"
         d="m 690.23,-432.81 c -3.85,8.28 -8.56,18.4 -12.84,27.62"
         id="path4037" />
      <polygon
         fill="#000000"
         stroke="#000000"
         points="680.52,-403.62 673.13,-396.03 674.17,-406.57 "
         id="polygon4039" />
    </g>
    <!-- D37 -->
    <g
       id="node14"
       class="node"
       transform="translate(90.244999,497.6428)">
      <title
         id="title4042">D37</title>
      <polygon
         fill="none"
         stroke="#000000"
         points="787.71,-324 558.71,-324 558.71,-288 787.71,-288 "
         id="polygon4044" />
      <text
         text-anchor="middle"
         x="673.21002"
         y="-302.29999"
         font-family="Times, serif"
         font-size="14px"
         id="text4046">rightest_node-&gt;rchild = target-&gt;rchild;</text>
    </g>
    <!-- D35&#45;&gt;D37 -->
    <g
       id="edge12"
       class="edge"
       transform="translate(90.244999,497.6428)">
      <title
         id="title4049">D35-&gt;D37</title>
      <path
         fill="none"
         stroke="#000000"
         d="m 667.19,-359.7 c 0.88,7.72 1.94,16.99 2.93,25.59"
         id="path4051" />
      <polygon
         fill="#000000"
         stroke="#000000"
         points="673.6,-334.44 671.26,-324.1 666.65,-333.64 "
         id="polygon4053" />
    </g>
    <!-- D39 -->
    <g
       id="node15"
       class="node"
       transform="translate(90.244999,497.6428)">
      <title
         id="title4056">D39</title>
      <polygon
         fill="none"
         stroke="#000000"
         points="717.71,-252 636.71,-252 636.71,-216 717.71,-216 "
         id="polygon4058" />
      <text
         text-anchor="middle"
         x="677.21002"
         y="-230.3"
         font-family="Times, serif"
         font-size="14px"
         id="text4060">free(target);</text>
    </g>
    <!-- D37&#45;&gt;D39 -->
    <g
       id="edge13"
       class="edge"
       transform="translate(90.244999,497.6428)">
      <title
         id="title4063">D37-&gt;D39</title>
      <path
         fill="none"
         stroke="#000000"
         d="m 674.2,-287.7 c 0.44,7.72 0.97,16.99 1.47,25.59"
         id="path4065" />
      <polygon
         fill="#000000"
         stroke="#000000"
         points="679.16,-262.29 676.24,-252.1 672.17,-261.89 "
         id="polygon4067" />
    </g>
    <!-- D41 -->
    <g
       id="node16"
       class="node"
       transform="translate(90.244999,497.6428)">
      <title
         id="title4070">D41</title>
      <polygon
         fill="none"
         stroke="#000000"
         points="753.21,-180 631.21,-180 631.21,-144 753.21,-144 "
         id="polygon4072" />
      <text
         text-anchor="middle"
         x="692.21002"
         y="-158.3"
         font-family="Times, serif"
         font-size="14px"
         id="text4074">root = target_child;</text>
    </g>
    <!-- D39&#45;&gt;D41 -->
    <g
       id="edge14"
       class="edge"
       transform="translate(90.244999,497.6428)">
      <title
         id="title4077">D39-&gt;D41</title>
      <path
         fill="none"
         stroke="#000000"
         d="m 680.92,-215.7 c 1.66,7.72 3.64,16.99 5.48,25.59"
         id="path4079" />
      <polygon
         fill="#000000"
         stroke="#000000"
         points="689.88,-190.62 688.55,-180.1 683.03,-189.15 "
         id="polygon4081" />
    </g>
    <!-- D41&#45;&gt;D81 -->
    <g
       id="edge15"
       class="edge"
       transform="translate(90.244999,497.6428)">
      <title
         id="title4084">D41-&gt;D81</title>
      <path
         fill="none"
         stroke="#000000"
         d="m 710.01,-143.7 c 8.81,8.56 19.59,19.04 29.21,28.4"
         id="path4086" />
      <polygon
         fill="#000000"
         stroke="#000000"
         points="741.89,-117.58 746.62,-108.1 737.01,-112.57 "
         id="polygon4088" />
    </g>
    <!-- D47 -->
    <g
       id="node18"
       class="node">
      <title
         id="title4091">D47</title>
      <polygon
         fill="none"
         stroke="#000000"
         points="466.71,-690 903.71,-690 903.71,-743 466.71,-743 "
         id="polygon4093" />
      <text
         text-anchor="middle"
         x="685.21002"
         y="-727.79999"
         font-family="Times, serif"
         font-size="14px"
         id="text4095">BiTNode **p_target = &amp;((father-&gt;lchild &amp;&amp; e == father-&gt;lchild-&gt;data.key)</text>
      <text
         text-anchor="middle"
         x="685.21002"
         y="-712.79999"
         font-family="Times, serif"
         font-size="14px"
         id="text4097">                                  ? father-&gt;lchild</text>
      <text
         text-anchor="middle"
         x="685.21002"
         y="-697.79999"
         font-family="Times, serif"
         font-size="14px"
         id="text4099">                                  : father-&gt;rchild);</text>
    </g>
    <!-- D45&#45;&gt;D47 -->
    <g
       id="edge16"
       class="edge">
      <title
         id="title4102">D45-&gt;D47</title>
      <path
         fill="none"
         stroke="#000000"
         d="m 614.74,-778.97 c 9.75,8.5 21.87,19.08 33.3,29.04"
         id="path4104" />
      <polygon
         fill="#000000"
         stroke="#000000"
         points="650.56,-752.37 655.8,-743.16 645.96,-747.09 "
         id="polygon4106" />
    </g>
    <!-- D49 -->
    <g
       id="node19"
       class="node"
       transform="translate(-145.45497,15.311049)">
      <title
         id="title4109">D49</title>
      <polygon
         fill="none"
         stroke="#000000"
         points="1019.77,-636 764.21,-654 508.66,-636 764.21,-618 "
         id="polygon4111" />
      <text
         text-anchor="middle"
         x="764.21002"
         y="-632.29999"
         font-family="Times, serif"
         font-size="14px"
         id="text4113">(!(*p_target)-&gt;lchild &amp;&amp; !(*p_target)-&gt;rchild)?</text>
    </g>
    <!-- D47&#45;&gt;D49 -->
    <g
       id="edge19"
       class="edge"
       transform="rotate(42.59877,666.17986,-806.96009)">
      <title
         id="title4116">D47-&gt;D49</title>
      <path
         fill="none"
         stroke="#000000"
         d="m 711.08,-689.8 c 9.66,9.6 20.56,20.43 29.96,29.77"
         id="path4118" />
      <polygon
         fill="#000000"
         stroke="#000000"
         points="738.64,-657.48 743.58,-662.44 748.2,-652.91 "
         id="polygon4120" />
    </g>
    <!-- D54 -->
    <g
       id="node20"
       class="node"
       transform="translate(-321.53203,13.397168)">
      <title
         id="title4123">D54</title>
      <polygon
         fill="none"
         stroke="#000000"
         points="814.71,-562 713.71,-562 713.71,-526 814.71,-526 "
         id="polygon4125" />
      <text
         text-anchor="middle"
         x="764.21002"
         y="-540.29999"
         font-family="Times, serif"
         font-size="14px"
         id="text4127">free(*p_target);</text>
    </g>
    <!-- D49&#45;&gt;D54 -->
    <g
       id="edge23"
       class="edge"
       transform="translate(-248.80455,19.138811)">
      <title
         id="title4130">D49:s-&gt;D54:n</title>
      <path
         fill="none"
         stroke="#000000"
         d="m 866.98491,-620.31823 -159.57157,-1.11368 0.38637,46.79643"
         id="path4132"
         sodipodi:nodetypes="ccc" />
      <polygon
         fill="#000000"
         stroke="#000000"
         points="767.71,-573 764.21,-563 760.71,-573 "
         id="polygon4134"
         transform="translate(-55.637545,-3.8637184)" />
      <text
         text-anchor="middle"
         x="759.21002"
         y="-599.34003"
         font-family="Times, serif"
         font-size="14px"
         id="text4136">Y</text>
    </g>
    <!-- D58 -->
    <g
       id="node22"
       class="node"
       transform="translate(-286.5303,13.106747)">
      <title
         id="title4139">D58</title>
      <polygon
         fill="none"
         stroke="#000000"
         points="1183.21,-582 833.21,-544 1183.21,-506 1533.21,-544 "
         id="polygon4141" />
      <text
         text-anchor="middle"
         x="1183.21"
         y="-547.79999"
         font-family="Times, serif"
         font-size="14px"
         id="text4143">((!(*p_target)-&gt;lchild &amp;&amp; (*p_target)-&gt;rchild) ||</text>
      <text
         text-anchor="middle"
         x="1183.21"
         y="-532.79999"
         font-family="Times, serif"
         font-size="14px"
         id="text4145">                  ((*p_target)-&gt;lchild &amp;&amp; !(*p_target)-&gt;rchild))?</text>
    </g>
    <!-- D49&#45;&gt;D58 -->
    <g
       id="edge22"
       class="edge"
       transform="translate(-145.45497,15.311049)">
      <title
         id="title4148">D49:e-&gt;D58:n</title>
      <path
         fill="none"
         stroke="#000000"
         d="m 1019.0056,-637.10215 27.8313,0.0916 -1.1164,51.79052"
         id="path4150"
         sodipodi:nodetypes="ccc" />
      <polygon
         fill="#000000"
         stroke="#000000"
         points="1172.62,-581.84 1174.83,-588.48 1183.21,-582 "
         id="polygon4152"
         transform="rotate(65.79176,1116.8655,-688.02623)"
         inkscape:transform-center-x="-29.325827"
         inkscape:transform-center-y="-0.46859984" />
      <text
         text-anchor="middle"
         x="1092.39"
         y="-614.40997"
         font-family="Times, serif"
         font-size="14px"
         id="text4154">N</text>
    </g>
    <!-- D56 -->
    <g
       id="node21"
       class="node"
       transform="translate(-321.53203,13.397168)">
      <title
         id="title4157">D56</title>
      <polygon
         fill="none"
         stroke="#000000"
         points="897.71,-252 774.71,-252 774.71,-216 897.71,-216 "
         id="polygon4159" />
      <text
         text-anchor="middle"
         x="836.21002"
         y="-230.3"
         font-family="Times, serif"
         font-size="14px"
         id="text4161">*p_target = NULL;</text>
    </g>
    <!-- D54&#45;&gt;D56 -->
    <g
       id="edge20"
       class="edge"
       transform="translate(-321.53203,13.397168)">
      <title
         id="title4164">D54-&gt;D56</title>
      <path
         fill="none"
         stroke="#000000"
         d="m 778.67,-525.7 c 18.04,21.59 46.54,55.7 46.54,55.7 0,0 20,74 20,74 0,0 0,36 0,36 0,0 -4.39,61.01 -7.04,97.78"
         id="path4166" />
      <polygon
         fill="#000000"
         stroke="#000000"
         points="834.67,-262.34 841.66,-261.84 837.45,-252.12 "
         id="polygon4168" />
    </g>
    <!-- D56&#45;&gt;D81 -->
    <g
       id="edge21"
       class="edge"
       transform="translate(-278.11725,17.382327)">
      <title
         id="title4171">D56-&gt;D81</title>
      <path
         fill="none"
         stroke="#000000"
         d="m 788.19105,-218.61458 -0.40366,93.45422 470.59821,2.12046 -0.7347,517.95577 -75.557,-0.76949"
         id="path4173"
         sodipodi:nodetypes="ccccc" />
    </g>
    <!-- D63 -->
    <g
       id="node23"
       class="node"
       transform="translate(-286.5303,13.106747)">
      <title
         id="title4178">D63</title>
      <polygon
         fill="none"
         stroke="#000000"
         points="1355.21,-470 939.21,-470 939.21,-432 1355.21,-432 "
         id="polygon4180" />
      <text
         text-anchor="middle"
         x="1147.21"
         y="-454.79999"
         font-family="Times, serif"
         font-size="14px"
         id="text4182">BiTNode *target_child =</text>
      <text
         text-anchor="middle"
         x="1147.21"
         y="-439.79999"
         font-family="Times, serif"
         font-size="14px"
         id="text4184">               (*p_target)-&gt;lchild ? (*p_target)-&gt;lchild : (*p_target)-&gt;rchild;</text>
    </g>
    <!-- D58&#45;&gt;D63 -->
    <g
       id="edge28"
       class="edge"
       transform="translate(-286.5303,13.106747)">
      <title
         id="title4187">D58:s-&gt;D63:n</title>
      <path
         fill="none"
         stroke="#000000"
         d="m 1183.21,-506 c 0,0 -18.19,18.2 -28.71,28.71"
         id="path4189" />
      <polygon
         fill="#000000"
         stroke="#000000"
         points="1151.81,-479.55 1156.76,-474.6 1147.21,-470 "
         id="polygon4191" />
      <text
         text-anchor="middle"
         x="1163.86"
         y="-495.44"
         font-family="Times, serif"
         font-size="14px"
         id="text4193">Y</text>
    </g>
    <!-- D71 -->
    <g
       id="node26"
       class="node"
       transform="translate(-286.5303,13.106747)">
      <title
         id="title4196">D71</title>
      <polygon
         fill="none"
         stroke="#000000"
         points="1662.71,-469 1397.71,-469 1397.71,-433 1662.71,-433 "
         id="polygon4198" />
      <text
         text-anchor="middle"
         x="1530.21"
         y="-447.29999"
         font-family="Times, serif"
         font-size="14px"
         id="text4200">BiTNode *target_child = (*p_target)-&gt;lchild;</text>
    </g>
    <!-- D58&#45;&gt;D71 -->
    <g
       id="edge29"
       class="edge"
       transform="translate(-286.5303,13.106747)">
      <title
         id="title4203">D58:e-&gt;D71:n</title>
      <path
         fill="none"
         stroke="#000000"
         d="m 1534.21,-544 c 0,0 -1,38 -1,38 0,0 -1.26,15.14 -2.14,25.78"
         id="path4205" />
      <polygon
         fill="#000000"
         stroke="#000000"
         points="1527.56,-480.26 1534.53,-479.67 1530.21,-470 "
         id="polygon4207" />
      <text
         text-anchor="middle"
         x="1538.37"
         y="-515.87"
         font-family="Times, serif"
         font-size="14px"
         id="text4209">N</text>
    </g>
    <!-- D65 -->
    <g
       id="node24"
       class="node"
       transform="translate(-286.5303,13.106747)">
      <title
         id="title4212">D65</title>
      <polygon
         fill="none"
         stroke="#000000"
         points="1095.71,-396 994.71,-396 994.71,-360 1095.71,-360 "
         id="polygon4214" />
      <text
         text-anchor="middle"
         x="1045.21"
         y="-374.29999"
         font-family="Times, serif"
         font-size="14px"
         id="text4216">free(*p_target);</text>
    </g>
    <!-- D63&#45;&gt;D65 -->
    <g
       id="edge24"
       class="edge"
       transform="translate(-286.5303,13.106747)">
      <title
         id="title4219">D63-&gt;D65</title>
      <path
         fill="none"
         stroke="#000000"
         d="m 1121.21,-431.9 c -13.1,9.12 -29.12,20.27 -43.07,29.98"
         id="path4221" />
      <polygon
         fill="#000000"
         stroke="#000000"
         points="1075.97,-404.68 1079.97,-398.93 1069.77,-396.09 "
         id="polygon4223" />
    </g>
    <!-- D67 -->
    <g
       id="node25"
       class="node"
       transform="translate(-286.5303,13.106747)">
      <title
         id="title4226">D67</title>
      <polygon
         fill="none"
         stroke="#000000"
         points="1100.21,-252 948.21,-252 948.21,-216 1100.21,-216 "
         id="polygon4228" />
      <text
         text-anchor="middle"
         x="1024.21"
         y="-230.3"
         font-family="Times, serif"
         font-size="14px"
         id="text4230">*p_target = target_child;</text>
    </g>
    <!-- D65&#45;&gt;D67 -->
    <g
       id="edge25"
       class="edge"
       transform="translate(-286.5303,13.106747)">
      <title
         id="title4233">D65-&gt;D67</title>
      <path
         fill="none"
         stroke="#000000"
         d="m 1042.68,-359.87 c -3.58,24.2 -10.15,68.66 -14.41,97.48"
         id="path4235" />
      <polygon
         fill="#000000"
         stroke="#000000"
         points="1024.76,-262.59 1031.68,-261.57 1026.76,-252.19 "
         id="polygon4237" />
    </g>
    <!-- D67&#45;&gt;D81 -->
    <g
       id="edge26"
       class="edge"
       transform="translate(-197.60962,21.956624)">
      <title
         id="title4240">D67-&gt;D81</title>
      <path
         fill="none"
         stroke="#000000"
         d="m 943.4476,-223.18887 0.24102,93.6514"
         id="path4242"
         sodipodi:nodetypes="cc" />
    </g>
    <!-- D73 -->
    <g
       id="node27"
       class="node"
       transform="translate(-286.5303,13.106747)">
      <title
         id="title4247">D73</title>
      <polygon
         fill="none"
         stroke="#000000"
         points="1577.71,-396 1236.71,-396 1236.71,-360 1577.71,-360 "
         id="polygon4249" />
      <text
         text-anchor="middle"
         x="1407.21"
         y="-374.29999"
         font-family="Times, serif"
         font-size="14px"
         id="text4251">BiTNode *rightest_node = get_rightest_node(target_child);</text>
    </g>
    <!-- D71&#45;&gt;D73 -->
    <g
       id="edge27"
       class="edge"
       transform="translate(-286.5303,13.106747)">
      <title
         id="title4254">D71-&gt;D73</title>
      <path
         fill="none"
         stroke="#000000"
         d="m 1500.75,-432.99 c -16.46,9.5 -37.17,21.45 -54.92,31.7"
         id="path4256" />
      <polygon
         fill="#000000"
         stroke="#000000"
         points="1443.77,-404.14 1447.27,-398.08 1436.86,-396.11 "
         id="polygon4258" />
    </g>
    <!-- D75 -->
    <g
       id="node28"
       class="node"
       transform="translate(-271.10019,10.902445)">
      <title
         id="title4261">D75</title>
      <polygon
         fill="none"
         stroke="#000000"
         points="1480.21,-324 1222.21,-324 1222.21,-288 1480.21,-288 "
         id="polygon4263" />
      <text
         text-anchor="middle"
         x="1351.21"
         y="-302.29999"
         font-family="Times, serif"
         font-size="14px"
         id="text4265">rightest_node-&gt;rchild = (*p_target)-&gt;rchild;</text>
    </g>
    <!-- D73&#45;&gt;D75 -->
    <g
       id="edge30"
       class="edge"
       transform="translate(-271.10019,10.902445)">
      <title
         id="title4268">D73-&gt;D75</title>
      <path
         fill="none"
         stroke="#000000"
         d="m 1393.37,-359.7 c -6.64,8.31 -14.73,18.42 -22.04,27.56"
         id="path4270" />
      <polygon
         fill="#000000"
         stroke="#000000"
         points="1368.41,-334.1 1373.88,-329.73 1364.9,-324.1 "
         id="polygon4272" />
    </g>
    <!-- D77 -->
    <g
       id="node29"
       class="node"
       transform="translate(-286.5303,13.106747)">
      <title
         id="title4275">D77</title>
      <polygon
         fill="none"
         stroke="#000000"
         points="1302.71,-252 1201.71,-252 1201.71,-216 1302.71,-216 "
         id="polygon4277" />
      <text
         text-anchor="middle"
         x="1252.21"
         y="-230.3"
         font-family="Times, serif"
         font-size="14px"
         id="text4279">free(*p_target);</text>
    </g>
    <!-- D75&#45;&gt;D77 -->
    <g
       id="edge31"
       class="edge"
       transform="translate(-286.5303,13.106747)">
      <title
         id="title4282">D75-&gt;D77</title>
      <path
         fill="none"
         stroke="#000000"
         d="m 1327,-287.88 c -12.71,8.99 -28.45,20.12 -42.21,29.85"
         id="path4284" />
      <polygon
         fill="#000000"
         stroke="#000000"
         points="1282.67,-260.82 1286.71,-255.11 1276.53,-252.19 "
         id="polygon4286" />
    </g>
    <!-- D79 -->
    <g
       id="node30"
       class="node"
       transform="translate(-286.5303,13.106747)">
      <title
         id="title4289">D79</title>
      <polygon
         fill="none"
         stroke="#000000"
         points="1201.21,-180 1049.21,-180 1049.21,-144 1201.21,-144 "
         id="polygon4291" />
      <text
         text-anchor="middle"
         x="1125.21"
         y="-158.3"
         font-family="Times, serif"
         font-size="14px"
         id="text4293">*p_target = target_child;</text>
    </g>
    <!-- D77&#45;&gt;D79 -->
    <g
       id="edge32"
       class="edge"
       transform="translate(-286.5303,13.106747)">
      <title
         id="title4296">D77-&gt;D79</title>
      <path
         fill="none"
         stroke="#000000"
         d="m 1221.15,-215.88 c -16.76,9.24 -37.64,20.75 -55.64,30.67"
         id="path4298" />
      <polygon
         fill="#000000"
         stroke="#000000"
         points="1163.47,-188.08 1166.85,-181.95 1156.4,-180.19 "
         id="polygon4300" />
    </g>
    <!-- D79&#45;&gt;D81 -->
    <g
       id="edge33"
       class="edge">
      <title
         id="title4303">D79-&gt;D81</title>
      <path
         fill="none"
         stroke="#000000"
         d="m 848.28393,-129.99569 -0.48737,20.69026"
         id="path4305"
         sodipodi:nodetypes="cc"
         style="stroke-width:1.05148" />
    </g>
    <!-- D81&#45;&gt;D1 -->
    <g
       id="edge34"
       class="edge"
       transform="translate(84.909042,497.78922)">
      <title
         id="title4310">D81-&gt;D1</title>
      <path
         fill="none"
         stroke="#000000"
         d="m 764.21,-71.7 c 0,7.72 0,16.99 0,25.59"
         id="path4312" />
      <polygon
         fill="#000000"
         stroke="#000000"
         points="760.71,-46.1 767.71,-46.1 764.21,-36.1 "
         id="polygon4314" />
    </g>
    <path
       sodipodi:type="star"
       style="fill:#000000;stroke-width:0.75"
       id="path1181"
       inkscape:flatsided="false"
       sodipodi:sides="3"
       sodipodi:cx="1206.3947"
       sodipodi:cy="1895.5886"
       sodipodi:r1="69.540009"
       sodipodi:r2="34.770004"
       sodipodi:arg1="0.37724906"
       sodipodi:arg2="1.4244466"
       inkscape:rounded="0"
       inkscape:randomized="0"
       d="m 1271.0447,1921.2047 -59.5796,8.7822 -59.5796,8.7823 22.1841,-55.9886 22.1842,-55.9886 37.3954,47.2063 z"
       transform="matrix(0.1135838,0.05540278,-0.09003642,0.06989236,934.08175,212.25868)"
       inkscape:transform-center-x="2.5184134"
       inkscape:transform-center-y="0.00097620296" />
  </g>
</svg>
