<?xml version="1.0" encoding="UTF-8" standalone="no"?>
<!-- Generated by graphviz version 3.0.0 (20220226.1711)
 -->

<!-- Pages: 1 -->

<svg
   width="528pt"
   height="692pt"
   viewBox="0.00 0.00 527.50 692.00"
   version="1.1"
   id="svg4760"
   sodipodi:docname="dfs.svg"
   inkscape:export-filename="dfs.png"
   inkscape:export-xdpi="96"
   inkscape:export-ydpi="96"
   inkscape:version="1.2 (dc2aeda, 2022-05-15)"
   xmlns:inkscape="http://www.inkscape.org/namespaces/inkscape"
   xmlns:sodipodi="http://sodipodi.sourceforge.net/DTD/sodipodi-0.dtd"
   xmlns="http://www.w3.org/2000/svg"
   xmlns:svg="http://www.w3.org/2000/svg">
  <defs
     id="defs4764" />
  <sodipodi:namedview
     id="namedview4762"
     pagecolor="#ffffff"
     bordercolor="#666666"
     borderopacity="1.0"
     inkscape:showpageshadow="2"
     inkscape:pageopacity="0.0"
     inkscape:pagecheckerboard="0"
     inkscape:deskcolor="#d1d1d1"
     inkscape:document-units="pt"
     showgrid="false"
     inkscape:zoom="0.54612299"
     inkscape:cx="-258.1836"
     inkscape:cy="444.95471"
     inkscape:window-width="1313"
     inkscape:window-height="700"
     inkscape:window-x="0"
     inkscape:window-y="25"
     inkscape:window-maximized="0"
     inkscape:current-layer="graph0" />
  <g
     id="graph0"
     class="graph"
     transform="scale(1 1) rotate(0) translate(4 688)">
    <polygon
       fill="white"
       stroke="transparent"
       points="-4,4 -4,-688 523.5,-688 523.5,4 -4,4"
       id="polygon4560" />
    <!-- D0 -->
    <g
       id="node1"
       class="node">
      <title
         id="title4562">D0</title>
      <path
         fill="none"
         stroke="black"
         d="M113,-684C113,-684 83,-684 83,-684 77,-684 71,-678 71,-672 71,-672 71,-660 71,-660 71,-654 77,-648 83,-648 83,-648 113,-648 113,-648 119,-648 125,-654 125,-660 125,-660 125,-672 125,-672 125,-678 119,-684 113,-684"
         id="path4564" />
      <text
         text-anchor="middle"
         x="98"
         y="-662.3"
         font-family="Times,serif"
         font-size="14.00"
         id="text4566">begin</text>
    </g>
    <!-- D4 -->
    <g
       id="node3"
       class="node">
      <title
         id="title4569">D4</title>
      <polygon
         fill="none"
         stroke="black"
         points="98,-612 41.02,-594 98,-576 154.98,-594 98,-612"
         id="polygon4571" />
      <text
         text-anchor="middle"
         x="98"
         y="-590.3"
         font-family="Times,serif"
         font-size="14.00"
         id="text4573">(!node)?</text>
    </g>
    <!-- D0&#45;&gt;D4 -->
    <g
       id="edge14"
       class="edge">
      <title
         id="title4576">D0-&gt;D4</title>
      <path
         fill="none"
         stroke="black"
         d="M98,-647.7C98,-639.98 98,-630.71 98,-622.11"
         id="path4578" />
      <polygon
         fill="black"
         stroke="black"
         points="101.5,-622.1 98,-612.1 94.5,-622.1 101.5,-622.1"
         id="polygon4580" />
    </g>
    <!-- D1 -->
    <g
       id="node2"
       class="node">
      <title
         id="title4583">D1</title>
      <path
         fill="none"
         stroke="black"
         d="M42,-36C42,-36 12,-36 12,-36 6,-36 0,-30 0,-24 0,-24 0,-12 0,-12 0,-6 6,0 12,0 12,0 42,0 42,0 48,0 54,-6 54,-12 54,-12 54,-24 54,-24 54,-30 48,-36 42,-36"
         id="path4585" />
      <text
         text-anchor="middle"
         x="27"
         y="-14.3"
         font-family="Times,serif"
         font-size="14.00"
         id="text4587">end</text>
    </g>
    <!-- D9 -->
    <g
       id="node4"
       class="node">
      <title
         id="title4590">D9</title>
      <polygon
         fill="none"
         stroke="black"
         points="70,-468 16,-468 16,-432 70,-432 70,-468"
         id="polygon4592" />
      <text
         text-anchor="middle"
         x="43"
         y="-446.3"
         font-family="Times,serif"
         font-size="14.00"
         id="text4594">return;</text>
    </g>
    <!-- D4&#45;&gt;D9 -->
    <g
       id="edge2"
       class="edge">
      <title
         id="title4597">D4:s-&gt;D9:n</title>
      <path
         fill="none"
         stroke="black"
         d="M98,-576C98,-576 60.99,-503.33 47.69,-477.21"
         id="path4599" />
      <polygon
         fill="black"
         stroke="black"
         points="50.66,-475.32 43,-468 44.42,-478.5 50.66,-475.32"
         id="polygon4601" />
      <text
         text-anchor="middle"
         x="67.84"
         y="-530.4"
         font-family="Times,serif"
         font-size="14.00"
         id="text4603">Y</text>
    </g>
    <!-- D11 -->
    <g
       id="node5"
       class="node">
      <title
         id="title4606">D11</title>
      <polygon
         fill="none"
         stroke="black"
         points="277,-540 115,-540 115,-504 277,-504 277,-540"
         id="polygon4608" />
      <text
         text-anchor="middle"
         x="196"
         y="-518.3"
         font-family="Times,serif"
         font-size="14.00"
         id="text4610">father[node][0] = fa_node;</text>
    </g>
    <!-- D4&#45;&gt;D11 -->
    <g
       id="edge1"
       class="edge">
      <title
         id="title4613">D4:e-&gt;D11:n</title>
      <path
         fill="none"
         stroke="black"
         d="M156,-594C156,-594 178.5,-563.62 189.75,-548.44"
         id="path4615" />
      <polygon
         fill="black"
         stroke="black"
         points="192.86,-550.12 196,-540 187.24,-545.95 192.86,-550.12"
         id="polygon4617" />
      <text
         text-anchor="middle"
         x="167.88"
         y="-575.02"
         font-family="Times,serif"
         font-size="14.00"
         id="text4619">N</text>
    </g>
    <!-- D9&#45;&gt;D1 -->
    <g
       id="edge3"
       class="edge">
      <title
         id="title4622">D9-&gt;D1</title>
      <path
         fill="none"
         stroke="black"
         d="M37.81,-431.87C26.38,-394.1 0,-307 0,-307 0,-307 0,-307 0,-161 0,-161 14.02,-87.29 21.85,-46.08"
         id="path4624" />
      <polygon
         fill="black"
         stroke="black"
         points="25.31,-46.61 23.74,-36.13 18.44,-45.3 25.31,-46.61"
         id="polygon4626" />
    </g>
    <!-- D13 -->
    <g
       id="node6"
       class="node">
      <title
         id="title4629">D13</title>
      <polygon
         fill="none"
         stroke="black"
         points="334.5,-468 89.5,-468 89.5,-432 334.5,-432 334.5,-468"
         id="polygon4631" />
      <text
         text-anchor="middle"
         x="212"
         y="-446.3"
         font-family="Times,serif"
         font-size="14.00"
         id="text4633">depth[node] = depth[father[node][0]] + 1;</text>
    </g>
    <!-- D11&#45;&gt;D13 -->
    <g
       id="edge4"
       class="edge">
      <title
         id="title4636">D11-&gt;D13</title>
      <path
         fill="none"
         stroke="black"
         d="M199.96,-503.7C201.72,-495.98 203.84,-486.71 205.8,-478.11"
         id="path4638" />
      <polygon
         fill="black"
         stroke="black"
         points="209.27,-478.63 208.09,-468.1 202.45,-477.07 209.27,-478.63"
         id="polygon4640" />
    </g>
    <!-- D18 -->
    <g
       id="node8"
       class="node">
      <title
         id="title4643">D18</title>
      <polygon
         fill="none"
         stroke="black"
         points="287.5,-396 222.5,-396 222.5,-360 287.5,-360 287.5,-396"
         id="polygon4645" />
      <text
         text-anchor="middle"
         x="255"
         y="-374.3"
         font-family="Times,serif"
         font-size="14.00"
         id="text4647">int i = 1;</text>
    </g>
    <!-- D13&#45;&gt;D18 -->
    <g
       id="edge5"
       class="edge">
      <title
         id="title4650">D13-&gt;D18</title>
      <path
         fill="none"
         stroke="black"
         d="M222.63,-431.7C227.63,-423.56 233.69,-413.69 239.21,-404.7"
         id="path4652" />
      <polygon
         fill="black"
         stroke="black"
         points="242.24,-406.46 244.49,-396.1 236.28,-402.79 242.24,-406.46"
         id="polygon4654" />
    </g>
    <!-- D17 -->
    <g
       id="node7"
       class="node">
      <title
         id="title4657">D17</title>
      <polygon
         fill="none"
         stroke="black"
         points="256,-324 204.55,-306 256,-288 307.45,-306 256,-324"
         id="polygon4659" />
      <text
         text-anchor="middle"
         x="256"
         y="-302.3"
         font-family="Times,serif"
         font-size="14.00"
         id="text4661">i &lt; 31?</text>
    </g>
    <!-- D22 -->
    <g
       id="node10"
       class="node">
      <title
         id="title4664">D22</title>
      <polygon
         fill="none"
         stroke="black"
         points="314,-252 28,-252 28,-216 314,-216 314,-252"
         id="polygon4666" />
      <text
         text-anchor="middle"
         x="171"
         y="-230.3"
         font-family="Times,serif"
         font-size="14.00"
         id="text4668">father[node][i] = father[father[node][i - 1]][i - 1];</text>
    </g>
    <!-- D17&#45;&gt;D22 -->
    <g
       id="edge11"
       class="edge">
      <title
         id="title4671">D17:s-&gt;D22:n</title>
      <path
         fill="none"
         stroke="black"
         d="M256,-288C256,-288 202.55,-265.36 180.42,-255.99"
         id="path4673" />
      <polygon
         fill="black"
         stroke="black"
         points="181.57,-252.68 171,-252 178.84,-259.12 181.57,-252.68"
         id="polygon4675" />
      <text
         text-anchor="middle"
         x="213.21"
         y="-275.8"
         font-family="Times,serif"
         font-size="14.00"
         id="text4677">Y</text>
    </g>
    <!-- D24 -->
    <g
       id="node11"
       class="node">
      <title
         id="title4680">D24</title>
      <polygon
         fill="none"
         stroke="black"
         points="519.5,-252 370.5,-252 370.5,-216 519.5,-216 519.5,-252"
         id="polygon4682" />
      <text
         text-anchor="middle"
         x="445"
         y="-230.3"
         font-family="Times,serif"
         font-size="14.00"
         id="text4684">dfs(node-&gt;lchild, node);</text>
    </g>
    <!-- D17&#45;&gt;D24 -->
    <g
       id="edge6"
       class="edge">
      <title
         id="title4687">D17:e-&gt;D24:n</title>
      <path
         fill="none"
         stroke="black"
         d="M309,-306C309,-306 404.93,-267.91 435.65,-255.71"
         id="path4689" />
      <polygon
         fill="black"
         stroke="black"
         points="437,-258.94 445,-252 434.41,-252.44 437,-258.94"
         id="polygon4691" />
      <text
         text-anchor="middle"
         x="367.33"
         y="-284.66"
         font-family="Times,serif"
         font-size="14.00"
         id="text4693">N</text>
    </g>
    <!-- D18&#45;&gt;D17 -->
    <g
       id="edge7"
       class="edge">
      <title
         id="title4696">D18-&gt;D17</title>
      <path
         fill="none"
         stroke="black"
         d="M255.25,-359.7C255.36,-351.98 255.49,-342.71 255.61,-334.11"
         id="path4698" />
      <polygon
         fill="black"
         stroke="black"
         points="259.11,-334.15 255.76,-324.1 252.11,-334.05 259.11,-334.15"
         id="polygon4700" />
    </g>
    <!-- D19 -->
    <g
       id="node9"
       class="node">
      <title
         id="title4703">D19</title>
      <polygon
         fill="none"
         stroke="black"
         points="236,-180 182,-180 182,-144 236,-144 236,-180"
         id="polygon4705" />
      <text
         text-anchor="middle"
         x="209"
         y="-158.3"
         font-family="Times,serif"
         font-size="14.00"
         id="text4707">++i</text>
    </g>
    <!-- D19&#45;&gt;D17 -->
    <g
       id="edge9"
       class="edge">
      <title
         id="title4710">D19-&gt;D17</title>
      <path
         fill="none"
         stroke="black"
         d="M236.02,-175.56C269.73,-191.23 323,-216 323,-216 323,-216 323,-252 323,-252 323,-252 298.48,-271.4 279.1,-286.72"
         id="path4712" />
      <polygon
         fill="black"
         stroke="black"
         points="276.87,-284.02 271.2,-292.97 281.22,-289.51 276.87,-284.02"
         id="polygon4714" />
    </g>
    <!-- D22&#45;&gt;D19 -->
    <g
       id="edge8"
       class="edge">
      <title
         id="title4717">D22-&gt;D19</title>
      <path
         fill="none"
         stroke="black"
         d="M180.39,-215.7C184.76,-207.64 190.06,-197.89 194.9,-188.98"
         id="path4719" />
      <polygon
         fill="black"
         stroke="black"
         points="198.02,-190.56 199.71,-180.1 191.87,-187.22 198.02,-190.56"
         id="polygon4721" />
    </g>
    <!-- D26 -->
    <g
       id="node12"
       class="node">
      <title
         id="title4724">D26</title>
      <polygon
         fill="none"
         stroke="black"
         points="481,-180 331,-180 331,-144 481,-144 481,-180"
         id="polygon4726" />
      <text
         text-anchor="middle"
         x="406"
         y="-158.3"
         font-family="Times,serif"
         font-size="14.00"
         id="text4728">dfs(node-&gt;rchild, node);</text>
    </g>
    <!-- D24&#45;&gt;D26 -->
    <g
       id="edge10"
       class="edge">
      <title
         id="title4731">D24-&gt;D26</title>
      <path
         fill="none"
         stroke="black"
         d="M435.36,-215.7C430.87,-207.64 425.44,-197.89 420.48,-188.98"
         id="path4733" />
      <polygon
         fill="black"
         stroke="black"
         points="423.45,-187.14 415.53,-180.1 417.34,-190.54 423.45,-187.14"
         id="polygon4735" />
    </g>
    <!-- D28 -->
    <g
       id="node13"
       class="node">
      <title
         id="title4738">D28</title>
      <polygon
         fill="none"
         stroke="black"
         points="238,-108 184,-108 184,-72 238,-72 238,-108"
         id="polygon4740" />
      <text
         text-anchor="middle"
         x="211"
         y="-86.3"
         font-family="Times,serif"
         font-size="14.00"
         id="text4742">return;</text>
    </g>
    <!-- D26&#45;&gt;D28 -->
    <g
       id="edge12"
       class="edge">
      <title
         id="title4745">D26-&gt;D28</title>
      <path
         fill="none"
         stroke="black"
         d="M358.3,-143.88C324.21,-131.64 279.03,-115.42 247.74,-104.19"
         id="path4747" />
      <polygon
         fill="black"
         stroke="black"
         points="248.69,-100.81 238.1,-100.73 246.33,-107.4 248.69,-100.81"
         id="polygon4749" />
    </g>
    <!-- D28&#45;&gt;D1 -->
    <g
       id="edge13"
       class="edge">
      <title
         id="title4752">D28-&gt;D1</title>
      <path
         fill="none"
         stroke="black"
         d="M183.85,-78.67C152.05,-66.57 99.22,-46.48 63.77,-32.99"
         id="path4754" />
      <polygon
         fill="black"
         stroke="black"
         points="64.85,-29.66 54.26,-29.37 62.36,-36.2 64.85,-29.66"
         id="polygon4756" />
    </g>
  </g>
</svg>
