<?xml version="1.0" encoding="UTF-8" standalone="no"?>
<!-- Generated by graphviz version 3.0.0 (20220226.1711)
 -->

<!-- Pages: 1 -->

<svg
   width="438pt"
   height="332pt"
   viewBox="0.00 0.00 437.50 332.00"
   version="1.1"
   id="svg277"
   sodipodi:docname="get_rightest_node.svg"
   inkscape:export-filename="get_rightest_node.png"
   inkscape:export-xdpi="67.904381"
   inkscape:export-ydpi="67.904381"
   inkscape:version="1.2 (dc2aeda, 2022-05-15)"
   xmlns:inkscape="http://www.inkscape.org/namespaces/inkscape"
   xmlns:sodipodi="http://sodipodi.sourceforge.net/DTD/sodipodi-0.dtd"
   xmlns="http://www.w3.org/2000/svg"
   xmlns:svg="http://www.w3.org/2000/svg">
  <defs
     id="defs281" />
  <sodipodi:namedview
     id="namedview279"
     pagecolor="#ffffff"
     bordercolor="#666666"
     borderopacity="1.0"
     inkscape:showpageshadow="2"
     inkscape:pageopacity="0.0"
     inkscape:pagecheckerboard="0"
     inkscape:deskcolor="#d1d1d1"
     inkscape:document-units="pt"
     showgrid="false"
     inkscape:zoom="1.0616643"
     inkscape:cx="310.36176"
     inkscape:cy="227.00208"
     inkscape:window-width="1440"
     inkscape:window-height="778"
     inkscape:window-x="0"
     inkscape:window-y="25"
     inkscape:window-maximized="1"
     inkscape:current-layer="svg277" />
  <g
     id="graph0"
     class="graph"
     transform="scale(1 1) rotate(0) translate(4 328)">
    <polygon
       fill="white"
       stroke="transparent"
       points="-4,4 -4,-328 433.5,-328 433.5,4 -4,4"
       id="polygon161" />
    <!-- D0 -->
    <g
       id="node1"
       class="node">
      <title
         id="title163">D0</title>
      <path
         fill="none"
         stroke="black"
         d="M184,-324C184,-324 154,-324 154,-324 148,-324 142,-318 142,-312 142,-312 142,-300 142,-300 142,-294 148,-288 154,-288 154,-288 184,-288 184,-288 190,-288 196,-294 196,-300 196,-300 196,-312 196,-312 196,-318 190,-324 184,-324"
         id="path165" />
      <text
         text-anchor="middle"
         x="169"
         y="-302.3"
         font-family="Times,serif"
         font-size="14.00"
         id="text167">begin</text>
    </g>
    <!-- D4 -->
    <g
       id="node3"
       class="node">
      <title
         id="title170">D4</title>
      <polygon
         fill="none"
         stroke="black"
         points="169,-252 92.92,-234 169,-216 245.08,-234 169,-252"
         id="polygon172" />
      <text
         text-anchor="middle"
         x="169"
         y="-230.3"
         font-family="Times,serif"
         font-size="14.00"
         id="text174">(T-&gt;rchild)?</text>
    </g>
    <!-- D0&#45;&gt;D4 -->
    <g
       id="edge8"
       class="edge">
      <title
         id="title177">D0-&gt;D4</title>
      <path
         fill="none"
         stroke="black"
         d="M169,-287.7C169,-279.98 169,-270.71 169,-262.11"
         id="path179" />
      <polygon
         fill="black"
         stroke="black"
         points="172.5,-262.1 169,-252.1 165.5,-262.1 172.5,-262.1"
         id="polygon181" />
    </g>
    <!-- D1 -->
    <g
       id="node2"
       class="node">
      <title
         id="title184">D1</title>
      <path
         fill="none"
         stroke="black"
         d="M257,-36C257,-36 227,-36 227,-36 221,-36 215,-30 215,-24 215,-24 215,-12 215,-12 215,-6 221,0 227,0 227,0 257,0 257,0 263,0 269,-6 269,-12 269,-12 269,-24 269,-24 269,-30 263,-36 257,-36"
         id="path186" />
      <text
         text-anchor="middle"
         x="242"
         y="-14.3"
         font-family="Times,serif"
         font-size="14.00"
         id="text188">end</text>
    </g>
    <!-- D9 -->
    <g
       id="node4"
       class="node">
      <title
         id="title191">D9</title>
      <polygon
         fill="none"
         stroke="black"
         points="214,-180 0,-180 0,-144 214,-144 214,-180"
         id="polygon193" />
      <text
         text-anchor="middle"
         x="107"
         y="-158.3"
         font-family="Times,serif"
         font-size="14.00"
         id="text195">return get_rightest_node(T-&gt;rchild);</text>
    </g>
    <!-- D4&#45;&gt;D9 -->
    <g
       id="edge2"
       class="edge">
      <title
         id="title198">D4:s-&gt;D9:n</title>
      <path
         fill="none"
         stroke="black"
         d="M169,-216C169,-216 133.03,-195.11 115.88,-185.16"
         id="path200" />
      <polygon
         fill="black"
         stroke="black"
         points="117.41,-181.99 107,-180 113.89,-188.05 117.41,-181.99"
         id="polygon202" />
      <text
         text-anchor="middle"
         x="137.44"
         y="-204.38"
         font-family="Times,serif"
         font-size="14.00"
         id="text204">Y</text>
    </g>
    <!-- D11 -->
    <g
       id="node5"
       class="node">
      <title
         id="title207">D11</title>
      <polygon
         fill="none"
         stroke="black"
         points="308,-180 231.92,-162 308,-144 384.08,-162 308,-180"
         id="polygon209" />
      <text
         text-anchor="middle"
         x="308"
         y="-158.3"
         font-family="Times,serif"
         font-size="14.00"
         id="text211">(T-&gt;lchild)?</text>
    </g>
    <!-- D4&#45;&gt;D11 -->
    <g
       id="edge1"
       class="edge">
      <title
         id="title214">D4:e-&gt;D11:n</title>
      <path
         fill="none"
         stroke="black"
         d="M246,-234C246,-234 283.84,-201.04 300.4,-186.62"
         id="path216" />
      <polygon
         fill="black"
         stroke="black"
         points="302.76,-189.21 308,-180 298.16,-183.93 302.76,-189.21"
         id="polygon218" />
      <text
         text-anchor="middle"
         x="268.2"
         y="-214.11"
         font-family="Times,serif"
         font-size="14.00"
         id="text220">N</text>
    </g>
    <!-- D9&#45;&gt;D1 -->
    <g
       id="edge3"
       class="edge">
      <title
         id="title223">D9-&gt;D1</title>
      <path
         fill="none"
         stroke="black"
         d="M110.66,-143.84C116.18,-117.98 126,-72 126,-72 126,-72 171.55,-51.19 205.56,-35.65"
         id="path225" />
      <polygon
         fill="black"
         stroke="black"
         points="207.16,-38.77 214.8,-31.43 204.25,-32.4 207.16,-38.77"
         id="polygon227" />
    </g>
    <!-- D16 -->
    <g
       id="node6"
       class="node">
      <title
         id="title230">D16</title>
      <polygon
         fill="none"
         stroke="black"
         points="348.5,-108 135.5,-108 135.5,-72 348.5,-72 348.5,-108"
         id="polygon232" />
      <text
         text-anchor="middle"
         x="242"
         y="-86.3"
         font-family="Times,serif"
         font-size="14.00"
         id="text234">return get_rightest_node(T-&gt;lchild);</text>
    </g>
    <!-- D11&#45;&gt;D16 -->
    <g
       id="edge4"
       class="edge">
      <title
         id="title237">D11:s-&gt;D16:n</title>
      <path
         fill="none"
         stroke="black"
         d="M308,-144C308,-144 268.92,-122.68 250.9,-112.86"
         id="path239" />
      <polygon
         fill="black"
         stroke="black"
         points="252.45,-109.72 242,-108 249.1,-115.86 252.45,-109.72"
         id="polygon241" />
      <text
         text-anchor="middle"
         x="274.45"
         y="-132.23"
         font-family="Times,serif"
         font-size="14.00"
         id="text243">Y</text>
    </g>
    <!-- D20 -->
    <g
       id="node7"
       class="node">
      <title
         id="title246">D20</title>
      <polygon
         fill="none"
         stroke="black"
         points="429.5,-108 366.5,-108 366.5,-72 429.5,-72 429.5,-108"
         id="polygon248" />
      <text
         text-anchor="middle"
         x="398"
         y="-86.3"
         font-family="Times,serif"
         font-size="14.00"
         id="text250">return T;</text>
    </g>
    <!-- D11&#45;&gt;D20 -->
    <g
       id="edge6"
       class="edge">
      <title
         id="title253">D11:e-&gt;D20:n</title>
      <path
         fill="none"
         stroke="black"
         d="M385,-162C385,-162 391.86,-133.49 395.62,-117.9"
         id="path255" />
      <polygon
         fill="black"
         stroke="black"
         points="399.06,-118.54 398,-108 392.26,-116.9 399.06,-118.54"
         id="polygon257" />
      <text
         text-anchor="middle"
         x="385.31"
         y="-128.75"
         font-family="Times,serif"
         font-size="14.00"
         id="text259">N</text>
    </g>
    <!-- D16&#45;&gt;D1 -->
    <g
       id="edge5"
       class="edge">
      <title
         id="title262">D16-&gt;D1</title>
      <path
         fill="none"
         stroke="black"
         d="M242,-71.7C242,-63.98 242,-54.71 242,-46.11"
         id="path264" />
      <polygon
         fill="black"
         stroke="black"
         points="245.5,-46.1 242,-36.1 238.5,-46.1 245.5,-46.1"
         id="polygon266" />
    </g>
    <!-- D20&#45;&gt;D1 -->
    <g
       id="edge7"
       class="edge">
      <title
         id="title269">D20-&gt;D1</title>
      <path
         fill="none"
         stroke="black"
         d="M366.43,-74.83C340.98,-63.41 305.15,-47.34 278.48,-35.37"
         id="path271" />
      <polygon
         fill="black"
         stroke="black"
         points="279.65,-32.06 269.1,-31.16 276.79,-38.45 279.65,-32.06"
         id="polygon273" />
    </g>
  </g>
</svg>
