<?xml version="1.0" encoding="UTF-8" standalone="no"?>
<!-- Generated by graphviz version 3.0.0 (20220226.1711)
 -->

<!-- Pages: 1 -->

<svg
   width="774pt"
   height="692pt"
   viewBox="0.00 0.00 774.29 692.00"
   version="1.1"
   id="svg5267"
   sodipodi:docname="get_father.svg"
   inkscape:version="1.2 (dc2aeda, 2022-05-15)"
   inkscape:export-filename="get_father.png"
   inkscape:export-xdpi="96"
   inkscape:export-ydpi="96"
   xmlns:inkscape="http://www.inkscape.org/namespaces/inkscape"
   xmlns:sodipodi="http://sodipodi.sourceforge.net/DTD/sodipodi-0.dtd"
   xmlns="http://www.w3.org/2000/svg"
   xmlns:svg="http://www.w3.org/2000/svg">
  <defs
     id="defs5271" />
  <sodipodi:namedview
     id="namedview5269"
     pagecolor="#ffffff"
     bordercolor="#666666"
     borderopacity="1.0"
     inkscape:showpageshadow="2"
     inkscape:pageopacity="0.0"
     inkscape:pagecheckerboard="0"
     inkscape:deskcolor="#d1d1d1"
     inkscape:document-units="pt"
     showgrid="false"
     inkscape:zoom="0.42965027"
     inkscape:cx="347.95743"
     inkscape:cy="507.38942"
     inkscape:window-width="1440"
     inkscape:window-height="778"
     inkscape:window-x="0"
     inkscape:window-y="25"
     inkscape:window-maximized="1"
     inkscape:current-layer="graph0" />
  <g
     id="graph0"
     class="graph"
     transform="scale(1 1) rotate(0) translate(4 688)">
    <polygon
       fill="white"
       stroke="transparent"
       points="-4,4 -4,-688 770.29,-688 770.29,4 -4,4"
       id="polygon5006" />
    <!-- D0 -->
    <g
       id="node1"
       class="node">
      <title
         id="title5008">D0</title>
      <path
         fill="none"
         stroke="black"
         d="M107.79,-684C107.79,-684 77.79,-684 77.79,-684 71.79,-684 65.79,-678 65.79,-672 65.79,-672 65.79,-660 65.79,-660 65.79,-654 71.79,-648 77.79,-648 77.79,-648 107.79,-648 107.79,-648 113.79,-648 119.79,-654 119.79,-660 119.79,-660 119.79,-672 119.79,-672 119.79,-678 113.79,-684 107.79,-684"
         id="path5010" />
      <text
         text-anchor="middle"
         x="92.79"
         y="-662.3"
         font-family="Times,serif"
         font-size="14.00"
         id="text5012">begin</text>
    </g>
    <!-- D4 -->
    <g
       id="node3"
       class="node">
      <title
         id="title5015">D4</title>
      <polygon
         fill="none"
         stroke="black"
         points="92.79,-612 52.4,-594 92.79,-576 133.17,-594 92.79,-612"
         id="polygon5017" />
      <text
         text-anchor="middle"
         x="92.79"
         y="-590.3"
         font-family="Times,serif"
         font-size="14.00"
         id="text5019">(!T)?</text>
    </g>
    <!-- D0&#45;&gt;D4 -->
    <g
       id="edge19"
       class="edge">
      <title
         id="title5022">D0-&gt;D4</title>
      <path
         fill="none"
         stroke="black"
         d="M92.79,-647.7C92.79,-639.98 92.79,-630.71 92.79,-622.11"
         id="path5024" />
      <polygon
         fill="black"
         stroke="black"
         points="96.29,-622.1 92.79,-612.1 89.29,-622.1 96.29,-622.1"
         id="polygon5026" />
    </g>
    <!-- D1 -->
    <g
       id="node2"
       class="node">
      <title
         id="title5029">D1</title>
      <path
         fill="none"
         stroke="black"
         d="M392.79,-36C392.79,-36 362.79,-36 362.79,-36 356.79,-36 350.79,-30 350.79,-24 350.79,-24 350.79,-12 350.79,-12 350.79,-6 356.79,0 362.79,0 362.79,0 392.79,0 392.79,0 398.79,0 404.79,-6 404.79,-12 404.79,-12 404.79,-24 404.79,-24 404.79,-30 398.79,-36 392.79,-36"
         id="path5031" />
      <text
         text-anchor="middle"
         x="377.79"
         y="-14.3"
         font-family="Times,serif"
         font-size="14.00"
         id="text5033">end</text>
    </g>
    <!-- D9 -->
    <g
       id="node4"
       class="node">
      <title
         id="title5036">D9</title>
      <polygon
         fill="none"
         stroke="black"
         points="107.79,-324 15.79,-324 15.79,-288 107.79,-288 107.79,-324"
         id="polygon5038" />
      <text
         text-anchor="middle"
         x="61.79"
         y="-302.3"
         font-family="Times,serif"
         font-size="14.00"
         id="text5040">return NULL;</text>
    </g>
    <!-- D4&#45;&gt;D9 -->
    <g
       id="edge2"
       class="edge">
      <title
         id="title5043">D4:s-&gt;D9:n</title>
      <path
         fill="none"
         stroke="#000000"
         d="m 92.79,-576 -88.6106371,1.26593 2.7787257,179.10437 56.2111934,-0.11277 -2.891196,62.48154"
         id="path5045"
         sodipodi:nodetypes="ccccc" />
      <polygon
         fill="#000000"
         stroke="#000000"
         points="62,-334.59 61.79,-324 55.35,-332.41 "
         id="polygon5047"
         transform="rotate(20.091928,62.299101,-329.59282)" />
      <text
         text-anchor="middle"
         x="49.195251"
         y="-563.4765"
         font-family="Times, serif"
         font-size="14px"
         id="text5049">Y</text>
    </g>
    <!-- D11 -->
    <g
       id="node5"
       class="node">
      <title
         id="title5052">D11</title>
      <polygon
         fill="none"
         stroke="black"
         points="242.79,-540 11.87,-522 242.79,-504 473.71,-522 242.79,-540"
         id="polygon5054" />
      <text
         text-anchor="middle"
         x="242.79"
         y="-518.3"
         font-family="Times,serif"
         font-size="14.00"
         id="text5056">(T-&gt;lchild &amp;&amp; T-&gt;lchild-&gt;data.key == e)?</text>
    </g>
    <!-- D4&#45;&gt;D11 -->
    <g
       id="edge1"
       class="edge">
      <title
         id="title5059">D4:e-&gt;D11:n</title>
      <path
         fill="none"
         stroke="black"
         d="M133.79,-594C133.79,-594 207.14,-557.66 233.5,-544.6"
         id="path5061" />
      <polygon
         fill="black"
         stroke="black"
         points="235.38,-547.58 242.79,-540 232.27,-541.3 235.38,-547.58"
         id="polygon5063" />
      <text
         text-anchor="middle"
         x="178.64"
         y="-573.1"
         font-family="Times,serif"
         font-size="14.00"
         id="text5065">N</text>
    </g>
    <!-- D9&#45;&gt;D1 -->
    <g
       id="edge3"
       class="edge">
      <title
         id="title5068">D9-&gt;D1</title>
      <path
         fill="none"
         stroke="black"
         d="M80.1,-287.87C137.6,-234.06 310.79,-72 310.79,-72 310.79,-72 330.22,-56.62 348.16,-42.44"
         id="path5070" />
      <polygon
         fill="black"
         stroke="black"
         points="350.55,-45.01 356.22,-36.06 346.21,-39.52 350.55,-45.01"
         id="polygon5072" />
    </g>
    <!-- D16 -->
    <g
       id="node6"
       class="node">
      <title
         id="title5075">D16</title>
      <polygon
         fill="none"
         stroke="black"
         points="272.29,-252 209.29,-252 209.29,-216 272.29,-216 272.29,-252"
         id="polygon5077" />
      <text
         text-anchor="middle"
         x="240.79"
         y="-230.3"
         font-family="Times,serif"
         font-size="14.00"
         id="text5079">return T;</text>
    </g>
    <!-- D11&#45;&gt;D16 -->
    <g
       id="edge10"
       class="edge">
      <title
         id="title5082">D11:s-&gt;D16:n</title>
      <path
         fill="none"
         stroke="black"
         d="M242.79,-504C242.79,-504 231.79,-468 231.79,-468 231.79,-468 231.79,-432 231.79,-432 231.79,-432 238.37,-300.27 240.28,-262.19"
         id="path5084" />
      <polygon
         fill="black"
         stroke="black"
         points="243.78,-262.16 240.79,-252 236.79,-261.81 243.78,-262.16"
         id="polygon5086" />
      <text
         text-anchor="middle"
         x="229.19"
         y="-387.67"
         font-family="Times,serif"
         font-size="14.00"
         id="text5088">Y</text>
    </g>
    <!-- D18 -->
    <g
       id="node7"
       class="node">
      <title
         id="title5091">D18</title>
      <polygon
         fill="none"
         stroke="black"
         points="473.79,-468 241.19,-450 473.79,-432 706.38,-450 473.79,-468"
         id="polygon5093" />
      <text
         text-anchor="middle"
         x="473.79"
         y="-446.3"
         font-family="Times,serif"
         font-size="14.00"
         id="text5095">(T-&gt;rchild &amp;&amp; T-&gt;rchild-&gt;data.key == e)?</text>
    </g>
    <!-- D11&#45;&gt;D18 -->
    <g
       id="edge5"
       class="edge">
      <title
         id="title5098">D11:e-&gt;D18:n</title>
      <path
         fill="none"
         stroke="black"
         d="M474.79,-522C474.79,-522 474.27,-494.1 473.98,-478.41"
         id="path5100" />
      <polygon
         fill="black"
         stroke="black"
         points="477.47,-477.93 473.79,-468 470.47,-478.06 477.47,-477.93"
         id="polygon5102" />
      <text
         text-anchor="middle"
         x="469.38"
         y="-489.01"
         font-family="Times,serif"
         font-size="14.00"
         id="text5104">N</text>
    </g>
    <!-- D16&#45;&gt;D1 -->
    <g
       id="edge6"
       class="edge">
      <title
         id="title5107">D16-&gt;D1</title>
      <path
         fill="none"
         stroke="black"
         d="M250.85,-215.77C275.1,-174.24 334.79,-72 334.79,-72 334.79,-72 346.38,-57.71 357.53,-43.97"
         id="path5109" />
      <polygon
         fill="black"
         stroke="black"
         points="360.36,-46.03 363.95,-36.06 354.93,-41.62 360.36,-46.03"
         id="polygon5111" />
    </g>
    <!-- D23 -->
    <g
       id="node8"
       class="node">
      <title
         id="title5114">D23</title>
      <polygon
         fill="none"
         stroke="black"
         points="404.29,-396 341.29,-396 341.29,-360 404.29,-360 404.29,-396"
         id="polygon5116" />
      <text
         text-anchor="middle"
         x="372.79"
         y="-374.3"
         font-family="Times,serif"
         font-size="14.00"
         id="text5118">return T;</text>
    </g>
    <!-- D18&#45;&gt;D23 -->
    <g
       id="edge8"
       class="edge">
      <title
         id="title5121">D18:s-&gt;D23:n</title>
      <path
         fill="none"
         stroke="black"
         d="M473.79,-432C473.79,-432 407.75,-408.46 382.47,-399.45"
         id="path5123" />
      <polygon
         fill="black"
         stroke="black"
         points="383.38,-396.06 372.79,-396 381.03,-402.65 383.38,-396.06"
         id="polygon5125" />
      <text
         text-anchor="middle"
         x="423.13"
         y="-419.53"
         font-family="Times,serif"
         font-size="14.00"
         id="text5127">Y</text>
    </g>
    <!-- D25 -->
    <g
       id="node9"
       class="node">
      <title
         id="title5130">D25</title>
      <polygon
         fill="none"
         stroke="black"
         points="766.29,-396 497.29,-396 497.29,-360 766.29,-360 766.29,-396"
         id="polygon5132" />
      <text
         text-anchor="middle"
         x="631.79"
         y="-374.3"
         font-family="Times,serif"
         font-size="14.00"
         id="text5134">BiTNode *res_in_l = get_father(T-&gt;lchild, e);</text>
    </g>
    <!-- D18&#45;&gt;D25 -->
    <g
       id="edge4"
       class="edge">
      <title
         id="title5137">D18:e-&gt;D25:n</title>
      <path
         fill="none"
         stroke="#000000"
         d="m 705.77441,-450.40312 27.87356,-0.0613 -0.16498,45.18637"
         id="path5139"
         sodipodi:nodetypes="ccc" />
      <polygon
         fill="#000000"
         stroke="#000000"
         points="642.32,-397.17 631.79,-396 639.29,-403.48 "
         id="polygon5141"
         transform="rotate(-63.632038,681.30209,-478.7152)" />
      <text
         text-anchor="middle"
         x="718.12799"
         y="-434.3064"
         font-family="Times, serif"
         font-size="14px"
         id="text5143">N</text>
    </g>
    <!-- D23&#45;&gt;D1 -->
    <g
       id="edge9"
       class="edge">
      <title
         id="title5146">D23-&gt;D1</title>
      <path
         fill="none"
         stroke="#000000"
         d="m 369.89,-359.87 2.37,313.79"
         id="path5148"
         sodipodi:nodetypes="cc" />
      <polygon
         fill="black"
         stroke="black"
         points="375.72,-46.63 374.29,-36.13 368.86,-45.23 375.72,-46.63"
         id="polygon5150" />
    </g>
    <!-- D27 -->
    <g
       id="node10"
       class="node">
      <title
         id="title5153">D27</title>
      <polygon
         fill="none"
         stroke="black"
         points="694.79,-324 424.79,-324 424.79,-288 694.79,-288 694.79,-324"
         id="polygon5155" />
      <text
         text-anchor="middle"
         x="559.79"
         y="-302.3"
         font-family="Times,serif"
         font-size="14.00"
         id="text5157">BiTNode *res_in_r = get_father(T-&gt;rchild, e);</text>
    </g>
    <!-- D25&#45;&gt;D27 -->
    <g
       id="edge7"
       class="edge">
      <title
         id="title5160">D25-&gt;D27</title>
      <path
         fill="none"
         stroke="black"
         d="M613.99,-359.7C605.18,-351.14 594.41,-340.66 584.79,-331.3"
         id="path5162" />
      <polygon
         fill="black"
         stroke="black"
         points="586.99,-328.57 577.38,-324.1 582.11,-333.58 586.99,-328.57"
         id="polygon5164" />
    </g>
    <!-- D29 -->
    <g
       id="node11"
       class="node">
      <title
         id="title5167">D29</title>
      <polygon
         fill="none"
         stroke="black"
         points="495.79,-252 426.91,-234 495.79,-216 564.66,-234 495.79,-252"
         id="polygon5169" />
      <text
         text-anchor="middle"
         x="495.79"
         y="-230.3"
         font-family="Times,serif"
         font-size="14.00"
         id="text5171">(res_in_l)?</text>
    </g>
    <!-- D27&#45;&gt;D29 -->
    <g
       id="edge11"
       class="edge">
      <title
         id="title5174">D27-&gt;D29</title>
      <path
         fill="none"
         stroke="black"
         d="M543.97,-287.7C535.32,-278.24 524.54,-266.45 515.37,-256.41"
         id="path5176" />
      <polygon
         fill="black"
         stroke="black"
         points="517.76,-253.84 508.43,-248.82 512.59,-258.57 517.76,-253.84"
         id="polygon5178" />
    </g>
    <!-- D34 -->
    <g
       id="node12"
       class="node">
      <title
         id="title5181">D34</title>
      <polygon
         fill="none"
         stroke="black"
         points="476.79,-180 376.79,-180 376.79,-144 476.79,-144 476.79,-180"
         id="polygon5183" />
      <text
         text-anchor="middle"
         x="426.79"
         y="-158.3"
         font-family="Times,serif"
         font-size="14.00"
         id="text5185">return res_in_l;</text>
    </g>
    <!-- D29&#45;&gt;D34 -->
    <g
       id="edge17"
       class="edge">
      <title
         id="title5188">D29:s-&gt;D34:n</title>
      <path
         fill="none"
         stroke="black"
         d="M495.79,-216C495.79,-216 454.51,-194.46 435.81,-184.71"
         id="path5190" />
      <polygon
         fill="black"
         stroke="black"
         points="437.27,-181.52 426.79,-180 434.04,-187.73 437.27,-181.52"
         id="polygon5192" />
      <text
         text-anchor="middle"
         x="460.8"
         y="-204.15"
         font-family="Times,serif"
         font-size="14.00"
         id="text5194">Y</text>
    </g>
    <!-- D36 -->
    <g
       id="node13"
       class="node">
      <title
         id="title5197">D36</title>
      <polygon
         fill="none"
         stroke="black"
         points="564.79,-180 495.08,-162 564.79,-144 634.5,-162 564.79,-180"
         id="polygon5199" />
      <text
         text-anchor="middle"
         x="564.79"
         y="-158.3"
         font-family="Times,serif"
         font-size="14.00"
         id="text5201">(res_in_r)?</text>
    </g>
    <!-- D29&#45;&gt;D36 -->
    <g
       id="edge13"
       class="edge">
      <title
         id="title5204">D29:e-&gt;D36:n</title>
      <path
         fill="none"
         stroke="black"
         d="M565.79,-234C565.79,-234 565.27,-206.1 564.98,-190.41"
         id="path5206" />
      <polygon
         fill="black"
         stroke="black"
         points="568.47,-189.93 564.79,-180 561.47,-190.06 568.47,-189.93"
         id="polygon5208" />
      <text
         text-anchor="middle"
         x="560.38"
         y="-201.01"
         font-family="Times,serif"
         font-size="14.00"
         id="text5210">N</text>
    </g>
    <!-- D34&#45;&gt;D1 -->
    <g
       id="edge14"
       class="edge">
      <title
         id="title5213">D34-&gt;D1</title>
      <path
         fill="none"
         stroke="black"
         d="M420.88,-143.87C412.49,-119.56 397.05,-74.82 387.11,-46.01"
         id="path5215" />
      <polygon
         fill="black"
         stroke="black"
         points="390.29,-44.5 383.72,-36.19 383.67,-46.78 390.29,-44.5"
         id="polygon5217" />
    </g>
    <!-- D41 -->
    <g
       id="node14"
       class="node">
      <title
         id="title5220">D41</title>
      <polygon
         fill="none"
         stroke="black"
         points="553.29,-108 452.29,-108 452.29,-72 553.29,-72 553.29,-108"
         id="polygon5222" />
      <text
         text-anchor="middle"
         x="502.79"
         y="-86.3"
         font-family="Times,serif"
         font-size="14.00"
         id="text5224">return res_in_r;</text>
    </g>
    <!-- D36&#45;&gt;D41 -->
    <g
       id="edge15"
       class="edge">
      <title
         id="title5227">D36:s-&gt;D41:n</title>
      <path
         fill="none"
         stroke="black"
         d="M564.79,-144C564.79,-144 528.82,-123.11 511.67,-113.16"
         id="path5229" />
      <polygon
         fill="black"
         stroke="black"
         points="513.19,-109.99 502.79,-108 509.68,-116.05 513.19,-109.99"
         id="polygon5231" />
      <text
         text-anchor="middle"
         x="533.23"
         y="-132.38"
         font-family="Times,serif"
         font-size="14.00"
         id="text5233">Y</text>
    </g>
    <!-- D43 -->
    <g
       id="node15"
       class="node">
      <title
         id="title5236">D43</title>
      <polygon
         fill="none"
         stroke="black"
         points="671.79,-108 579.79,-108 579.79,-72 671.79,-72 671.79,-108"
         id="polygon5238" />
      <text
         text-anchor="middle"
         x="625.79"
         y="-86.3"
         font-family="Times,serif"
         font-size="14.00"
         id="text5240">return NULL;</text>
    </g>
    <!-- D36&#45;&gt;D43 -->
    <g
       id="edge12"
       class="edge">
      <title
         id="title5243">D36:e-&gt;D43:n</title>
      <path
         fill="none"
         stroke="#000000"
         d="m 635.79,-162 -7.54,44.16"
         id="path5245"
         sodipodi:nodetypes="cc" />
      <polygon
         fill="black"
         stroke="black"
         points="631.61,-116.85 625.79,-108 624.82,-118.55 631.61,-116.85"
         id="polygon5247" />
      <text
         text-anchor="middle"
         x="628.7"
         y="-128.46"
         font-family="Times,serif"
         font-size="14.00"
         id="text5249">N</text>
    </g>
    <!-- D41&#45;&gt;D1 -->
    <g
       id="edge16"
       class="edge">
      <title
         id="title5252">D41-&gt;D1</title>
      <path
         fill="none"
         stroke="black"
         d="M472.21,-71.88C454.57,-62 432.29,-49.52 413.81,-39.17"
         id="path5254" />
      <polygon
         fill="black"
         stroke="black"
         points="415.51,-36.11 405.07,-34.28 412.09,-42.22 415.51,-36.11"
         id="polygon5256" />
    </g>
    <!-- D43&#45;&gt;D1 -->
    <g
       id="edge18"
       class="edge">
      <title
         id="title5259">D43-&gt;D1</title>
      <path
         fill="none"
         stroke="black"
         d="M579.72,-76C532.03,-62.54 458.47,-41.77 414.53,-29.37"
         id="path5261" />
      <polygon
         fill="black"
         stroke="black"
         points="415.41,-25.98 404.83,-26.63 413.51,-32.72 415.41,-25.98"
         id="polygon5263" />
    </g>
  </g>
</svg>
