<?xml version="1.0" encoding="UTF-8" standalone="no"?>
<!-- Generated by graphviz version 3.0.0 (20220226.1711)
 -->

<!-- Pages: 1 -->

<svg
   width="755pt"
   height="908pt"
   viewBox="0.00 0.00 755.00 908.00"
   version="1.1"
   id="svg3559"
   sodipodi:docname="insert_node.svg"
   inkscape:version="1.2 (dc2aeda, 2022-05-15)"
   inkscape:export-filename="insert_node.png"
   inkscape:export-xdpi="96"
   inkscape:export-ydpi="96"
   xmlns:inkscape="http://www.inkscape.org/namespaces/inkscape"
   xmlns:sodipodi="http://sodipodi.sourceforge.net/DTD/sodipodi-0.dtd"
   xmlns="http://www.w3.org/2000/svg"
   xmlns:svg="http://www.w3.org/2000/svg">
  <defs
     id="defs3563" />
  <sodipodi:namedview
     id="namedview3561"
     pagecolor="#ffffff"
     bordercolor="#666666"
     borderopacity="1.0"
     inkscape:showpageshadow="2"
     inkscape:pageopacity="0.0"
     inkscape:pagecheckerboard="0"
     inkscape:deskcolor="#d1d1d1"
     inkscape:document-units="pt"
     showgrid="false"
     inkscape:zoom="0.78732691"
     inkscape:cx="493.44179"
     inkscape:cy="635.06022"
     inkscape:window-width="1440"
     inkscape:window-height="778"
     inkscape:window-x="0"
     inkscape:window-y="25"
     inkscape:window-maximized="1"
     inkscape:current-layer="graph0" />
  <g
     id="graph0"
     class="graph"
     transform="scale(1 1) rotate(0) translate(4 904)">
    <polygon
       fill="white"
       stroke="transparent"
       points="-4,4 -4,-904 751,-904 751,4 -4,4"
       id="polygon3239" />
    <!-- D0 -->
    <g
       id="node1"
       class="node">
      <title
         id="title3241">D0</title>
      <path
         fill="none"
         stroke="black"
         d="M195,-900C195,-900 165,-900 165,-900 159,-900 153,-894 153,-888 153,-888 153,-876 153,-876 153,-870 159,-864 165,-864 165,-864 195,-864 195,-864 201,-864 207,-870 207,-876 207,-876 207,-888 207,-888 207,-894 201,-900 195,-900"
         id="path3243" />
      <text
         text-anchor="middle"
         x="180"
         y="-878.3"
         font-family="Times,serif"
         font-size="14.00"
         id="text3245">begin</text>
    </g>
    <!-- D4 -->
    <g
       id="node3"
       class="node">
      <title
         id="title3248">D4</title>
      <polygon
         fill="none"
         stroke="black"
         points="360,-828 0,-828 0,-792 360,-792 360,-828"
         id="polygon3250" />
      <text
         text-anchor="middle"
         x="180"
         y="-806.3"
         font-family="Times,serif"
         font-size="14.00"
         id="text3252">BiTNode *new_node = (BiTNode *)malloc(sizeof(BiTNode));</text>
    </g>
    <!-- D0&#45;&gt;D4 -->
    <g
       id="edge23"
       class="edge">
      <title
         id="title3255">D0-&gt;D4</title>
      <path
         fill="none"
         stroke="black"
         d="M180,-863.7C180,-855.98 180,-846.71 180,-838.11"
         id="path3257" />
      <polygon
         fill="black"
         stroke="black"
         points="183.5,-838.1 180,-828.1 176.5,-838.1 183.5,-838.1"
         id="polygon3259" />
    </g>
    <!-- D1 -->
    <g
       id="node2"
       class="node"
       transform="translate(-33.608432)">
      <title
         id="title3262">D1</title>
      <path
         fill="none"
         stroke="#000000"
         d="m 200,-36 c 0,0 -30,0 -30,0 -6,0 -12,6 -12,12 0,0 0,12 0,12 0,6 6,12 12,12 0,0 30,0 30,0 6,0 12,-6 12,-12 0,0 0,-12 0,-12 0,-6 -6,-12 -12,-12"
         id="path3264" />
      <text
         text-anchor="middle"
         x="185"
         y="-14.3"
         font-family="Times, serif"
         font-size="14px"
         id="text3266">end</text>
    </g>
    <!-- D6 -->
    <g
       id="node4"
       class="node">
      <title
         id="title3269">D6</title>
      <polygon
         fill="none"
         stroke="black"
         points="180,-756 95.38,-738 180,-720 264.62,-738 180,-756"
         id="polygon3271" />
      <text
         text-anchor="middle"
         x="180"
         y="-734.3"
         font-family="Times,serif"
         font-size="14.00"
         id="text3273">(!new_node)?</text>
    </g>
    <!-- D4&#45;&gt;D6 -->
    <g
       id="edge1"
       class="edge">
      <title
         id="title3276">D4-&gt;D6</title>
      <path
         fill="none"
         stroke="black"
         d="M180,-791.7C180,-783.98 180,-774.71 180,-766.11"
         id="path3278" />
      <polygon
         fill="black"
         stroke="black"
         points="183.5,-766.1 180,-756.1 176.5,-766.1 183.5,-766.1"
         id="polygon3280" />
    </g>
    <!-- D11 -->
    <g
       id="node5"
       class="node">
      <title
         id="title3283">D11</title>
      <polygon
         fill="none"
         stroke="black"
         points="202.5,-612 101.5,-612 101.5,-576 202.5,-576 202.5,-612"
         id="polygon3285" />
      <text
         text-anchor="middle"
         x="152"
         y="-590.3"
         font-family="Times,serif"
         font-size="14.00"
         id="text3287">return ERROR;</text>
    </g>
    <!-- D6&#45;&gt;D11 -->
    <g
       id="edge3"
       class="edge">
      <title
         id="title3290">D6:s-&gt;D11:n</title>
      <path
         fill="none"
         stroke="black"
         d="M180,-720C180,-720 161.52,-648.7 154.58,-621.97"
         id="path3292" />
      <polygon
         fill="black"
         stroke="black"
         points="157.9,-620.8 152,-612 151.12,-622.56 157.9,-620.8"
         id="polygon3294" />
      <text
         text-anchor="middle"
         x="162.29"
         y="-674.78"
         font-family="Times,serif"
         font-size="14.00"
         id="text3296">Y</text>
    </g>
    <!-- D13 -->
    <g
       id="node6"
       class="node">
      <title
         id="title3299">D13</title>
      <polygon
         fill="none"
         stroke="black"
         points="372.5,-684 201.5,-684 201.5,-648 372.5,-648 372.5,-684"
         id="polygon3301" />
      <text
         text-anchor="middle"
         x="287"
         y="-662.3"
         font-family="Times,serif"
         font-size="14.00"
         id="text3303">new_node-&gt;lchild = NULL;</text>
    </g>
    <!-- D6&#45;&gt;D13 -->
    <g
       id="edge2"
       class="edge">
      <title
         id="title3306">D6:e-&gt;D13:n</title>
      <path
         fill="none"
         stroke="black"
         d="M266,-738C266,-738 277.33,-708.88 283.34,-693.41"
         id="path3308" />
      <polygon
         fill="black"
         stroke="black"
         points="286.64,-694.59 287,-684 280.11,-692.05 286.64,-694.59"
         id="polygon3310" />
      <text
         text-anchor="middle"
         x="269.67"
         y="-719.5"
         font-family="Times,serif"
         font-size="14.00"
         id="text3312">N</text>
    </g>
    <!-- D11&#45;&gt;D1 -->
    <g
       id="edge6"
       class="edge">
      <title
         id="title3315">D11-&gt;D1</title>
      <path
         fill="none"
         stroke="#000000"
         d="m 152,-575.87 0.68477,529.79"
         id="path3317"
         sodipodi:nodetypes="cc" />
      <polygon
         fill="#000000"
         stroke="#000000"
         points="181.02,-36.13 175.35,-45.08 182.16,-46.66 "
         id="polygon3319"
         transform="rotate(12.187601,172.40958,-169.19077)" />
    </g>
    <!-- D18 -->
    <g
       id="node7"
       class="node">
      <title
         id="title3322">D18</title>
      <polygon
         fill="none"
         stroke="black"
         points="294,-612 220.43,-594 294,-576 367.57,-594 294,-612"
         id="polygon3324" />
      <text
         text-anchor="middle"
         x="294"
         y="-590.3"
         font-family="Times,serif"
         font-size="14.00"
         id="text3326">(LR) == 0?</text>
    </g>
    <!-- D13&#45;&gt;D18 -->
    <g
       id="edge7"
       class="edge">
      <title
         id="title3329">D13-&gt;D18</title>
      <path
         fill="none"
         stroke="black"
         d="M288.73,-647.7C289.51,-639.87 290.46,-630.44 291.33,-621.73"
         id="path3331" />
      <polygon
         fill="black"
         stroke="black"
         points="294.83,-621.92 292.34,-611.62 287.86,-621.22 294.83,-621.92"
         id="polygon3333" />
    </g>
    <!-- D19 -->
    <g
       id="node8"
       class="node">
      <title
         id="title3336">D19</title>
      <polygon
         fill="none"
         stroke="black"
         points="478,-540 404.43,-522 478,-504 551.57,-522 478,-540"
         id="polygon3338" />
      <text
         text-anchor="middle"
         x="478"
         y="-518.3"
         font-family="Times,serif"
         font-size="14.00"
         id="text3340">(LR) == 1?</text>
    </g>
    <!-- D18&#45;&gt;D19 -->
    <g
       id="edge11"
       class="edge">
      <title
         id="title3343">D18:e-&gt;D19:n</title>
      <path
         fill="none"
         stroke="#000000"
         d="m 369,-594 107.21303,-0.97074 -0.65802,50.77339"
         id="path3345"
         sodipodi:nodetypes="ccc" />
      <polygon
         fill="#000000"
         stroke="#000000"
         points="467.49,-541.3 470.59,-547.58 478,-540 "
         id="polygon3347"
         transform="rotate(62.217704,477.52377,-542.48939)" />
      <text
         text-anchor="middle"
         x="413.85"
         y="-573.1"
         font-family="Times,serif"
         font-size="14.00"
         id="text3349">N</text>
    </g>
    <!-- D27 -->
    <g
       id="node10"
       class="node">
      <title
         id="title3352">D27</title>
      <polygon
         fill="none"
         stroke="black"
         points="386,-540 180,-540 180,-504 386,-504 386,-540"
         id="polygon3354" />
      <text
         text-anchor="middle"
         x="283"
         y="-518.3"
         font-family="Times,serif"
         font-size="14.00"
         id="text3356">new_node-&gt;rchild = node-&gt;lchild;</text>
    </g>
    <!-- D18&#45;&gt;D27 -->
    <g
       id="edge15"
       class="edge">
      <title
         id="title3359">D18:s-&gt;D27:n</title>
      <path
         fill="none"
         stroke="black"
         d="M294,-576C294,-576 289.26,-560.5 286.01,-549.84"
         id="path3361" />
      <polygon
         fill="black"
         stroke="black"
         points="289.27,-548.54 283,-540 282.58,-550.59 289.27,-548.54"
         id="polygon3363" />
      <text
         text-anchor="middle"
         x="285"
         y="-551.72"
         font-family="Times,serif"
         font-size="14.00"
         id="text3365">Y</text>
    </g>
    <!-- D20 -->
    <g
       id="node9"
       class="node">
      <title
         id="title3368">D20</title>
      <polygon
         fill="none"
         stroke="black"
         points="668,-468 590.58,-450 668,-432 745.42,-450 668,-468"
         id="polygon3370" />
      <text
         text-anchor="middle"
         x="668"
         y="-446.3"
         font-family="Times,serif"
         font-size="14.00"
         id="text3372">(LR) == -1?</text>
    </g>
    <!-- D19&#45;&gt;D20 -->
    <g
       id="edge10"
       class="edge">
      <title
         id="title3375">D19:e-&gt;D20:n</title>
      <path
         fill="none"
         stroke="#000000"
         d="m 553,-522 114.04199,0.13297 0.52254,46.22313"
         id="path3377"
         sodipodi:nodetypes="ccc" />
      <polygon
         fill="#000000"
         stroke="#000000"
         points="657.46,-469.08 660.44,-475.42 668,-468 "
         id="polygon3379"
         transform="rotate(66.588295,668.61334,-469.24945)" />
      <text
         text-anchor="middle"
         x="600.79"
         y="-501.01"
         font-family="Times,serif"
         font-size="14.00"
         id="text3381">N</text>
    </g>
    <!-- D35 -->
    <g
       id="node13"
       class="node">
      <title
         id="title3384">D35</title>
      <polygon
         fill="none"
         stroke="black"
         points="573,-468 367,-468 367,-432 573,-432 573,-468"
         id="polygon3386" />
      <text
         text-anchor="middle"
         x="470"
         y="-446.3"
         font-family="Times,serif"
         font-size="14.00"
         id="text3388">new_node-&gt;rchild = node-&gt;rchild;</text>
    </g>
    <!-- D19&#45;&gt;D35 -->
    <g
       id="edge18"
       class="edge">
      <title
         id="title3391">D19:s-&gt;D35:n</title>
      <path
         fill="none"
         stroke="black"
         d="M478,-504C478,-504 474.55,-488.5 472.19,-477.84"
         id="path3393" />
      <polygon
         fill="black"
         stroke="black"
         points="475.59,-477 470,-468 468.75,-478.52 475.59,-477"
         id="polygon3395" />
      <text
         text-anchor="middle"
         x="470.09"
         y="-479.72"
         font-family="Times,serif"
         font-size="14.00"
         id="text3397">Y</text>
    </g>
    <!-- D43 -->
    <g
       id="node16"
       class="node">
      <title
         id="title3400">D43</title>
      <polygon
         fill="none"
         stroke="black"
         points="718,-396 556,-396 556,-360 718,-360 718,-396"
         id="polygon3402" />
      <text
         text-anchor="middle"
         x="637"
         y="-374.3"
         font-family="Times,serif"
         font-size="14.00"
         id="text3404">new_node-&gt;rchild = node;</text>
    </g>
    <!-- D20&#45;&gt;D43 -->
    <g
       id="edge21"
       class="edge">
      <title
         id="title3407">D20:s-&gt;D43:n</title>
      <path
         fill="none"
         stroke="black"
         d="M668,-432C668,-432 652.67,-414.2 643.57,-403.63"
         id="path3409" />
      <polygon
         fill="black"
         stroke="black"
         points="646.18,-401.29 637,-396 640.87,-405.86 646.18,-401.29"
         id="polygon3411" />
      <text
         text-anchor="middle"
         x="650.79"
         y="-421.62"
         font-family="Times,serif"
         font-size="14.00"
         id="text3413">Y</text>
    </g>
    <!-- D49 -->
    <g
       id="node19"
       class="node">
      <title
         id="title3416">D49</title>
      <polygon
         fill="none"
         stroke="black"
         points="523.5,-180 390.5,-180 390.5,-144 523.5,-144 523.5,-180"
         id="polygon3418" />
      <text
         text-anchor="middle"
         x="457"
         y="-158.3"
         font-family="Times,serif"
         font-size="14.00"
         id="text3420">new_node-&gt;data = c;</text>
    </g>
    <!-- D20&#45;&gt;D49 -->
    <g
       id="edge4"
       class="edge">
      <title
         id="title3423">D20:e-&gt;D49:n</title>
      <path
         fill="none"
         stroke="#000000"
         d="m 747,-450 -1,18 -4.26075,270.97992 -214.84397,0.53896"
         id="path3425"
         sodipodi:nodetypes="cccc" />
      <polygon
         fill="#000000"
         stroke="#000000"
         points="465.76,-185.96 467.56,-179.19 457,-180 "
         id="polygon3427"
         transform="rotate(13.343801,404.84525,118.31118)" />
      <text
         text-anchor="middle"
         x="644.9"
         y="-275.38"
         font-family="Times,serif"
         font-size="14.00"
         id="text3429">N</text>
    </g>
    <!-- D29 -->
    <g
       id="node11"
       class="node">
      <title
         id="title3432">D29</title>
      <polygon
         fill="none"
         stroke="black"
         points="348.5,-468 187.5,-468 187.5,-432 348.5,-432 348.5,-468"
         id="polygon3434" />
      <text
         text-anchor="middle"
         x="268"
         y="-446.3"
         font-family="Times,serif"
         font-size="14.00"
         id="text3436">node-&gt;lchild = new_node;</text>
    </g>
    <!-- D27&#45;&gt;D29 -->
    <g
       id="edge9"
       class="edge">
      <title
         id="title3439">D27-&gt;D29</title>
      <path
         fill="none"
         stroke="black"
         d="M279.29,-503.7C277.64,-495.98 275.65,-486.71 273.81,-478.11"
         id="path3441" />
      <polygon
         fill="black"
         stroke="black"
         points="277.18,-477.15 271.67,-468.1 270.34,-478.62 277.18,-477.15"
         id="polygon3443" />
    </g>
    <!-- D31 -->
    <g
       id="node12"
       class="node">
      <title
         id="title3446">D31</title>
      <polygon
         fill="none"
         stroke="black"
         points="362,-252 308,-252 308,-216 362,-216 362,-252"
         id="polygon3448" />
      <text
         text-anchor="middle"
         x="335"
         y="-230.3"
         font-family="Times,serif"
         font-size="14.00"
         id="text3450">break</text>
    </g>
    <!-- D29&#45;&gt;D31 -->
    <g
       id="edge13"
       class="edge">
      <title
         id="title3453">D29-&gt;D31</title>
      <path
         fill="none"
         stroke="black"
         d="M273.37,-431.85C285.01,-394.68 312.63,-306.44 326.6,-261.82"
         id="path3455" />
      <polygon
         fill="black"
         stroke="black"
         points="329.96,-262.82 329.6,-252.23 323.28,-260.73 329.96,-262.82"
         id="polygon3457" />
    </g>
    <!-- D31&#45;&gt;D49 -->
    <g
       id="edge5"
       class="edge">
      <title
         id="title3460">D31-&gt;D49</title>
      <path
         fill="none"
         stroke="black"
         d="M362.08,-217.46C378.61,-207.98 400.01,-195.7 418.31,-185.2"
         id="path3462" />
      <polygon
         fill="black"
         stroke="black"
         points="420.07,-188.22 427,-180.21 416.59,-182.15 420.07,-188.22"
         id="polygon3464" />
    </g>
    <!-- D37 -->
    <g
       id="node14"
       class="node">
      <title
         id="title3467">D37</title>
      <polygon
         fill="none"
         stroke="black"
         points="538,-396 376,-396 376,-360 538,-360 538,-396"
         id="polygon3469" />
      <text
         text-anchor="middle"
         x="457"
         y="-374.3"
         font-family="Times,serif"
         font-size="14.00"
         id="text3471">node-&gt;rchild = new_node;</text>
    </g>
    <!-- D35&#45;&gt;D37 -->
    <g
       id="edge14"
       class="edge">
      <title
         id="title3474">D35-&gt;D37</title>
      <path
         fill="none"
         stroke="black"
         d="M466.79,-431.7C465.35,-423.98 463.63,-414.71 462.04,-406.11"
         id="path3476" />
      <polygon
         fill="black"
         stroke="black"
         points="465.44,-405.3 460.18,-396.1 458.56,-406.58 465.44,-405.3"
         id="polygon3478" />
    </g>
    <!-- D39 -->
    <g
       id="node15"
       class="node">
      <title
         id="title3481">D39</title>
      <polygon
         fill="none"
         stroke="black"
         points="484,-324 430,-324 430,-288 484,-288 484,-324"
         id="polygon3483" />
      <text
         text-anchor="middle"
         x="457"
         y="-302.3"
         font-family="Times,serif"
         font-size="14.00"
         id="text3485">break</text>
    </g>
    <!-- D37&#45;&gt;D39 -->
    <g
       id="edge16"
       class="edge">
      <title
         id="title3488">D37-&gt;D39</title>
      <path
         fill="none"
         stroke="black"
         d="M457,-359.7C457,-351.98 457,-342.71 457,-334.11"
         id="path3490" />
      <polygon
         fill="black"
         stroke="black"
         points="460.5,-334.1 457,-324.1 453.5,-334.1 460.5,-334.1"
         id="polygon3492" />
    </g>
    <!-- D39&#45;&gt;D49 -->
    <g
       id="edge12"
       class="edge">
      <title
         id="title3495">D39-&gt;D49</title>
      <path
         fill="none"
         stroke="black"
         d="M457,-287.87C457,-263.67 457,-219.21 457,-190.39"
         id="path3497" />
      <polygon
         fill="black"
         stroke="black"
         points="460.5,-190.19 457,-180.19 453.5,-190.19 460.5,-190.19"
         id="polygon3499" />
    </g>
    <!-- D45 -->
    <g
       id="node17"
       class="node">
      <title
         id="title3502">D45</title>
      <polygon
         fill="none"
         stroke="black"
         points="658,-324 540,-324 540,-288 658,-288 658,-324"
         id="polygon3504" />
      <text
         text-anchor="middle"
         x="599"
         y="-302.3"
         font-family="Times,serif"
         font-size="14.00"
         id="text3506">node = new_node;</text>
    </g>
    <!-- D43&#45;&gt;D45 -->
    <g
       id="edge17"
       class="edge">
      <title
         id="title3509">D43-&gt;D45</title>
      <path
         fill="none"
         stroke="black"
         d="M627.61,-359.7C623.24,-351.64 617.94,-341.89 613.1,-332.98"
         id="path3511" />
      <polygon
         fill="black"
         stroke="black"
         points="616.13,-331.22 608.29,-324.1 609.98,-334.56 616.13,-331.22"
         id="polygon3513" />
    </g>
    <!-- D47 -->
    <g
       id="node18"
       class="node">
      <title
         id="title3516">D47</title>
      <polygon
         fill="none"
         stroke="black"
         points="583,-252 529,-252 529,-216 583,-216 583,-252"
         id="polygon3518" />
      <text
         text-anchor="middle"
         x="556"
         y="-230.3"
         font-family="Times,serif"
         font-size="14.00"
         id="text3520">break</text>
    </g>
    <!-- D45&#45;&gt;D47 -->
    <g
       id="edge19"
       class="edge">
      <title
         id="title3523">D45-&gt;D47</title>
      <path
         fill="none"
         stroke="black"
         d="M588.37,-287.7C583.37,-279.56 577.31,-269.69 571.79,-260.7"
         id="path3525" />
      <polygon
         fill="black"
         stroke="black"
         points="574.72,-258.79 566.51,-252.1 568.76,-262.46 574.72,-258.79"
         id="polygon3527" />
    </g>
    <!-- D47&#45;&gt;D49 -->
    <g
       id="edge8"
       class="edge">
      <title
         id="title3530">D47-&gt;D49</title>
      <path
         fill="none"
         stroke="black"
         d="M531.78,-215.88C519.08,-206.89 503.34,-195.76 489.58,-186.03"
         id="path3532" />
      <polygon
         fill="black"
         stroke="black"
         points="491.5,-183.11 481.31,-180.19 487.46,-188.82 491.5,-183.11"
         id="polygon3534" />
    </g>
    <!-- D51 -->
    <g
       id="node20"
       class="node">
      <title
         id="title3537">D51</title>
      <polygon
         fill="none"
         stroke="black"
         points="375,-108 299,-108 299,-72 375,-72 375,-108"
         id="polygon3539" />
      <text
         text-anchor="middle"
         x="337"
         y="-86.3"
         font-family="Times,serif"
         font-size="14.00"
         id="text3541">return OK;</text>
    </g>
    <!-- D49&#45;&gt;D51 -->
    <g
       id="edge20"
       class="edge">
      <title
         id="title3544">D49-&gt;D51</title>
      <path
         fill="none"
         stroke="#000000"
         d="m 427.64,-143.88 0.0312,13.27689 -88.04905,0.13405 -0.13038,14.7176"
         id="path3546"
         sodipodi:nodetypes="cccc" />
      <polygon
         fill="#000000"
         stroke="#000000"
         points="373.34,-116.25 376.87,-110.21 366.47,-108.19 "
         id="polygon3548"
         transform="rotate(-60.523234,352.09598,-85.70454)" />
    </g>
    <!-- D51&#45;&gt;D1 -->
    <g
       id="edge22"
       class="edge">
      <title
         id="title3551">D51-&gt;D1</title>
      <path
         fill="none"
         stroke="#000000"
         d="m 337.25025,-71.285869 0.0203,17.434619 -183.98563,-0.426808"
         id="path3553"
         sodipodi:nodetypes="ccc" />
    </g>
  </g>
</svg>
