<?xml version="1.0" encoding="UTF-8" standalone="no"?>
<!-- Generated by graphviz version 3.0.0 (20220226.1711)
 -->

<!-- Pages: 1 -->

<svg
   width="498pt"
   height="692pt"
   viewBox="0.00 0.00 497.50 692.00"
   version="1.1"
   id="svg4363"
   sodipodi:docname="InsertNode.svg"
   inkscape:version="1.2 (dc2aeda, 2022-05-15)"
   inkscape:export-filename="InsertNode.png"
   inkscape:export-xdpi="96"
   inkscape:export-ydpi="96"
   xmlns:inkscape="http://www.inkscape.org/namespaces/inkscape"
   xmlns:sodipodi="http://sodipodi.sourceforge.net/DTD/sodipodi-0.dtd"
   xmlns="http://www.w3.org/2000/svg"
   xmlns:svg="http://www.w3.org/2000/svg">
  <defs
     id="defs4367" />
  <sodipodi:namedview
     id="namedview4365"
     pagecolor="#ffffff"
     bordercolor="#666666"
     borderopacity="1.0"
     inkscape:showpageshadow="2"
     inkscape:pageopacity="0.0"
     inkscape:pagecheckerboard="0"
     inkscape:deskcolor="#d1d1d1"
     inkscape:document-units="pt"
     showgrid="false"
     inkscape:zoom="0.87208572"
     inkscape:cx="132.44111"
     inkscape:cy="246.5354"
     inkscape:window-width="1440"
     inkscape:window-height="778"
     inkscape:window-x="0"
     inkscape:window-y="25"
     inkscape:window-maximized="1"
     inkscape:current-layer="graph0" />
  <g
     id="graph0"
     class="graph"
     transform="scale(1 1) rotate(0) translate(4 688)">
    <!-- D0 -->
    <g
       id="node1"
       class="node">
      <title
         id="title4168">D0</title>
      <path
         fill="none"
         stroke="black"
         d="M212.5,-684C212.5,-684 182.5,-684 182.5,-684 176.5,-684 170.5,-678 170.5,-672 170.5,-672 170.5,-660 170.5,-660 170.5,-654 176.5,-648 182.5,-648 182.5,-648 212.5,-648 212.5,-648 218.5,-648 224.5,-654 224.5,-660 224.5,-660 224.5,-672 224.5,-672 224.5,-678 218.5,-684 212.5,-684"
         id="path4170" />
      <text
         text-anchor="middle"
         x="197.5"
         y="-662.3"
         font-family="Times,serif"
         font-size="14.00"
         id="text4172">begin</text>
    </g>
    <!-- D4 -->
    <g
       id="node3"
       class="node">
      <title
         id="title4175">D4</title>
      <polygon
         fill="none"
         stroke="black"
         points="245,-612 150,-612 150,-576 245,-576 245,-612"
         id="polygon4177" />
      <text
         text-anchor="middle"
         x="197.5"
         y="-590.3"
         font-family="Times,serif"
         font-size="14.00"
         id="text4179">status s = OK;</text>
    </g>
    <!-- D0&#45;&gt;D4 -->
    <g
       id="edge14"
       class="edge">
      <title
         id="title4182">D0-&gt;D4</title>
      <path
         fill="none"
         stroke="black"
         d="M197.5,-647.7C197.5,-639.98 197.5,-630.71 197.5,-622.11"
         id="path4184" />
      <polygon
         fill="black"
         stroke="black"
         points="201,-622.1 197.5,-612.1 194,-622.1 201,-622.1"
         id="polygon4186" />
    </g>
    <!-- D1 -->
    <g
       id="node2"
       class="node">
      <title
         id="title4189">D1</title>
      <path
         fill="none"
         stroke="black"
         d="M320.5,-36C320.5,-36 290.5,-36 290.5,-36 284.5,-36 278.5,-30 278.5,-24 278.5,-24 278.5,-12 278.5,-12 278.5,-6 284.5,0 290.5,0 290.5,0 320.5,0 320.5,0 326.5,0 332.5,-6 332.5,-12 332.5,-12 332.5,-24 332.5,-24 332.5,-30 326.5,-36 320.5,-36"
         id="path4191" />
      <text
         text-anchor="middle"
         x="305.5"
         y="-14.3"
         font-family="Times,serif"
         font-size="14.00"
         id="text4193">end</text>
    </g>
    <!-- D6 -->
    <g
       id="node4"
       class="node">
      <title
         id="title4196">D6</title>
      <polygon
         fill="none"
         stroke="black"
         points="395,-540 0,-540 0,-504 395,-504 395,-540"
         id="polygon4198" />
      <text
         text-anchor="middle"
         x="197.5"
         y="-518.3"
         font-family="Times,serif"
         font-size="14.00"
         id="text4200">BiTNode *target = LR == -1 ? T : locate_node_if_insertable(T, e, c);</text>
    </g>
    <!-- D4&#45;&gt;D6 -->
    <g
       id="edge1"
       class="edge">
      <title
         id="title4203">D4-&gt;D6</title>
      <path
         fill="none"
         stroke="black"
         d="M197.5,-575.7C197.5,-567.98 197.5,-558.71 197.5,-550.11"
         id="path4205" />
      <polygon
         fill="black"
         stroke="black"
         points="201,-550.1 197.5,-540.1 194,-550.1 201,-550.1"
         id="polygon4207" />
    </g>
    <!-- D8 -->
    <g
       id="node5"
       class="node">
      <title
         id="title4210">D8</title>
      <polygon
         fill="none"
         stroke="black"
         points="197.5,-468 135.83,-450 197.5,-432 259.17,-450 197.5,-468"
         id="polygon4212" />
      <text
         text-anchor="middle"
         x="197.5"
         y="-446.3"
         font-family="Times,serif"
         font-size="14.00"
         id="text4214">(!target)?</text>
    </g>
    <!-- D6&#45;&gt;D8 -->
    <g
       id="edge2"
       class="edge">
      <title
         id="title4217">D6-&gt;D8</title>
      <path
         fill="none"
         stroke="black"
         d="M197.5,-503.7C197.5,-495.98 197.5,-486.71 197.5,-478.11"
         id="path4219" />
      <polygon
         fill="black"
         stroke="black"
         points="201,-478.1 197.5,-468.1 194,-478.1 201,-478.1"
         id="polygon4221" />
    </g>
    <!-- D13 -->
    <g
       id="node6"
       class="node"
       transform="translate(12.091702,-0.63640538)">
      <title
         id="title4224">D13</title>
      <polygon
         fill="none"
         stroke="#000000"
         points="96,-324 96,-288 197,-288 197,-324 "
         id="polygon4226" />
      <text
         text-anchor="middle"
         x="146.5"
         y="-302.29999"
         font-family="Times, serif"
         font-size="14px"
         id="text4228">return ERROR;</text>
    </g>
    <!-- D8&#45;&gt;D13 -->
    <g
       id="edge4"
       class="edge">
      <title
         id="title4231">D8:s-&gt;D13:n</title>
      <path
         fill="none"
         stroke="#000000"
         d="m 197.5,-432 -0.71633,100.74462"
         id="path4233"
         sodipodi:nodetypes="cc" />
      <polygon
         fill="#000000"
         stroke="#000000"
         points="153.93,-331.55 146.5,-324 147.61,-334.54 "
         id="polygon4235"
         transform="rotate(-25.615662,168.42384,-434.51117)" />
      <text
         text-anchor="middle"
         x="169.17"
         y="-386.4"
         font-family="Times,serif"
         font-size="14.00"
         id="text4237">Y</text>
    </g>
    <!-- D15 -->
    <g
       id="node7"
       class="node">
      <title
         id="title4240">D15</title>
      <polygon
         fill="none"
         stroke="black"
         points="391.5,-396 209.5,-396 209.5,-360 391.5,-360 391.5,-396"
         id="polygon4242" />
      <text
         text-anchor="middle"
         x="300.5"
         y="-374.3"
         font-family="Times,serif"
         font-size="14.00"
         id="text4244">s = insert_node(target, LR, c);</text>
    </g>
    <!-- D8&#45;&gt;D15 -->
    <g
       id="edge3"
       class="edge">
      <title
         id="title4247">D8:e-&gt;D15:n</title>
      <path
         fill="none"
         stroke="#000000"
         d="m 260.5,-450 0.78829,47.01604"
         id="path4249"
         sodipodi:nodetypes="cc" />
      <polygon
         fill="#000000"
         stroke="#000000"
         points="291.74,-401.95 297.36,-406.12 300.5,-396 "
         id="polygon4251"
         transform="rotate(33.30071,283.13889,-460.56021)" />
      <text
         text-anchor="middle"
         x="272.38"
         y="-431.02"
         font-family="Times,serif"
         font-size="14.00"
         id="text4253">N</text>
    </g>
    <!-- D13&#45;&gt;D1 -->
    <g
       id="edge5"
       class="edge">
      <title
         id="title4256">D13-&gt;D1</title>
      <path
         fill="none"
         stroke="black"
         d="M155.97,-287.97C182.7,-239.89 258.84,-102.93 290.94,-45.19"
         id="path4258" />
      <polygon
         fill="black"
         stroke="black"
         points="294.08,-46.75 295.88,-36.31 287.96,-43.35 294.08,-46.75"
         id="polygon4260" />
    </g>
    <!-- D17 -->
    <g
       id="node8"
       class="node">
      <title
         id="title4263">D17</title>
      <polygon
         fill="none"
         stroke="black"
         points="312.5,-324 215.14,-306 312.5,-288 409.86,-306 312.5,-324"
         id="polygon4265" />
      <text
         text-anchor="middle"
         x="312.5"
         y="-302.3"
         font-family="Times,serif"
         font-size="14.00"
         id="text4267">(s == ERROR)?</text>
    </g>
    <!-- D15&#45;&gt;D17 -->
    <g
       id="edge6"
       class="edge">
      <title
         id="title4270">D15-&gt;D17</title>
      <path
         fill="none"
         stroke="black"
         d="M303.47,-359.7C304.81,-351.87 306.43,-342.44 307.92,-333.73"
         id="path4272" />
      <polygon
         fill="black"
         stroke="black"
         points="311.41,-334.07 309.65,-323.62 304.51,-332.89 311.41,-334.07"
         id="polygon4274" />
    </g>
    <!-- D22 -->
    <g
       id="node9"
       class="node">
      <title
         id="title4277">D22</title>
      <polygon
         fill="none"
         stroke="black"
         points="336.5,-180 274.5,-180 274.5,-144 336.5,-144 336.5,-180"
         id="polygon4279" />
      <text
         text-anchor="middle"
         x="305.5"
         y="-158.3"
         font-family="Times,serif"
         font-size="14.00"
         id="text4281">return s;</text>
    </g>
    <!-- D17&#45;&gt;D22 -->
    <g
       id="edge8"
       class="edge">
      <title
         id="title4284">D17:s-&gt;D22:n</title>
      <path
         fill="none"
         stroke="black"
         d="M312.5,-288C312.5,-288 307.92,-217.39 306.17,-190.36"
         id="path4286" />
      <polygon
         fill="black"
         stroke="black"
         points="309.64,-189.75 305.5,-180 302.65,-190.21 309.64,-189.75"
         id="polygon4288" />
      <text
         text-anchor="middle"
         x="304.34"
         y="-242.98"
         font-family="Times,serif"
         font-size="14.00"
         id="text4290">Y</text>
    </g>
    <!-- D24 -->
    <g
       id="node10"
       class="node">
      <title
         id="title4293">D24</title>
      <polygon
         fill="none"
         stroke="black"
         points="410.5,-252 333.08,-234 410.5,-216 487.92,-234 410.5,-252"
         id="polygon4295" />
      <text
         text-anchor="middle"
         x="410.5"
         y="-230.3"
         font-family="Times,serif"
         font-size="14.00"
         id="text4297">(LR == -1)?</text>
    </g>
    <!-- D17&#45;&gt;D24 -->
    <g
       id="edge7"
       class="edge">
      <title
         id="title4300">D17:e-&gt;D24:n</title>
      <path
         fill="none"
         stroke="black"
         d="M411.5,-306C411.5,-306 410.98,-278.1 410.69,-262.41"
         id="path4302" />
      <polygon
         fill="black"
         stroke="black"
         points="414.18,-261.93 410.5,-252 407.19,-262.06 414.18,-261.93"
         id="polygon4304" />
      <text
         text-anchor="middle"
         x="406.1"
         y="-273.01"
         font-family="Times,serif"
         font-size="14.00"
         id="text4306">N</text>
    </g>
    <!-- D22&#45;&gt;D1 -->
    <g
       id="edge9"
       class="edge">
      <title
         id="title4309">D22-&gt;D1</title>
      <path
         fill="none"
         stroke="black"
         d="M305.5,-143.87C305.5,-119.67 305.5,-75.21 305.5,-46.39"
         id="path4311" />
      <polygon
         fill="black"
         stroke="black"
         points="309,-46.19 305.5,-36.19 302,-46.19 309,-46.19"
         id="polygon4313" />
    </g>
    <!-- D29 -->
    <g
       id="node11"
       class="node">
      <title
         id="title4316">D29</title>
      <polygon
         fill="none"
         stroke="black"
         points="448,-180 373,-180 373,-144 448,-144 448,-180"
         id="polygon4318" />
      <text
         text-anchor="middle"
         x="410.5"
         y="-158.3"
         font-family="Times,serif"
         font-size="14.00"
         id="text4320">T = target;</text>
    </g>
    <!-- D24&#45;&gt;D29 -->
    <g
       id="edge12"
       class="edge">
      <title
         id="title4323">D24:s-&gt;D29:n</title>
      <path
         fill="none"
         stroke="black"
         d="M410.5,-216C410.5,-216 410.5,-200.86 410.5,-190.22"
         id="path4325" />
      <polygon
         fill="black"
         stroke="black"
         points="414,-190 410.5,-180 407,-190 414,-190"
         id="polygon4327" />
      <text
         text-anchor="middle"
         x="405.5"
         y="-191.91"
         font-family="Times,serif"
         font-size="14.00"
         id="text4329">Y</text>
    </g>
    <!-- D31 -->
    <g
       id="node12"
       class="node">
      <title
         id="title4332">D31</title>
      <polygon
         fill="none"
         stroke="black"
         points="448.5,-108 372.5,-108 372.5,-72 448.5,-72 448.5,-108"
         id="polygon4334" />
      <text
         text-anchor="middle"
         x="410.5"
         y="-86.3"
         font-family="Times,serif"
         font-size="14.00"
         id="text4336">return OK;</text>
    </g>
    <!-- D24&#45;&gt;D31 -->
    <g
       id="edge10"
       class="edge">
      <title
         id="title4339">D24:e-&gt;D31:n</title>
      <path
         fill="none"
         stroke="#000000"
         d="m 487.77999,-234.86001 0.68027,107.20015 -78.37033,0.48975"
         id="path4341"
         sodipodi:nodetypes="ccc" />
      <text
         text-anchor="middle"
         x="461.9"
         y="-169.63"
         font-family="Times,serif"
         font-size="14.00"
         id="text4345">N</text>
    </g>
    <!-- D29&#45;&gt;D31 -->
    <g
       id="edge11"
       class="edge">
      <title
         id="title4348">D29-&gt;D31</title>
      <path
         fill="none"
         stroke="black"
         d="M410.5,-143.7C410.5,-135.98 410.5,-126.71 410.5,-118.11"
         id="path4350" />
      <polygon
         fill="black"
         stroke="black"
         points="414,-118.1 410.5,-108.1 407,-118.1 414,-118.1"
         id="polygon4352" />
    </g>
    <!-- D31&#45;&gt;D1 -->
    <g
       id="edge13"
       class="edge">
      <title
         id="title4355">D31-&gt;D1</title>
      <path
         fill="none"
         stroke="black"
         d="M384.81,-71.88C371.21,-62.81 354.33,-51.55 339.64,-41.76"
         id="path4357" />
      <polygon
         fill="black"
         stroke="black"
         points="341.55,-38.82 331.28,-36.19 337.66,-44.65 341.55,-38.82"
         id="polygon4359" />
    </g>
  </g>
</svg>
