<?xml version="1.0" encoding="UTF-8" standalone="no"?>
<!-- Generated by graphviz version 3.0.0 (20220226.1711)
 -->

<!-- Pages: 1 -->

<svg
   width="930pt"
   height="1124pt"
   viewBox="0.00 0.00 930.21 1124.00"
   version="1.1"
   id="svg6089"
   sodipodi:docname="lca.svg"
   inkscape:export-filename="lca.png"
   inkscape:export-xdpi="96"
   inkscape:export-ydpi="96"
   inkscape:version="1.2 (dc2aeda, 2022-05-15)"
   xmlns:inkscape="http://www.inkscape.org/namespaces/inkscape"
   xmlns:sodipodi="http://sodipodi.sourceforge.net/DTD/sodipodi-0.dtd"
   xmlns="http://www.w3.org/2000/svg"
   xmlns:svg="http://www.w3.org/2000/svg">
  <defs
     id="defs6093" />
  <sodipodi:namedview
     id="namedview6091"
     pagecolor="#ffffff"
     bordercolor="#666666"
     borderopacity="1.0"
     inkscape:showpageshadow="2"
     inkscape:pageopacity="0.0"
     inkscape:pagecheckerboard="0"
     inkscape:deskcolor="#d1d1d1"
     inkscape:document-units="pt"
     showgrid="false"
     inkscape:zoom="0.50463061"
     inkscape:cx="461.72387"
     inkscape:cy="852.10844"
     inkscape:window-width="1313"
     inkscape:window-height="700"
     inkscape:window-x="0"
     inkscape:window-y="25"
     inkscape:window-maximized="0"
     inkscape:current-layer="svg6089" />
  <g
     id="graph0"
     class="graph"
     transform="scale(1 1) rotate(0) translate(4 1120)">
    <polygon
       fill="white"
       stroke="transparent"
       points="-4,4 -4,-1120 926.21,-1120 926.21,4 -4,4"
       id="polygon5705" />
    <!-- D0 -->
    <g
       id="node1"
       class="node">
      <title
         id="title5707">D0</title>
      <path
         fill="none"
         stroke="black"
         d="M154.71,-1116C154.71,-1116 124.71,-1116 124.71,-1116 118.71,-1116 112.71,-1110 112.71,-1104 112.71,-1104 112.71,-1092 112.71,-1092 112.71,-1086 118.71,-1080 124.71,-1080 124.71,-1080 154.71,-1080 154.71,-1080 160.71,-1080 166.71,-1086 166.71,-1092 166.71,-1092 166.71,-1104 166.71,-1104 166.71,-1110 160.71,-1116 154.71,-1116"
         id="path5709" />
      <text
         text-anchor="middle"
         x="139.71"
         y="-1094.3"
         font-family="Times,serif"
         font-size="14.00"
         id="text5711">begin</text>
    </g>
    <!-- D4 -->
    <g
       id="node3"
       class="node">
      <title
         id="title5714">D4</title>
      <polygon
         fill="none"
         stroke="black"
         points="167.71,-1044 111.71,-1044 111.71,-1008 167.71,-1008 167.71,-1044"
         id="polygon5716" />
      <text
         text-anchor="middle"
         x="139.71"
         y="-1022.3"
         font-family="Times,serif"
         font-size="14.00"
         id="text5718">init(T);</text>
    </g>
    <!-- D0&#45;&gt;D4 -->
    <g
       id="edge28"
       class="edge">
      <title
         id="title5721">D0-&gt;D4</title>
      <path
         fill="none"
         stroke="black"
         d="M139.71,-1079.7C139.71,-1071.98 139.71,-1062.71 139.71,-1054.11"
         id="path5723" />
      <polygon
         fill="black"
         stroke="black"
         points="143.21,-1054.1 139.71,-1044.1 136.21,-1054.1 143.21,-1054.1"
         id="polygon5725" />
    </g>
    <!-- D1 -->
    <g
       id="node2"
       class="node">
      <title
         id="title5728">D1</title>
      <path
         fill="none"
         stroke="black"
         d="M538.71,-36C538.71,-36 508.71,-36 508.71,-36 502.71,-36 496.71,-30 496.71,-24 496.71,-24 496.71,-12 496.71,-12 496.71,-6 502.71,0 508.71,0 508.71,0 538.71,0 538.71,0 544.71,0 550.71,-6 550.71,-12 550.71,-12 550.71,-24 550.71,-24 550.71,-30 544.71,-36 538.71,-36"
         id="path5730" />
      <text
         text-anchor="middle"
         x="523.71"
         y="-14.3"
         font-family="Times,serif"
         font-size="14.00"
         id="text5732">end</text>
    </g>
    <!-- D6 -->
    <g
       id="node4"
       class="node">
      <title
         id="title5735">D6</title>
      <polygon
         fill="none"
         stroke="black"
         points="188.21,-972 91.21,-972 91.21,-936 188.21,-936 188.21,-972"
         id="polygon5737" />
      <text
         text-anchor="middle"
         x="139.71"
         y="-950.3"
         font-family="Times,serif"
         font-size="14.00"
         id="text5739">dfs(T, NULL);</text>
    </g>
    <!-- D4&#45;&gt;D6 -->
    <g
       id="edge1"
       class="edge">
      <title
         id="title5742">D4-&gt;D6</title>
      <path
         fill="none"
         stroke="black"
         d="M139.71,-1007.7C139.71,-999.98 139.71,-990.71 139.71,-982.11"
         id="path5744" />
      <polygon
         fill="black"
         stroke="black"
         points="143.21,-982.1 139.71,-972.1 136.21,-982.1 143.21,-982.1"
         id="polygon5746" />
    </g>
    <!-- D8 -->
    <g
       id="node5"
       class="node">
      <title
         id="title5749">D8</title>
      <polygon
         fill="none"
         stroke="black"
         points="139.71,-900 -0.21,-882 139.71,-864 279.64,-882 139.71,-900"
         id="polygon5751" />
      <text
         text-anchor="middle"
         x="139.71"
         y="-878.3"
         font-family="Times,serif"
         font-size="14.00"
         id="text5753">(depth[n1] &gt; depth[n2])?</text>
    </g>
    <!-- D6&#45;&gt;D8 -->
    <g
       id="edge2"
       class="edge">
      <title
         id="title5756">D6-&gt;D8</title>
      <path
         fill="none"
         stroke="black"
         d="M139.71,-935.7C139.71,-927.98 139.71,-918.71 139.71,-910.11"
         id="path5758" />
      <polygon
         fill="black"
         stroke="black"
         points="143.21,-910.1 139.71,-900.1 136.21,-910.1 143.21,-910.1"
         id="polygon5760" />
    </g>
    <!-- D13 -->
    <g
       id="node6"
       class="node">
      <title
         id="title5763">D13</title>
      <polygon
         fill="none"
         stroke="black"
         points="224.21,-828 109.21,-828 109.21,-792 224.21,-792 224.21,-828"
         id="polygon5765" />
      <text
         text-anchor="middle"
         x="166.71"
         y="-806.3"
         font-family="Times,serif"
         font-size="14.00"
         id="text5767">std::swap(n1, n2);</text>
    </g>
    <!-- D8&#45;&gt;D13 -->
    <g
       id="edge6"
       class="edge">
      <title
         id="title5770">D8:s-&gt;D13:n</title>
      <path
         fill="none"
         stroke="black"
         d="M139.71,-864C139.71,-864 152.47,-846.98 160.45,-836.35"
         id="path5772" />
      <polygon
         fill="black"
         stroke="black"
         points="163.51,-838.1 166.71,-828 157.91,-833.9 163.51,-838.1"
         id="polygon5774" />
      <text
         text-anchor="middle"
         x="145.08"
         y="-838.97"
         font-family="Times,serif"
         font-size="14.00"
         id="text5776">Y</text>
    </g>
    <!-- D15 -->
    <g
       id="node7"
       class="node">
      <title
         id="title5779">D15</title>
      <polygon
         fill="none"
         stroke="black"
         points="335.21,-756 138.21,-756 138.21,-720 335.21,-720 335.21,-756"
         id="polygon5781" />
      <text
         text-anchor="middle"
         x="236.71"
         y="-734.3"
         font-family="Times,serif"
         font-size="14.00"
         id="text5783">int delta = depth[n2] - depth[n1];</text>
    </g>
    <!-- D8&#45;&gt;D15 -->
    <g
       id="edge3"
       class="edge">
      <title
         id="title5786">D8:e-&gt;D15:n</title>
      <path
         fill="none"
         stroke="black"
         d="M280.71,-882C280.71,-882 279.71,-864 279.71,-864 279.71,-864 251.05,-792.02 240.53,-765.58"
         id="path5788" />
      <polygon
         fill="black"
         stroke="black"
         points="243.66,-764 236.71,-756 237.16,-766.59 243.66,-764"
         id="polygon5790" />
      <text
         text-anchor="middle"
         x="258.45"
         y="-826.97"
         font-family="Times,serif"
         font-size="14.00"
         id="text5792">N</text>
    </g>
    <!-- D13&#45;&gt;D15 -->
    <g
       id="edge4"
       class="edge">
      <title
         id="title5795">D13-&gt;D15</title>
      <path
         fill="none"
         stroke="black"
         d="M184.02,-791.7C192.58,-783.14 203.06,-772.66 212.41,-763.3"
         id="path5797" />
      <polygon
         fill="black"
         stroke="black"
         points="215.01,-765.65 219.61,-756.1 210.06,-760.7 215.01,-765.65"
         id="polygon5799" />
    </g>
    <!-- D20 -->
    <g
       id="node9"
       class="node">
      <title
         id="title5802">D20</title>
      <polygon
         fill="none"
         stroke="black"
         points="269.21,-684 204.21,-684 204.21,-648 269.21,-648 269.21,-684"
         id="polygon5804" />
      <text
         text-anchor="middle"
         x="236.71"
         y="-662.3"
         font-family="Times,serif"
         font-size="14.00"
         id="text5806">int j = 0;</text>
    </g>
    <!-- D15&#45;&gt;D20 -->
    <g
       id="edge5"
       class="edge">
      <title
         id="title5809">D15-&gt;D20</title>
      <path
         fill="none"
         stroke="black"
         d="M236.71,-719.7C236.71,-711.98 236.71,-702.71 236.71,-694.11"
         id="path5811" />
      <polygon
         fill="black"
         stroke="black"
         points="240.21,-694.1 236.71,-684.1 233.21,-694.1 240.21,-694.1"
         id="polygon5813" />
    </g>
    <!-- D19 -->
    <g
       id="node8"
       class="node">
      <title
         id="title5816">D19</title>
      <polygon
         fill="none"
         stroke="black"
         points="236.71,-612 191.63,-594 236.71,-576 281.79,-594 236.71,-612"
         id="polygon5818" />
      <text
         text-anchor="middle"
         x="236.71"
         y="-590.3"
         font-family="Times,serif"
         font-size="14.00"
         id="text5820">delta?</text>
    </g>
    <!-- D24 -->
    <g
       id="node11"
       class="node">
      <title
         id="title5823">D24</title>
      <polygon
         fill="none"
         stroke="black"
         points="236.71,-540 160.63,-522 236.71,-504 312.79,-522 236.71,-540"
         id="polygon5825" />
      <text
         text-anchor="middle"
         x="236.71"
         y="-518.3"
         font-family="Times,serif"
         font-size="14.00"
         id="text5827">(delta &amp; 1)?</text>
    </g>
    <!-- D19&#45;&gt;D24 -->
    <g
       id="edge14"
       class="edge">
      <title
         id="title5830">D19:s-&gt;D24:n</title>
      <path
         fill="none"
         stroke="black"
         d="M236.71,-576C236.71,-576 236.71,-560.86 236.71,-550.22"
         id="path5832" />
      <polygon
         fill="black"
         stroke="black"
         points="240.21,-550 236.71,-540 233.21,-550 240.21,-550"
         id="polygon5834" />
      <text
         text-anchor="middle"
         x="231.71"
         y="-551.91"
         font-family="Times,serif"
         font-size="14.00"
         id="text5836">Y</text>
    </g>
    <!-- D31 -->
    <g
       id="node13"
       class="node">
      <title
         id="title5839">D31</title>
      <polygon
         fill="none"
         stroke="black"
         points="407.71,-540 331.63,-522 407.71,-504 483.79,-522 407.71,-540"
         id="polygon5841" />
      <text
         text-anchor="middle"
         x="407.71"
         y="-518.3"
         font-family="Times,serif"
         font-size="14.00"
         id="text5843">(n2 == n1)?</text>
    </g>
    <!-- D19&#45;&gt;D31 -->
    <g
       id="edge7"
       class="edge">
      <title
         id="title5846">D19:e-&gt;D31:n</title>
      <path
         fill="none"
         stroke="black"
         d="M282.71,-594C282.71,-594 369.25,-556.62 398.32,-544.06"
         id="path5848" />
      <polygon
         fill="black"
         stroke="black"
         points="399.92,-547.18 407.71,-540 397.14,-540.75 399.92,-547.18"
         id="polygon5850" />
      <text
         text-anchor="middle"
         x="335.51"
         y="-572.83"
         font-family="Times,serif"
         font-size="14.00"
         id="text5852">N</text>
    </g>
    <!-- D20&#45;&gt;D19 -->
    <g
       id="edge8"
       class="edge">
      <title
         id="title5855">D20-&gt;D19</title>
      <path
         fill="none"
         stroke="black"
         d="M236.71,-647.7C236.71,-639.98 236.71,-630.71 236.71,-622.11"
         id="path5857" />
      <polygon
         fill="black"
         stroke="black"
         points="240.21,-622.1 236.71,-612.1 233.21,-622.1 240.21,-622.1"
         id="polygon5859" />
    </g>
    <!-- D21 -->
    <g
       id="node10"
       class="node">
      <title
         id="title5862">D21</title>
      <polygon
         fill="none"
         stroke="black"
         points="281.71,-396 171.71,-396 171.71,-360 281.71,-360 281.71,-396"
         id="polygon5864" />
      <text
         text-anchor="middle"
         x="226.71"
         y="-374.3"
         font-family="Times,serif"
         font-size="14.00"
         id="text5866">++j, delta &gt;&gt;= 1</text>
    </g>
    <!-- D21&#45;&gt;D19 -->
    <g
       id="edge10"
       class="edge">
      <title
         id="title5869">D21-&gt;D19</title>
      <path
         fill="none"
         stroke="black"
         d="M205.14,-396.06C185.56,-411.55 159.71,-432 159.71,-432 159.71,-432 151.71,-504 151.71,-504 151.71,-504 151.71,-540 151.71,-540 151.71,-540 186.17,-561.48 211.2,-577.09"
         id="path5871" />
      <polygon
         fill="black"
         stroke="black"
         points="209.58,-580.21 219.92,-582.53 213.28,-574.27 209.58,-580.21"
         id="polygon5873" />
    </g>
    <!-- D24&#45;&gt;D21 -->
    <g
       id="edge9"
       class="edge">
      <title
         id="title5876">D24:e-&gt;D21:n</title>
      <path
         fill="none"
         stroke="black"
         d="M313.71,-522C313.71,-522 312.71,-504 312.71,-504 312.71,-504 293.71,-432 293.71,-432 293.71,-432 254.04,-410.68 235.75,-400.86"
         id="path5878" />
      <polygon
         fill="black"
         stroke="black"
         points="237.18,-397.65 226.71,-396 233.86,-403.82 237.18,-397.65"
         id="polygon5880" />
      <text
         text-anchor="middle"
         x="292.12"
         y="-448.7"
         font-family="Times,serif"
         font-size="14.00"
         id="text5882">N</text>
    </g>
    <!-- D29 -->
    <g
       id="node12"
       class="node">
      <title
         id="title5885">D29</title>
      <polygon
         fill="none"
         stroke="black"
         points="284.71,-468 168.71,-468 168.71,-432 284.71,-432 284.71,-468"
         id="polygon5887" />
      <text
         text-anchor="middle"
         x="226.71"
         y="-446.3"
         font-family="Times,serif"
         font-size="14.00"
         id="text5889">n2 = father[n2][j];</text>
    </g>
    <!-- D24&#45;&gt;D29 -->
    <g
       id="edge13"
       class="edge">
      <title
         id="title5892">D24:s-&gt;D29:n</title>
      <path
         fill="none"
         stroke="black"
         d="M236.71,-504C236.71,-504 232.41,-488.5 229.44,-477.84"
         id="path5894" />
      <polygon
         fill="black"
         stroke="black"
         points="232.76,-476.7 226.71,-468 226.02,-478.57 232.76,-476.7"
         id="polygon5896" />
      <text
         text-anchor="middle"
         x="228.08"
         y="-479.72"
         font-family="Times,serif"
         font-size="14.00"
         id="text5898">Y</text>
    </g>
    <!-- D29&#45;&gt;D21 -->
    <g
       id="edge11"
       class="edge">
      <title
         id="title5901">D29-&gt;D21</title>
      <path
         fill="none"
         stroke="black"
         d="M226.71,-431.7C226.71,-423.98 226.71,-414.71 226.71,-406.11"
         id="path5903" />
      <polygon
         fill="black"
         stroke="black"
         points="230.21,-406.1 226.71,-396.1 223.21,-406.1 230.21,-406.1"
         id="polygon5905" />
    </g>
    <!-- D34 -->
    <g
       id="node14"
       class="node">
      <title
         id="title5908">D34</title>
      <polygon
         fill="none"
         stroke="black"
         points="491.71,-108 421.71,-108 421.71,-72 491.71,-72 491.71,-108"
         id="polygon5910" />
      <text
         text-anchor="middle"
         x="456.71"
         y="-86.3"
         font-family="Times,serif"
         font-size="14.00"
         id="text5912">return n2;</text>
    </g>
    <!-- D31&#45;&gt;D34 -->
    <g
       id="edge17"
       class="edge">
      <title
         id="title5915">D31:s-&gt;D34:n</title>
      <path
         fill="none"
         stroke="black"
         d="M407.71,-504C407.71,-504 378.71,-379 378.71,-379 378.71,-379 378.71,-379 378.71,-233 378.71,-233 433.73,-144.83 451.35,-116.59"
         id="path5917" />
      <polygon
         fill="black"
         stroke="black"
         points="454.39,-118.34 456.71,-108 448.45,-114.63 454.39,-118.34"
         id="polygon5919" />
      <text
         text-anchor="middle"
         x="373.71"
         y="-305.35"
         font-family="Times,serif"
         font-size="14.00"
         id="text5921">Y</text>
    </g>
    <!-- D39 -->
    <g
       id="node16"
       class="node">
      <title
         id="title5924">D39</title>
      <polygon
         fill="none"
         stroke="black"
         points="563.21,-468 492.21,-468 492.21,-432 563.21,-432 563.21,-468"
         id="polygon5926" />
      <text
         text-anchor="middle"
         x="527.71"
         y="-446.3"
         font-family="Times,serif"
         font-size="14.00"
         id="text5928">int j = 30;</text>
    </g>
    <!-- D31&#45;&gt;D39 -->
    <g
       id="edge12"
       class="edge">
      <title
         id="title5931">D31:e-&gt;D39:n</title>
      <path
         fill="none"
         stroke="black"
         d="M484.71,-522C484.71,-522 509.41,-490.99 521.37,-475.97"
         id="path5933" />
      <polygon
         fill="black"
         stroke="black"
         points="524.22,-478 527.71,-468 518.74,-473.64 524.22,-478"
         id="polygon5935" />
      <text
         text-anchor="middle"
         x="498.04"
         y="-502.78"
         font-family="Times,serif"
         font-size="14.00"
         id="text5937">N</text>
    </g>
    <!-- D34&#45;&gt;D1 -->
    <g
       id="edge16"
       class="edge">
      <title
         id="title5940">D34-&gt;D1</title>
      <path
         fill="none"
         stroke="black"
         d="M473.27,-71.7C481.39,-63.22 491.3,-52.86 500.18,-43.58"
         id="path5942" />
      <polygon
         fill="black"
         stroke="black"
         points="502.95,-45.75 507.34,-36.1 497.9,-40.91 502.95,-45.75"
         id="polygon5944" />
    </g>
    <!-- D38 -->
    <g
       id="node15"
       class="node">
      <title
         id="title5947">D38</title>
      <polygon
         fill="none"
         stroke="black"
         points="571.71,-396 448.38,-378 571.71,-360 695.05,-378 571.71,-396"
         id="polygon5949" />
      <text
         text-anchor="middle"
         x="571.71"
         y="-374.3"
         font-family="Times,serif"
         font-size="14.00"
         id="text5951">j &gt;= 0 &amp;&amp; n2 != n1?</text>
    </g>
    <!-- D43 -->
    <g
       id="node18"
       class="node">
      <title
         id="title5954">D43</title>
      <polygon
         fill="none"
         stroke="black"
         points="614.71,-324 444.62,-306 614.71,-288 784.8,-306 614.71,-324"
         id="polygon5956" />
      <text
         text-anchor="middle"
         x="614.71"
         y="-302.3"
         font-family="Times,serif"
         font-size="14.00"
         id="text5958">(father[n2][j] != father[n1][j])?</text>
    </g>
    <!-- D38&#45;&gt;D43 -->
    <g
       id="edge25"
       class="edge">
      <title
         id="title5961">D38:s-&gt;D43:n</title>
      <path
         fill="none"
         stroke="black"
         d="M571.71,-360C571.71,-360 594.41,-341 606.83,-330.6"
         id="path5963" />
      <polygon
         fill="black"
         stroke="black"
         points="609.29,-333.1 614.71,-324 604.8,-327.74 609.29,-333.1"
         id="polygon5965" />
      <text
         text-anchor="middle"
         x="584.27"
         y="-349.1"
         font-family="Times,serif"
         font-size="14.00"
         id="text5967">Y</text>
    </g>
    <!-- D52 -->
    <g
       id="node21"
       class="node">
      <title
         id="title5970">D52</title>
      <polygon
         fill="none"
         stroke="black"
         points="922.21,-324 803.21,-324 803.21,-288 922.21,-288 922.21,-324"
         id="polygon5972" />
      <text
         text-anchor="middle"
         x="862.71"
         y="-302.3"
         font-family="Times,serif"
         font-size="14.00"
         id="text5974">n2 = father[n2][0];</text>
    </g>
    <!-- D38&#45;&gt;D52 -->
    <g
       id="edge15"
       class="edge">
      <title
         id="title5977">D38:e-&gt;D52:n</title>
      <path
         fill="none"
         stroke="black"
         d="M695.71,-378C695.71,-378 816.81,-338.84 852.77,-327.22"
         id="path5979" />
      <polygon
         fill="black"
         stroke="black"
         points="854.27,-330.41 862.71,-324 852.12,-323.75 854.27,-330.41"
         id="polygon5981" />
      <text
         text-anchor="middle"
         x="769.24"
         y="-356.41"
         font-family="Times,serif"
         font-size="14.00"
         id="text5983">N</text>
    </g>
    <!-- D39&#45;&gt;D38 -->
    <g
       id="edge18"
       class="edge">
      <title
         id="title5986">D39-&gt;D38</title>
      <path
         fill="none"
         stroke="black"
         d="M538.59,-431.7C543.99,-423.11 550.6,-412.58 556.49,-403.21"
         id="path5988" />
      <polygon
         fill="black"
         stroke="black"
         points="559.5,-405 561.86,-394.67 553.58,-401.27 559.5,-405"
         id="polygon5990" />
    </g>
    <!-- D40 -->
    <g
       id="node17"
       class="node">
      <title
         id="title5993">D40</title>
      <polygon
         fill="none"
         stroke="black"
         points="641.71,-108 587.71,-108 587.71,-72 641.71,-72 641.71,-108"
         id="polygon5995" />
      <text
         text-anchor="middle"
         x="614.71"
         y="-86.3"
         font-family="Times,serif"
         font-size="14.00"
         id="text5997">--j</text>
    </g>
    <!-- D40&#45;&gt;D38 -->
    <g
       id="edge20"
       class="edge">
      <title
         id="title6000">D40-&gt;D38</title>
      <path
         fill="none"
         stroke="black"
         d="M593.14,-108.06C573.56,-123.55 547.71,-144 547.71,-144 547.71,-144 435.71,-288 435.71,-288 435.71,-288 435.71,-324 435.71,-324 435.71,-324 490.26,-345.26 530.27,-360.85"
         id="path6002" />
      <polygon
         fill="black"
         stroke="black"
         points="529.24,-364.2 539.83,-364.57 531.78,-357.68 529.24,-364.2"
         id="polygon6004" />
    </g>
    <!-- D43&#45;&gt;D40 -->
    <g
       id="edge19"
       class="edge">
      <title
         id="title6007">D43:e-&gt;D40:n</title>
      <path
         fill="none"
         stroke="black"
         d="M785.71,-306C785.71,-306 784.71,-288 784.71,-288 784.71,-288 681.71,-144 681.71,-144 681.71,-144 642.04,-122.68 623.75,-112.86"
         id="path6009" />
      <polygon
         fill="black"
         stroke="black"
         points="625.18,-109.65 614.71,-108 621.86,-115.82 625.18,-109.65"
         id="polygon6011" />
      <text
         text-anchor="middle"
         x="714.32"
         y="-200.37"
         font-family="Times,serif"
         font-size="14.00"
         id="text6013">N</text>
    </g>
    <!-- D48 -->
    <g
       id="node19"
       class="node">
      <title
         id="title6016">D48</title>
      <polygon
         fill="none"
         stroke="black"
         points="672.71,-252 556.71,-252 556.71,-216 672.71,-216 672.71,-252"
         id="polygon6018" />
      <text
         text-anchor="middle"
         x="614.71"
         y="-230.3"
         font-family="Times,serif"
         font-size="14.00"
         id="text6020">n2 = father[n2][j];</text>
    </g>
    <!-- D43&#45;&gt;D48 -->
    <g
       id="edge24"
       class="edge">
      <title
         id="title6023">D43:s-&gt;D48:n</title>
      <path
         fill="none"
         stroke="black"
         d="M614.71,-288C614.71,-288 614.71,-272.86 614.71,-262.22"
         id="path6025" />
      <polygon
         fill="black"
         stroke="black"
         points="618.21,-262 614.71,-252 611.21,-262 618.21,-262"
         id="polygon6027" />
      <text
         text-anchor="middle"
         x="609.71"
         y="-263.91"
         font-family="Times,serif"
         font-size="14.00"
         id="text6029">Y</text>
    </g>
    <!-- D50 -->
    <g
       id="node20"
       class="node">
      <title
         id="title6032">D50</title>
      <polygon
         fill="none"
         stroke="black"
         points="672.71,-180 556.71,-180 556.71,-144 672.71,-144 672.71,-180"
         id="polygon6034" />
      <text
         text-anchor="middle"
         x="614.71"
         y="-158.3"
         font-family="Times,serif"
         font-size="14.00"
         id="text6036">n1 = father[n1][j];</text>
    </g>
    <!-- D48&#45;&gt;D50 -->
    <g
       id="edge21"
       class="edge">
      <title
         id="title6039">D48-&gt;D50</title>
      <path
         fill="none"
         stroke="black"
         d="M614.71,-215.7C614.71,-207.98 614.71,-198.71 614.71,-190.11"
         id="path6041" />
      <polygon
         fill="black"
         stroke="black"
         points="618.21,-190.1 614.71,-180.1 611.21,-190.1 618.21,-190.1"
         id="polygon6043" />
    </g>
    <!-- D50&#45;&gt;D40 -->
    <g
       id="edge22"
       class="edge">
      <title
         id="title6046">D50-&gt;D40</title>
      <path
         fill="none"
         stroke="black"
         d="M614.71,-143.7C614.71,-135.98 614.71,-126.71 614.71,-118.11"
         id="path6048" />
      <polygon
         fill="black"
         stroke="black"
         points="618.21,-118.1 614.71,-108.1 611.21,-118.1 618.21,-118.1"
         id="polygon6050" />
    </g>
    <!-- D54 -->
    <g
       id="node22"
       class="node">
      <title
         id="title6053">D54</title>
      <polygon
         fill="none"
         stroke="black"
         points="903.21,-252 784.21,-252 784.21,-216 903.21,-216 903.21,-252"
         id="polygon6055" />
      <text
         text-anchor="middle"
         x="843.71"
         y="-230.3"
         font-family="Times,serif"
         font-size="14.00"
         id="text6057">n1 = father[n1][0];</text>
    </g>
    <!-- D52&#45;&gt;D54 -->
    <g
       id="edge23"
       class="edge">
      <title
         id="title6060">D52-&gt;D54</title>
      <path
         fill="none"
         stroke="black"
         d="M858.02,-287.7C855.9,-279.9 853.35,-270.51 850.99,-261.83"
         id="path6062" />
      <polygon
         fill="black"
         stroke="black"
         points="854.35,-260.84 848.35,-252.1 847.6,-262.67 854.35,-260.84"
         id="polygon6064" />
    </g>
    <!-- D56 -->
    <g
       id="node23"
       class="node">
      <title
         id="title6067">D56</title>
      <polygon
         fill="none"
         stroke="black"
         points="847.71,-180 777.71,-180 777.71,-144 847.71,-144 847.71,-180"
         id="polygon6069" />
      <text
         text-anchor="middle"
         x="812.71"
         y="-158.3"
         font-family="Times,serif"
         font-size="14.00"
         id="text6071">return n2;</text>
    </g>
    <!-- D54&#45;&gt;D56 -->
    <g
       id="edge26"
       class="edge">
      <title
         id="title6074">D54-&gt;D56</title>
      <path
         fill="none"
         stroke="black"
         d="M836.05,-215.7C832.52,-207.73 828.26,-198.1 824.34,-189.26"
         id="path6076" />
      <polygon
         fill="black"
         stroke="black"
         points="827.54,-187.83 820.29,-180.1 821.14,-190.67 827.54,-187.83"
         id="polygon6078" />
    </g>
    <!-- D56&#45;&gt;D1 -->
    <g
       id="edge27"
       class="edge">
      <title
         id="title6081">D56-&gt;D1</title>
      <path
         fill="none"
         stroke="black"
         d="M781.48,-143.84C734.4,-117.98 650.71,-72 650.71,-72 650.71,-72 598.1,-50.04 560.6,-34.39"
         id="path6083" />
      <polygon
         fill="black"
         stroke="black"
         points="561.53,-30.99 550.96,-30.37 558.84,-37.45 561.53,-30.99"
         id="polygon6085" />
    </g>
  </g>
</svg>
