<?xml version="1.0" encoding="UTF-8" standalone="no"?>
<!-- Generated by graphviz version 3.0.0 (20220226.1711)
 -->

<!-- Pages: 1 -->

<svg
   width="1038pt"
   height="984pt"
   viewBox="0.00 0.00 1037.50 984.00"
   version="1.1"
   id="svg7207"
   sodipodi:docname="save_to_file.svg"
   inkscape:export-filename="save_to_file.png"
   inkscape:export-xdpi="96"
   inkscape:export-ydpi="96"
   inkscape:version="1.2 (dc2aeda, 2022-05-15)"
   xmlns:inkscape="http://www.inkscape.org/namespaces/inkscape"
   xmlns:sodipodi="http://sodipodi.sourceforge.net/DTD/sodipodi-0.dtd"
   xmlns="http://www.w3.org/2000/svg"
   xmlns:svg="http://www.w3.org/2000/svg">
  <defs
     id="defs7211" />
  <sodipodi:namedview
     id="namedview7209"
     pagecolor="#ffffff"
     bordercolor="#666666"
     borderopacity="1.0"
     inkscape:showpageshadow="2"
     inkscape:pageopacity="0.0"
     inkscape:pagecheckerboard="0"
     inkscape:deskcolor="#d1d1d1"
     inkscape:document-units="pt"
     showgrid="false"
     inkscape:zoom="0.42925766"
     inkscape:cx="309.83722"
     inkscape:cy="467.08543"
     inkscape:window-width="1313"
     inkscape:window-height="677"
     inkscape:window-x="0"
     inkscape:window-y="25"
     inkscape:window-maximized="0"
     inkscape:current-layer="svg7207" />
  <g
     id="graph0"
     class="graph"
     transform="scale(1 1) rotate(0) translate(4 980)">
    <polygon
       fill="white"
       stroke="transparent"
       points="-4,4 -4,-980 1033.5,-980 1033.5,4 -4,4"
       id="polygon6838" />
    <!-- D0 -->
    <g
       id="node1"
       class="node">
      <title
         id="title6840">D0</title>
      <path
         fill="none"
         stroke="black"
         d="M202,-976C202,-976 172,-976 172,-976 166,-976 160,-970 160,-964 160,-964 160,-952 160,-952 160,-946 166,-940 172,-940 172,-940 202,-940 202,-940 208,-940 214,-946 214,-952 214,-952 214,-964 214,-964 214,-970 208,-976 202,-976"
         id="path6842" />
      <text
         text-anchor="middle"
         x="187"
         y="-954.3"
         font-family="Times,serif"
         font-size="14.00"
         id="text6844">begin</text>
    </g>
    <!-- D4 -->
    <g
       id="node3"
       class="node">
      <title
         id="title6847">D4</title>
      <polygon
         fill="none"
         stroke="black"
         points="374,-904 0,-904 0,-866 374,-866 374,-904"
         id="polygon6849" />
      <text
         text-anchor="middle"
         x="187"
         y="-888.8"
         font-family="Times,serif"
         font-size="14.00"
         id="text6851">std::fstream s(filename, std::fstream::binary | std::fstream::trunc |</text>
      <text
         text-anchor="middle"
         x="187"
         y="-873.8"
         font-family="Times,serif"
         font-size="14.00"
         id="text6853">                                 std::fstream::in | std::fstream::out);</text>
    </g>
    <!-- D0&#45;&gt;D4 -->
    <g
       id="edge26"
       class="edge">
      <title
         id="title6856">D0-&gt;D4</title>
      <path
         fill="none"
         stroke="black"
         d="M187,-939.81C187,-932.11 187,-922.82 187,-914.15"
         id="path6858" />
      <polygon
         fill="black"
         stroke="black"
         points="190.5,-914.02 187,-904.02 183.5,-914.02 190.5,-914.02"
         id="polygon6860" />
    </g>
    <!-- D1 -->
    <g
       id="node2"
       class="node">
      <title
         id="title6863">D1</title>
      <path
         fill="none"
         stroke="black"
         d="M363,-36C363,-36 333,-36 333,-36 327,-36 321,-30 321,-24 321,-24 321,-12 321,-12 321,-6 327,0 333,0 333,0 363,0 363,0 369,0 375,-6 375,-12 375,-12 375,-24 375,-24 375,-30 369,-36 363,-36"
         id="path6865" />
      <text
         text-anchor="middle"
         x="348"
         y="-14.3"
         font-family="Times,serif"
         font-size="14.00"
         id="text6867">end</text>
    </g>
    <!-- D6 -->
    <g
       id="node4"
       class="node">
      <title
         id="title6870">D6</title>
      <polygon
         fill="none"
         stroke="black"
         points="187,-830 98.52,-812 187,-794 275.48,-812 187,-830"
         id="polygon6872" />
      <text
         text-anchor="middle"
         x="187"
         y="-808.3"
         font-family="Times,serif"
         font-size="14.00"
         id="text6874">(!s.is_open())?</text>
    </g>
    <!-- D4&#45;&gt;D6 -->
    <g
       id="edge1"
       class="edge">
      <title
         id="title6877">D4-&gt;D6</title>
      <path
         fill="none"
         stroke="black"
         d="M187,-865.72C187,-857.97 187,-848.79 187,-840.27"
         id="path6879" />
      <polygon
         fill="black"
         stroke="black"
         points="190.5,-840 187,-830 183.5,-840 190.5,-840"
         id="polygon6881" />
    </g>
    <!-- D11 -->
    <g
       id="node5"
       class="node">
      <title
         id="title6884">D11</title>
      <polygon
         fill="none"
         stroke="black"
         points="212.5,-686 111.5,-686 111.5,-650 212.5,-650 212.5,-686"
         id="polygon6886" />
      <text
         text-anchor="middle"
         x="162"
         y="-664.3"
         font-family="Times,serif"
         font-size="14.00"
         id="text6888">return ERROR;</text>
    </g>
    <!-- D6&#45;&gt;D11 -->
    <g
       id="edge3"
       class="edge">
      <title
         id="title6891">D6:s-&gt;D11:n</title>
      <path
         fill="none"
         stroke="black"
         d="M187,-794C187,-794 170.5,-722.7 164.31,-695.97"
         id="path6893" />
      <polygon
         fill="black"
         stroke="black"
         points="167.67,-694.95 162,-686 160.85,-696.53 167.67,-694.95"
         id="polygon6895" />
      <text
         text-anchor="middle"
         x="170.65"
         y="-748.78"
         font-family="Times,serif"
         font-size="14.00"
         id="text6897">Y</text>
    </g>
    <!-- D13 -->
    <g
       id="node6"
       class="node">
      <title
         id="title6900">D13</title>
      <polygon
         fill="none"
         stroke="black"
         points="406.5,-758 193.5,-758 193.5,-722 406.5,-722 406.5,-758"
         id="polygon6902" />
      <text
         text-anchor="middle"
         x="300"
         y="-736.3"
         font-family="Times,serif"
         font-size="14.00"
         id="text6904">std::stack&lt;BiTNode *&gt; node_stack;</text>
    </g>
    <!-- D6&#45;&gt;D13 -->
    <g
       id="edge2"
       class="edge">
      <title
         id="title6907">D6:e-&gt;D13:n</title>
      <path
         fill="none"
         stroke="black"
         d="M277,-812C277,-812 289.4,-782.88 295.99,-767.41"
         id="path6909" />
      <polygon
         fill="black"
         stroke="black"
         points="299.3,-768.57 300,-758 292.86,-765.83 299.3,-768.57"
         id="polygon6911" />
      <text
         text-anchor="middle"
         x="281.5"
         y="-793.5"
         font-family="Times,serif"
         font-size="14.00"
         id="text6913">N</text>
    </g>
    <!-- D11&#45;&gt;D1 -->
    <g
       id="edge4"
       class="edge">
      <title
         id="title6916">D11-&gt;D1</title>
      <path
         fill="none"
         stroke="black"
         d="M160.79,-649.87C158.13,-612.1 152,-525 152,-525 152,-525 152,-525 152,-161 152,-161 246,-72 246,-72 246,-72 282.41,-53.08 311.72,-37.85"
         id="path6918" />
      <polygon
         fill="black"
         stroke="black"
         points="313.67,-40.78 320.93,-33.06 310.45,-34.57 313.67,-40.78"
         id="polygon6920" />
    </g>
    <!-- D15 -->
    <g
       id="node7"
       class="node">
      <title
         id="title6923">D15</title>
      <polygon
         fill="none"
         stroke="black"
         points="376.5,-686 235.5,-686 235.5,-650 376.5,-650 376.5,-686"
         id="polygon6925" />
      <text
         text-anchor="middle"
         x="306"
         y="-664.3"
         font-family="Times,serif"
         font-size="14.00"
         id="text6927">node_stack.push(root);</text>
    </g>
    <!-- D13&#45;&gt;D15 -->
    <g
       id="edge5"
       class="edge">
      <title
         id="title6930">D13-&gt;D15</title>
      <path
         fill="none"
         stroke="black"
         d="M301.48,-721.7C302.14,-713.98 302.94,-704.71 303.68,-696.11"
         id="path6932" />
      <polygon
         fill="black"
         stroke="black"
         points="307.17,-696.37 304.53,-686.1 300.19,-695.77 307.17,-696.37"
         id="polygon6934" />
    </g>
    <!-- D17 -->
    <g
       id="node8"
       class="node">
      <title
         id="title6937">D17</title>
      <polygon
         fill="none"
         stroke="black"
         points="312,-614 179.78,-596 312,-578 444.22,-596 312,-614"
         id="polygon6939" />
      <text
         text-anchor="middle"
         x="312"
         y="-592.3"
         font-family="Times,serif"
         font-size="14.00"
         id="text6941">(!node_stack.empty())?</text>
    </g>
    <!-- D15&#45;&gt;D17 -->
    <g
       id="edge6"
       class="edge">
      <title
         id="title6944">D15-&gt;D17</title>
      <path
         fill="none"
         stroke="black"
         d="M307.48,-649.7C308.14,-641.98 308.94,-632.71 309.68,-624.11"
         id="path6946" />
      <polygon
         fill="black"
         stroke="black"
         points="313.17,-624.37 310.53,-614.1 306.19,-623.77 313.17,-624.37"
         id="polygon6948" />
    </g>
    <!-- D22 -->
    <g
       id="node9"
       class="node">
      <title
         id="title6951">D22</title>
      <polygon
         fill="none"
         stroke="black"
         points="526.5,-542 267.5,-542 267.5,-506 526.5,-506 526.5,-542"
         id="polygon6953" />
      <text
         text-anchor="middle"
         x="397"
         y="-520.3"
         font-family="Times,serif"
         font-size="14.00"
         id="text6955">BiTNode *current_node = node_stack.top();</text>
    </g>
    <!-- D17&#45;&gt;D22 -->
    <g
       id="edge20"
       class="edge">
      <title
         id="title6958">D17:s-&gt;D22:n</title>
      <path
         fill="none"
         stroke="black"
         d="M312,-578C312,-578 365.45,-555.36 387.58,-545.99"
         id="path6960" />
      <polygon
         fill="black"
         stroke="black"
         points="389.16,-549.12 397,-542 386.43,-542.68 389.16,-549.12"
         id="polygon6962" />
      <text
         text-anchor="middle"
         x="344.79"
         y="-565.8"
         font-family="Times,serif"
         font-size="14.00"
         id="text6964">Y</text>
    </g>
    <!-- D47 -->
    <g
       id="node19"
       class="node">
      <title
         id="title6967">D47</title>
      <polygon
         fill="none"
         stroke="black"
         points="658,-542 550,-542 550,-506 658,-506 658,-542"
         id="polygon6969" />
      <text
         text-anchor="middle"
         x="604"
         y="-520.3"
         font-family="Times,serif"
         font-size="14.00"
         id="text6971">TElemType end;</text>
    </g>
    <!-- D17&#45;&gt;D47 -->
    <g
       id="edge7"
       class="edge">
      <title
         id="title6974">D17:e-&gt;D47:n</title>
      <path
         fill="none"
         stroke="black"
         d="M445,-596C445,-596 560.3,-556.84 594.53,-545.22"
         id="path6976" />
      <polygon
         fill="black"
         stroke="black"
         points="595.66,-548.53 604,-542 593.41,-541.9 595.66,-548.53"
         id="polygon6978" />
      <text
         text-anchor="middle"
         x="514.76"
         y="-574.41"
         font-family="Times,serif"
         font-size="14.00"
         id="text6980">N</text>
    </g>
    <!-- D24 -->
    <g
       id="node10"
       class="node">
      <title
         id="title6983">D24</title>
      <polygon
         fill="none"
         stroke="black"
         points="465,-470 351,-470 351,-434 465,-434 465,-470"
         id="polygon6985" />
      <text
         text-anchor="middle"
         x="408"
         y="-448.3"
         font-family="Times,serif"
         font-size="14.00"
         id="text6987">node_stack.pop();</text>
    </g>
    <!-- D22&#45;&gt;D24 -->
    <g
       id="edge8"
       class="edge">
      <title
         id="title6990">D22-&gt;D24</title>
      <path
         fill="none"
         stroke="black"
         d="M399.72,-505.7C400.93,-497.98 402.39,-488.71 403.74,-480.11"
         id="path6992" />
      <polygon
         fill="black"
         stroke="black"
         points="407.22,-480.53 405.31,-470.1 400.3,-479.44 407.22,-480.53"
         id="polygon6994" />
    </g>
    <!-- D26 -->
    <g
       id="node11"
       class="node">
      <title
         id="title6997">D26</title>
      <polygon
         fill="none"
         stroke="black"
         points="418,-398 323.15,-380 418,-362 512.85,-380 418,-398"
         id="polygon6999" />
      <text
         text-anchor="middle"
         x="418"
         y="-376.3"
         font-family="Times,serif"
         font-size="14.00"
         id="text7001">(current_node)?</text>
    </g>
    <!-- D24&#45;&gt;D26 -->
    <g
       id="edge9"
       class="edge">
      <title
         id="title7004">D24-&gt;D26</title>
      <path
         fill="none"
         stroke="black"
         d="M410.47,-433.7C411.59,-425.87 412.94,-416.44 414.18,-407.73"
         id="path7006" />
      <polygon
         fill="black"
         stroke="black"
         points="417.68,-408.02 415.63,-397.62 410.75,-407.03 417.68,-408.02"
         id="polygon7008" />
    </g>
    <!-- D31 -->
    <g
       id="node12"
       class="node">
      <title
         id="title7011">D31</title>
      <polygon
         fill="none"
         stroke="black"
         points="579.5,-326 256.5,-326 256.5,-288 579.5,-288 579.5,-326"
         id="polygon7013" />
      <text
         text-anchor="middle"
         x="418"
         y="-310.8"
         font-family="Times,serif"
         font-size="14.00"
         id="text7015">s.write(reinterpret_cast&lt;char *&gt;(&amp;current_node-&gt;data),</text>
      <text
         text-anchor="middle"
         x="418"
         y="-295.8"
         font-family="Times,serif"
         font-size="14.00"
         id="text7017">                    sizeof current_node-&gt;data);</text>
    </g>
    <!-- D26&#45;&gt;D31 -->
    <g
       id="edge14"
       class="edge">
      <title
         id="title7020">D26:s-&gt;D31:n</title>
      <path
         fill="none"
         stroke="black"
         d="M418,-362C418,-362 418,-346.86 418,-336.22"
         id="path7022" />
      <polygon
         fill="black"
         stroke="black"
         points="421.5,-336 418,-326 414.5,-336 421.5,-336"
         id="polygon7024" />
      <text
         text-anchor="middle"
         x="413"
         y="-337.91"
         font-family="Times,serif"
         font-size="14.00"
         id="text7026">Y</text>
    </g>
    <!-- D39 -->
    <g
       id="node15"
       class="node">
      <title
         id="title7029">D39</title>
      <polygon
         fill="none"
         stroke="black"
         points="708,-325 598,-325 598,-289 708,-289 708,-325"
         id="polygon7031" />
      <text
         text-anchor="middle"
         x="653"
         y="-303.3"
         font-family="Times,serif"
         font-size="14.00"
         id="text7033">TElemType tmp;</text>
    </g>
    <!-- D26&#45;&gt;D39 -->
    <g
       id="edge15"
       class="edge">
      <title
         id="title7036">D26:e-&gt;D39:n</title>
      <path
         fill="none"
         stroke="black"
         d="M514,-380C514,-380 612.04,-341.91 643.45,-329.71"
         id="path7038" />
      <polygon
         fill="black"
         stroke="black"
         points="644.95,-332.88 653,-326 642.41,-326.36 644.95,-332.88"
         id="polygon7040" />
      <text
         text-anchor="middle"
         x="573.72"
         y="-358.66"
         font-family="Times,serif"
         font-size="14.00"
         id="text7042">N</text>
    </g>
    <!-- D33 -->
    <g
       id="node13"
       class="node">
      <title
         id="title7045">D33</title>
      <polygon
         fill="none"
         stroke="black"
         points="532.5,-252 297.5,-252 297.5,-216 532.5,-216 532.5,-252"
         id="polygon7047" />
      <text
         text-anchor="middle"
         x="415"
         y="-230.3"
         font-family="Times,serif"
         font-size="14.00"
         id="text7049">node_stack.push(current_node-&gt;rchild);</text>
    </g>
    <!-- D31&#45;&gt;D33 -->
    <g
       id="edge10"
       class="edge">
      <title
         id="title7052">D31-&gt;D33</title>
      <path
         fill="none"
         stroke="black"
         d="M417.23,-287.72C416.9,-279.97 416.51,-270.79 416.15,-262.27"
         id="path7054" />
      <polygon
         fill="black"
         stroke="black"
         points="419.64,-261.85 415.72,-252 412.64,-262.14 419.64,-261.85"
         id="polygon7056" />
    </g>
    <!-- D35 -->
    <g
       id="node14"
       class="node">
      <title
         id="title7059">D35</title>
      <polygon
         fill="none"
         stroke="black"
         points="472,-180 238,-180 238,-144 472,-144 472,-180"
         id="polygon7061" />
      <text
         text-anchor="middle"
         x="355"
         y="-158.3"
         font-family="Times,serif"
         font-size="14.00"
         id="text7063">node_stack.push(current_node-&gt;lchild);</text>
    </g>
    <!-- D33&#45;&gt;D35 -->
    <g
       id="edge11"
       class="edge">
      <title
         id="title7066">D33-&gt;D35</title>
      <path
         fill="none"
         stroke="black"
         d="M400.17,-215.7C392.98,-207.3 384.2,-197.07 376.31,-187.86"
         id="path7068" />
      <polygon
         fill="black"
         stroke="black"
         points="378.83,-185.42 369.66,-180.1 373.51,-189.97 378.83,-185.42"
         id="polygon7070" />
    </g>
    <!-- D35&#45;&gt;D17 -->
    <g
       id="edge12"
       class="edge">
      <title
         id="title7073">D35-&gt;D17</title>
      <path
         fill="none"
         stroke="black"
         d="M333.43,-180.06C313.85,-195.55 288,-216 288,-216 288,-216 228,-306 228,-306 228,-453 228,-453 228,-453 228,-453 258,-542 258,-542 258,-542 274.47,-558.16 289.21,-572.63"
         id="path7075" />
      <polygon
         fill="black"
         stroke="black"
         points="287.08,-575.45 296.67,-579.95 291.98,-570.45 287.08,-575.45"
         id="polygon7077" />
    </g>
    <!-- D41 -->
    <g
       id="node16"
       class="node">
      <title
         id="title7080">D41</title>
      <polygon
         fill="none"
         stroke="black"
         points="644,-252 556,-252 556,-216 644,-216 644,-252"
         id="polygon7082" />
      <text
         text-anchor="middle"
         x="600"
         y="-230.3"
         font-family="Times,serif"
         font-size="14.00"
         id="text7084">tmp.key = 0;</text>
    </g>
    <!-- D39&#45;&gt;D41 -->
    <g
       id="edge13"
       class="edge">
      <title
         id="title7087">D39-&gt;D41</title>
      <path
         fill="none"
         stroke="black"
         d="M640.17,-288.81C633.79,-280.27 625.95,-269.77 618.9,-260.32"
         id="path7089" />
      <polygon
         fill="black"
         stroke="black"
         points="621.5,-257.95 612.71,-252.03 615.89,-262.14 621.5,-257.95"
         id="polygon7091" />
    </g>
    <!-- D43 -->
    <g
       id="node17"
       class="node">
      <title
         id="title7094">D43</title>
      <polygon
         fill="none"
         stroke="black"
         points="661.5,-180 500.5,-180 500.5,-144 661.5,-144 661.5,-180"
         id="polygon7096" />
      <text
         text-anchor="middle"
         x="581"
         y="-158.3"
         font-family="Times,serif"
         font-size="14.00"
         id="text7098">strcpy(tmp.others, &quot;null&quot;);</text>
    </g>
    <!-- D41&#45;&gt;D43 -->
    <g
       id="edge16"
       class="edge">
      <title
         id="title7101">D41-&gt;D43</title>
      <path
         fill="none"
         stroke="black"
         d="M595.3,-215.7C593.19,-207.9 590.64,-198.51 588.28,-189.83"
         id="path7103" />
      <polygon
         fill="black"
         stroke="black"
         points="591.64,-188.84 585.64,-180.1 584.88,-190.67 591.64,-188.84"
         id="polygon7105" />
    </g>
    <!-- D45 -->
    <g
       id="node18"
       class="node">
      <title
         id="title7108">D45</title>
      <polygon
         fill="none"
         stroke="black"
         points="563,-108 255,-108 255,-72 563,-72 563,-108"
         id="polygon7110" />
      <text
         text-anchor="middle"
         x="409"
         y="-86.3"
         font-family="Times,serif"
         font-size="14.00"
         id="text7112">s.write(reinterpret_cast&lt;char *&gt;(&amp;tmp), sizeof tmp);</text>
    </g>
    <!-- D43&#45;&gt;D45 -->
    <g
       id="edge17"
       class="edge">
      <title
         id="title7115">D43-&gt;D45</title>
      <path
         fill="none"
         stroke="black"
         d="M538.92,-143.88C515.2,-134.22 485.38,-122.09 460.3,-111.88"
         id="path7117" />
      <polygon
         fill="black"
         stroke="black"
         points="461.52,-108.6 450.94,-108.07 458.88,-115.08 461.52,-108.6"
         id="polygon7119" />
    </g>
    <!-- D45&#45;&gt;D17 -->
    <g
       id="edge18"
       class="edge">
      <title
         id="title7122">D45-&gt;D17</title>
      <path
         fill="none"
         stroke="black"
         d="M351.06,-108.06C298.44,-123.55 229,-144 229,-144 229,-144 190,-233 190,-233 190,-453 190,-453 190,-453 190,-453 243,-542 243,-542 243,-542 265.75,-559.48 285.13,-574.36"
         id="path7124" />
      <polygon
         fill="black"
         stroke="black"
         points="283.08,-577.2 293.15,-580.52 287.35,-571.65 283.08,-577.2"
         id="polygon7126" />
    </g>
    <!-- D49 -->
    <g
       id="node20"
       class="node">
      <title
         id="title7129">D49</title>
      <polygon
         fill="none"
         stroke="black"
         points="719,-470 629,-470 629,-434 719,-434 719,-470"
         id="polygon7131" />
      <text
         text-anchor="middle"
         x="674"
         y="-448.3"
         font-family="Times,serif"
         font-size="14.00"
         id="text7133">end.key = -1;</text>
    </g>
    <!-- D47&#45;&gt;D49 -->
    <g
       id="edge19"
       class="edge">
      <title
         id="title7136">D47-&gt;D49</title>
      <path
         fill="none"
         stroke="black"
         d="M621.3,-505.7C629.86,-497.14 640.34,-486.66 649.7,-477.3"
         id="path7138" />
      <polygon
         fill="black"
         stroke="black"
         points="652.3,-479.65 656.9,-470.1 647.35,-474.7 652.3,-479.65"
         id="polygon7140" />
    </g>
    <!-- D51 -->
    <g
       id="node21"
       class="node">
      <title
         id="title7143">D51</title>
      <polygon
         fill="none"
         stroke="black"
         points="823.5,-398 664.5,-398 664.5,-362 823.5,-362 823.5,-398"
         id="polygon7145" />
      <text
         text-anchor="middle"
         x="744"
         y="-376.3"
         font-family="Times,serif"
         font-size="14.00"
         id="text7147">strcpy(end.others, &quot;null&quot;);</text>
    </g>
    <!-- D49&#45;&gt;D51 -->
    <g
       id="edge21"
       class="edge">
      <title
         id="title7150">D49-&gt;D51</title>
      <path
         fill="none"
         stroke="black"
         d="M691.3,-433.7C699.86,-425.14 710.34,-414.66 719.7,-405.3"
         id="path7152" />
      <polygon
         fill="black"
         stroke="black"
         points="722.3,-407.65 726.9,-398.1 717.35,-402.7 722.3,-407.65"
         id="polygon7154" />
    </g>
    <!-- D53 -->
    <g
       id="node22"
       class="node">
      <title
         id="title7157">D53</title>
      <polygon
         fill="none"
         stroke="black"
         points="1029.5,-325 726.5,-325 726.5,-289 1029.5,-289 1029.5,-325"
         id="polygon7159" />
      <text
         text-anchor="middle"
         x="878"
         y="-303.3"
         font-family="Times,serif"
         font-size="14.00"
         id="text7161">s.write(reinterpret_cast&lt;char *&gt;(&amp;end), sizeof end);</text>
    </g>
    <!-- D51&#45;&gt;D53 -->
    <g
       id="edge22"
       class="edge">
      <title
         id="title7164">D51-&gt;D53</title>
      <path
         fill="none"
         stroke="black"
         d="M776.1,-361.99C794.28,-352.36 817.22,-340.21 836.72,-329.87"
         id="path7166" />
      <polygon
         fill="black"
         stroke="black"
         points="838.5,-332.89 845.7,-325.11 835.23,-326.7 838.5,-332.89"
         id="polygon7168" />
    </g>
    <!-- D55 -->
    <g
       id="node23"
       class="node">
      <title
         id="title7171">D55</title>
      <polygon
         fill="none"
         stroke="black"
         points="731,-252 665,-252 665,-216 731,-216 731,-252"
         id="polygon7173" />
      <text
         text-anchor="middle"
         x="698"
         y="-230.3"
         font-family="Times,serif"
         font-size="14.00"
         id="text7175">s.close();</text>
    </g>
    <!-- D53&#45;&gt;D55 -->
    <g
       id="edge23"
       class="edge">
      <title
         id="title7178">D53-&gt;D55</title>
      <path
         fill="none"
         stroke="black"
         d="M834.89,-288.99C806.42,-277.76 769.26,-263.11 740.85,-251.9"
         id="path7180" />
      <polygon
         fill="black"
         stroke="black"
         points="741.78,-248.51 731.19,-248.09 739.21,-255.02 741.78,-248.51"
         id="polygon7182" />
    </g>
    <!-- D57 -->
    <g
       id="node24"
       class="node">
      <title
         id="title7185">D57</title>
      <polygon
         fill="none"
         stroke="black"
         points="695,-108 619,-108 619,-72 695,-72 695,-108"
         id="polygon7187" />
      <text
         text-anchor="middle"
         x="657"
         y="-86.3"
         font-family="Times,serif"
         font-size="14.00"
         id="text7189">return OK;</text>
    </g>
    <!-- D55&#45;&gt;D57 -->
    <g
       id="edge24"
       class="edge">
      <title
         id="title7192">D55-&gt;D57</title>
      <path
         fill="none"
         stroke="black"
         d="M693.05,-215.87C686.04,-191.56 673.12,-146.82 664.8,-118.01"
         id="path7194" />
      <polygon
         fill="black"
         stroke="black"
         points="668.1,-116.83 661.96,-108.19 661.37,-118.77 668.1,-116.83"
         id="polygon7196" />
    </g>
    <!-- D57&#45;&gt;D1 -->
    <g
       id="edge25"
       class="edge">
      <title
         id="title7199">D57-&gt;D1</title>
      <path
         fill="none"
         stroke="black"
         d="M618.8,-80.35C559.09,-66.82 444.37,-40.83 385.25,-27.44"
         id="path7201" />
      <polygon
         fill="black"
         stroke="black"
         points="385.75,-23.96 375.22,-25.17 384.2,-30.79 385.75,-23.96"
         id="polygon7203" />
    </g>
  </g>
</svg>
