<?xml version="1.0" encoding="UTF-8" standalone="no"?>
<!-- Generated by graphviz version 3.0.0 (20220226.1711)
 -->

<!-- Pages: 1 -->

<svg
   width="521pt"
   height="836pt"
   viewBox="0.00 0.00 520.50 836.00"
   version="1.1"
   id="svg1936"
   sodipodi:docname="traverse_in_levelorder.svg"
   inkscape:version="1.2 (dc2aeda, 2022-05-15)"
   inkscape:export-filename="traverse_in_levelorder.png"
   inkscape:export-xdpi="96"
   inkscape:export-ydpi="96"
   xmlns:inkscape="http://www.inkscape.org/namespaces/inkscape"
   xmlns:sodipodi="http://sodipodi.sourceforge.net/DTD/sodipodi-0.dtd"
   xmlns="http://www.w3.org/2000/svg"
   xmlns:svg="http://www.w3.org/2000/svg">
  <defs
     id="defs1940" />
  <sodipodi:namedview
     id="namedview1938"
     pagecolor="#ffffff"
     bordercolor="#666666"
     borderopacity="1.0"
     inkscape:showpageshadow="2"
     inkscape:pageopacity="0.0"
     inkscape:pagecheckerboard="0"
     inkscape:deskcolor="#d1d1d1"
     inkscape:document-units="pt"
     showgrid="false"
     inkscape:zoom="0.70057929"
     inkscape:cx="74.224289"
     inkscape:cy="593.79431"
     inkscape:window-width="1313"
     inkscape:window-height="764"
     inkscape:window-x="0"
     inkscape:window-y="25"
     inkscape:window-maximized="0"
     inkscape:current-layer="graph0" />
  <g
     id="graph0"
     class="graph"
     transform="translate(5.457864,834.91572)">
    <polygon
       fill="#ffffff"
       stroke="transparent"
       points="516.5,-832 516.5,4 -4,4 -4,-832 "
       id="polygon1725"
       transform="translate(-6.736644,-1.7265851)" />
    <!-- D0 -->
    <g
       id="node1"
       class="node">
      <title
         id="title1727">D0</title>
      <path
         fill="none"
         stroke="#000000"
         d="m 352.5,-828 c 0,0 -30,0 -30,0 -6,0 -12,6 -12,12 0,0 0,12 0,12 0,6 6,12 12,12 0,0 30,0 30,0 6,0 12,-6 12,-12 0,0 0,-12 0,-12 0,-6 -6,-12 -12,-12"
         id="path1729" />
      <text
         text-anchor="middle"
         x="337.5"
         y="-806.29999"
         font-family="Times, serif"
         font-size="14px"
         id="text1731">begin</text>
    </g>
    <!-- D4 -->
    <g
       id="node3"
       class="node">
      <title
         id="title1734">D4</title>
      <polygon
         fill="none"
         stroke="#000000"
         points="226.5,-720 448.5,-720 448.5,-756 226.5,-756 "
         id="polygon1736" />
      <text
         text-anchor="middle"
         x="337.5"
         y="-734.29999"
         font-family="Times, serif"
         font-size="14px"
         id="text1738">std::deque&lt;BiTNode *&gt; node_queue;</text>
    </g>
    <!-- D0&#45;&gt;D4 -->
    <g
       id="edge15"
       class="edge">
      <title
         id="title1741">D0-&gt;D4</title>
      <path
         fill="none"
         stroke="#000000"
         d="m 337.5,-791.7 c 0,7.72 0,16.99 0,25.59"
         id="path1743" />
      <polygon
         fill="#000000"
         stroke="#000000"
         points="341,-766.1 337.5,-756.1 334,-766.1 "
         id="polygon1745" />
    </g>
    <!-- D1 -->
    <g
       id="node2"
       class="node">
      <title
         id="title1748">D1</title>
      <path
         fill="none"
         stroke="#000000"
         d="m 489.5,-36 c 0,0 -30,0 -30,0 -6,0 -12,6 -12,12 0,0 0,12 0,12 0,6 6,12 12,12 0,0 30,0 30,0 6,0 12,-6 12,-12 0,0 0,-12 0,-12 0,-6 -6,-12 -12,-12"
         id="path1750" />
      <text
         text-anchor="middle"
         x="474.5"
         y="-14.3"
         font-family="Times, serif"
         font-size="14px"
         id="text1752">end</text>
    </g>
    <!-- D6 -->
    <g
       id="node4"
       class="node">
      <title
         id="title1755">D6</title>
      <polygon
         fill="none"
         stroke="#000000"
         points="248.5,-648 426.5,-648 426.5,-684 248.5,-684 "
         id="polygon1757" />
      <text
         text-anchor="middle"
         x="337.5"
         y="-662.29999"
         font-family="Times, serif"
         font-size="14px"
         id="text1759">node_queue.push_back(root);</text>
    </g>
    <!-- D4&#45;&gt;D6 -->
    <g
       id="edge1"
       class="edge">
      <title
         id="title1762">D4-&gt;D6</title>
      <path
         fill="none"
         stroke="#000000"
         d="m 337.5,-719.7 c 0,7.72 0,16.99 0,25.59"
         id="path1764" />
      <polygon
         fill="#000000"
         stroke="#000000"
         points="341,-694.1 337.5,-684.1 334,-694.1 "
         id="polygon1766" />
    </g>
    <!-- D8 -->
    <g
       id="node5"
       class="node">
      <title
         id="title1769">D8</title>
      <polygon
         fill="none"
         stroke="#000000"
         points="337.5,-576 474.41,-594 337.5,-612 200.59,-594 "
         id="polygon1771" />
      <text
         text-anchor="middle"
         x="337.5"
         y="-590.29999"
         font-family="Times, serif"
         font-size="14px"
         id="text1773">(!node_queue.empty())?</text>
    </g>
    <!-- D6&#45;&gt;D8 -->
    <g
       id="edge2"
       class="edge">
      <title
         id="title1776">D6-&gt;D8</title>
      <path
         fill="none"
         stroke="#000000"
         d="m 337.5,-647.7 c 0,7.72 0,16.99 0,25.59"
         id="path1778" />
      <polygon
         fill="#000000"
         stroke="#000000"
         points="341,-622.1 337.5,-612.1 334,-622.1 "
         id="polygon1780" />
    </g>
    <!-- D13 -->
    <g
       id="node6"
       class="node"
       transform="translate(61.903153,-0.89714714)">
      <title
         id="title1783">D13</title>
      <polygon
         fill="none"
         stroke="#000000"
         points="36.5,-540 36.5,-504 308.5,-504 308.5,-540 "
         id="polygon1785"
         transform="translate(40.820195)" />
      <text
         text-anchor="middle"
         x="213.32019"
         y="-518.29999"
         font-family="Times, serif"
         font-size="14px"
         id="text1787">BiTNode *current_node = node_queue.front();</text>
    </g>
    <!-- D8&#45;&gt;D13 -->
    <g
       id="edge13"
       class="edge"
       transform="matrix(0.78039356,0,0,1.004036,81.361656,0.79144856)">
      <title
         id="title1790">D8:s-&gt;D13:n</title>
      <path
         fill="none"
         stroke="#000000"
         d="m 328.27602,-574.08816 -47.07968,32.8417"
         id="path1792"
         sodipodi:nodetypes="cc" />
      <text
         text-anchor="middle"
         x="286.33997"
         y="-557.27167"
         font-family="Times, serif"
         font-size="14px"
         id="text1796"
         inkscape:label="text1796">Y</text>
    </g>
    <!-- D33 -->
    <g
       id="node13"
       class="node">
      <title
         id="title1799">D33</title>
      <polygon
         fill="none"
         stroke="#000000"
         points="436.5,-432 512.5,-432 512.5,-468 436.5,-468 "
         id="polygon1801" />
      <text
         text-anchor="middle"
         x="474.5"
         y="-446.29999"
         font-family="Times, serif"
         font-size="14px"
         id="text1803">return OK;</text>
    </g>
    <!-- D8&#45;&gt;D33 -->
    <g
       id="edge3"
       class="edge">
      <title
         id="title1806">D8:e-&gt;D33:n</title>
      <path
         fill="none"
         stroke="#000000"
         d="m 475.5,-594 c 0,0 -0.68,85.6 -0.92,115.69"
         id="path1808" />
      <polygon
         fill="#000000"
         stroke="#000000"
         points="478.08,-477.97 474.5,-468 471.08,-478.03 "
         id="polygon1810" />
      <text
         text-anchor="middle"
         x="470.04001"
         y="-539.96002"
         font-family="Times, serif"
         font-size="14px"
         id="text1812">N</text>
    </g>
    <!-- D15 -->
    <g
       id="node7"
       class="node"
       transform="translate(121.45129,0.89714714)">
      <title
         id="title1815">D15</title>
      <polygon
         fill="none"
         stroke="#000000"
         points="246.5,-468 94.5,-468 94.5,-432 246.5,-432 "
         id="polygon1817" />
      <text
         text-anchor="middle"
         x="170.5"
         y="-446.29999"
         font-family="Times, serif"
         font-size="14px"
         id="text1819">node_queue.pop_front();</text>
    </g>
    <!-- D13&#45;&gt;D15 -->
    <g
       id="edge4"
       class="edge"
       transform="translate(57.417417)">
      <title
         id="title1822">D13-&gt;D15</title>
      <path
         fill="none"
         stroke="#000000"
         d="m 233.24029,-503.7 c -0.22,7.72 -0.49,16.99 -0.74,25.59"
         id="path1824" />
      <polygon
         fill="#000000"
         stroke="#000000"
         points="167.78,-478.2 174.77,-478 170.99,-468.1 "
         id="polygon1826"
         transform="translate(61.230292,-1.4578641)" />
    </g>
    <!-- D17 -->
    <g
       id="node8"
       class="node"
       transform="translate(124.70345,0.33643018)">
      <title
         id="title1829">D17</title>
      <polygon
         fill="none"
         stroke="#000000"
         points="104.5,-396 104.5,-360 228.5,-360 228.5,-396 "
         id="polygon1831" />
      <text
         text-anchor="middle"
         x="166.5"
         y="-374.29999"
         font-family="Times, serif"
         font-size="14px"
         id="text1833">visit(current_node);</text>
    </g>
    <!-- D15&#45;&gt;D17 -->
    <g
       id="edge5"
       class="edge"
       transform="translate(119.54486,0.33643018)">
      <title
         id="title1836">D15-&gt;D17</title>
      <path
         fill="none"
         stroke="#000000"
         d="m 169.51,-431.7 c -0.44,7.72 -0.97,16.99 -1.46,25.59"
         id="path1838" />
      <polygon
         fill="#000000"
         stroke="#000000"
         points="164.55,-406.29 171.54,-405.89 167.48,-396.1 "
         id="polygon1840" />
    </g>
    <!-- D19 -->
    <g
       id="node9"
       class="node"
       transform="translate(96.443313,1.2335773)">
      <title
         id="title1843">D19</title>
      <polygon
         fill="none"
         stroke="#000000"
         points="31.11,-306 165.5,-288 299.89,-306 165.5,-324 "
         id="polygon1845" />
      <text
         text-anchor="middle"
         x="165.5"
         y="-302.29999"
         font-family="Times, serif"
         font-size="14px"
         id="text1847">(current_node-&gt;lchild)?</text>
    </g>
    <!-- D17&#45;&gt;D19 -->
    <g
       id="edge6"
       class="edge"
       transform="translate(97.901177,-2.018581)">
      <title
         id="title1850">D17-&gt;D19</title>
      <path
         fill="none"
         stroke="#000000"
         d="m 166.25,-359.7 c -0.11,7.72 -0.24,16.99 -0.36,25.59"
         id="path1852" />
      <polygon
         fill="#000000"
         stroke="#000000"
         points="169.39,-334.05 165.74,-324.1 162.39,-334.15 "
         id="polygon1854" />
    </g>
    <!-- D24 -->
    <g
       id="node10"
       class="node"
       transform="translate(101.8262,-0.56071696)">
      <title
         id="title1857">D24</title>
      <polygon
         fill="none"
         stroke="#000000"
         points="0,-252 0,-216 271,-216 271,-252 "
         id="polygon1859" />
      <text
         text-anchor="middle"
         x="135.5"
         y="-230.3"
         font-family="Times, serif"
         font-size="14px"
         id="text1861">node_queue.push_back(current_node-&gt;lchild);</text>
    </g>
    <!-- D19&#45;&gt;D24 -->
    <g
       id="edge10"
       class="edge"
       transform="matrix(0.57502624,-0.44431351,0.4993837,0.51161447,310.91356,-65.060112)">
      <title
         id="title1864">D19:s-&gt;D24:n</title>
      <path
         fill="none"
         stroke="#000000"
         d="m 165.5,-288 c 0,0 -14.5,17.4 -23.34,28.01"
         id="path1866" />
      <polygon
         fill="#000000"
         stroke="#000000"
         points="139.21,-261.92 144.59,-257.44 135.5,-252 "
         id="polygon1868" />
    </g>
    <!-- D26 -->
    <g
       id="node11"
       class="node"
       transform="translate(31.40015,1.7942943)">
      <title
         id="title1873">D26</title>
      <polygon
         fill="none"
         stroke="#000000"
         points="207.5,-180 72.27,-162 207.5,-144 342.73,-162 "
         id="polygon1875" />
      <text
         text-anchor="middle"
         x="207.5"
         y="-158.3"
         font-family="Times, serif"
         font-size="14px"
         id="text1877">(current_node-&gt;rchild)?</text>
    </g>
    <!-- D19&#45;&gt;D26 -->
    <g
       id="edge7"
       class="edge"
       transform="translate(95.321884,1.5700075)">
      <title
         id="title1880">D19:e-&gt;D26:n</title>
      <path
         fill="none"
         stroke="#000000"
         d="m 300.5,-306 22.66225,-0.61579 -0.39551,145.52794 -42.00071,0.078"
         id="path1882"
         sodipodi:nodetypes="cccc" />
      <text
         text-anchor="middle"
         x="307.74667"
         y="-308.33002"
         font-family="Times, serif"
         font-size="14px"
         id="text1886"
         inkscape:label="text1886"
         inkscape:transform-center-x="54.725974">N</text>
    </g>
    <!-- D24&#45;&gt;D26 -->
    <g
       id="edge8"
       class="edge"
       transform="matrix(0.7948874,0.48355838,-0.707924,0.45191822,-41.643777,-191.85838)">
      <title
         id="title1889">D24-&gt;D26</title>
      <path
         fill="none"
         stroke="#000000"
         d="m 154.55732,-217.12401 c 8.66027,10.02958 19.39984,22.44546 28.69537,33.19804"
         id="path1891" />
      <polygon
         fill="#000000"
         stroke="#000000"
         points="187.13,-187.68 191.86,-178.2 182.25,-182.66 "
         id="polygon1893" />
    </g>
    <!-- D26&#45;&gt;D8 -->
    <g
       id="edge9"
       class="edge">
      <title
         id="title1896">D26:e-&gt;D8:n</title>
      <path
         fill="none"
         stroke="#000000"
         d="m 102.4991,-160.40425 -82.912009,-0.16995 -0.03935,-262.72638 -0.707676,-172.59452 101.732285,-1.49999 82.76969,1.80165"
         id="path1898"
         sodipodi:nodetypes="cccccc" />
      <text
         text-anchor="middle"
         x="67.96125"
         y="-173.2106"
         font-family="Times, serif"
         font-size="14px"
         id="text1902">N</text>
    </g>
    <!-- D31 -->
    <g
       id="node12"
       class="node">
      <title
         id="title1905">D31</title>
      <polygon
         fill="none"
         stroke="#000000"
         points="125.5,-72 397.5,-72 397.5,-108 125.5,-108 "
         id="polygon1907" />
      <text
         text-anchor="middle"
         x="261.5"
         y="-86.300003"
         font-family="Times, serif"
         font-size="14px"
         id="text1909">node_queue.push_back(current_node-&gt;rchild);</text>
    </g>
    <!-- D26&#45;&gt;D31 -->
    <g
       id="edge12"
       class="edge"
       transform="matrix(1.0004918,0,0,0.71582372,-0.12041007,-44.380022)">
      <title
         id="title1912">D26:s-&gt;D31:n</title>
      <path
         fill="none"
         stroke="#000000"
         d="m 231.45004,-137.41809 c 0,21.84934 -0.75421,42.729252 -0.90111,34.64635"
         id="path1914"
         sodipodi:nodetypes="cc" />
      <polygon
         fill="#000000"
         stroke="#000000"
         points="255.12,-116.46 261.5,-108 251.24,-110.63 "
         id="polygon1916"
         transform="rotate(57.654085,231.09537,-128.29851)" />
    </g>
    <!-- D31&#45;&gt;D8 -->
    <g
       id="edge11"
       class="edge">
      <title
         id="title1921">D31-&gt;D8</title>
      <path
         fill="none"
         stroke="#000000"
         d="M 124.13433,-88.771121 3.5897886,-88.803231 2.7616586,-239.76777 2.8865031,-611.45226 c 135.9839369,-1.99683 192.7600169,0.87352 328.7413169,-1.29336"
         id="path1923"
         sodipodi:nodetypes="ccccc" />
    </g>
    <!-- D33&#45;&gt;D1 -->
    <g
       id="edge14"
       class="edge">
      <title
         id="title1928">D33-&gt;D1</title>
      <path
         fill="none"
         stroke="#000000"
         d="m 474.5,-431.87 c 0,37.77 0,124.87 0,124.87 0,0 0,0 0,146 0,0 0,73.4 0,114.66"
         id="path1930" />
      <polygon
         fill="#000000"
         stroke="#000000"
         points="478,-46.13 474.5,-36.13 471,-46.13 "
         id="polygon1932" />
    </g>
    <path
       sodipodi:type="star"
       style="fill:#000000;stroke-width:0.75"
       id="path2631"
       inkscape:flatsided="false"
       sodipodi:sides="3"
       sodipodi:cx="361.25125"
       sodipodi:cy="363.64362"
       sodipodi:r1="6.0994277"
       sodipodi:r2="3.0497136"
       sodipodi:arg1="0.19739556"
       sodipodi:arg2="1.2445931"
       inkscape:rounded="0"
       inkscape:randomized="0"
       d="m 367.23223,364.83981 -5.0037,1.6927 -5.00371,1.69269 1.03594,-5.17968 1.03594,-5.17968 3.96776,3.48698 z"
       transform="matrix(0.75000003,0,0,0.75000003,27.486563,-814.28134)"
       inkscape:transform-center-x="-0.73295878"
       inkscape:transform-center-y="-0.4485726" />
    <path
       sodipodi:type="star"
       style="fill:#000000;stroke-width:0.75"
       id="path2635"
       inkscape:flatsided="false"
       sodipodi:sides="3"
       sodipodi:cx="593.74628"
       sodipodi:cy="372.88461"
       sodipodi:r1="6.4417133"
       sodipodi:r2="3.84286"
       sodipodi:arg1="0.38050638"
       sodipodi:arg2="1.4277039"
       inkscape:rounded="0"
       inkscape:randomized="0"
       d="m 599.72726,375.27701 -5.43297,1.41119 -5.61038,0.1799 1.49436,-5.41069 2.64939,-4.94867 3.93861,3.99949 z"
       transform="matrix(-0.56735609,-0.37091782,0.48962773,-0.45778536,485.45748,-221.06401)"
       inkscape:transform-center-x="-0.97281486"
       inkscape:transform-center-y="-0.02706269" />
    <path
       sodipodi:type="star"
       style="fill:#000000;stroke-width:0.75"
       id="path2637"
       inkscape:flatsided="false"
       sodipodi:sides="3"
       sodipodi:cx="228.47346"
       sodipodi:cy="342.11209"
       sodipodi:r1="15.55055"
       sodipodi:r2="0.15550549"
       sodipodi:arg1="0"
       sodipodi:arg2="1.0471976"
       inkscape:rounded="0"
       inkscape:randomized="0"
       d="m 244.02402,342.11209 -15.4728,0.13467 -7.85303,13.3325 7.61977,-13.46717 -7.61977,-13.46717 7.85303,13.3325 z"
       transform="matrix(0.75000003,0,0,0.75000003,-5.7078811,-834.91572)"
       inkscape:transform-center-x="-2.352651" />
    <path
       sodipodi:type="star"
       style="fill:#000000;stroke-width:0.75"
       id="path2639"
       inkscape:flatsided="false"
       sodipodi:sides="3"
       sodipodi:cx="218.90388"
       sodipodi:cy="338.5235"
       sodipodi:r1="40.740974"
       sodipodi:r2="20.370487"
       sodipodi:arg1="0.8685394"
       sodipodi:arg2="1.9157369"
       inkscape:rounded="0"
       inkscape:randomized="0"
       d="m 245.2202,369.6246 -33.20441,-11.93053 -33.20441,-11.93052 26.93435,-22.7906 26.93434,-22.7906 6.27007,34.72112 z"
       transform="matrix(0.07797335,0.14197637,-0.18704677,0.07035491,246.27511,-648.8869)"
       inkscape:transform-center-x="-1.8826996"
       inkscape:transform-center-y="0.37080184" />
    <path
       sodipodi:type="star"
       style="fill:#000000;stroke-width:0.75"
       id="path2641"
       inkscape:flatsided="false"
       sodipodi:sides="3"
       sodipodi:cx="177.03703"
       sodipodi:cy="641.16113"
       sodipodi:r1="15.59649"
       sodipodi:r2="7.798245"
       sodipodi:arg1="1.0040671"
       sodipodi:arg2="2.0512647"
       inkscape:rounded="0"
       inkscape:randomized="0"
       d="m 185.41041,654.31929 -11.97768,-6.24284 -11.97768,-6.24284 11.3953,-7.25156 11.3953,-7.25155 0.58238,13.4944 z"
       transform="matrix(0.52529528,0,0,0.31786089,287.15591,-364.65498)"
       inkscape:transform-center-x="1.8933256"
       inkscape:transform-center-y="-0.10687038" />
    <text
       xml:space="preserve"
       style="font-style:normal;font-weight:normal;font-size:13px;line-height:1.25;font-family:sans-serif;fill:#000000;fill-opacity:1;stroke:none;stroke-width:0.75"
       x="250.32083"
       y="-268.98676"
       id="text2645"><tspan
         sodipodi:role="line"
         id="tspan2643"
         style="font-size:13px;stroke-width:0.75"
         x="250.32083"
         y="-268.98676">Y</tspan><tspan
         sodipodi:role="line"
         style="font-size:13px;stroke-width:0.75"
         x="250.32083"
         y="-252.73677"
         id="tspan2647" /></text>
    <text
       xml:space="preserve"
       style="font-size:12px;line-height:1.25;font-family:sans-serif;stroke-width:0.75"
       x="216.965"
       y="-125.14593"
       id="text3026"><tspan
         sodipodi:role="line"
         style="stroke-width:0.75"
         x="216.965"
         y="-125.14593"
         id="tspan3028">Y</tspan></text>
  </g>
</svg>
